{"glyphs":{"0":{"ha":878,"x_min":0,"x_max":0,"o":"m 439 -14 b 794 500 658 -14 794 190 b 439 1014 794 813 658 1014 b 83 500 218 1014 83 813 b 439 -14 83 190 218 -14 z m 439 111 b 139 500 250 111 139 263 b 439 889 139 740 250 889 b 739 500 626 889 739 740 b 439 111 739 263 626 111 z "},"1":{"ha":603,"x_min":0,"x_max":0,"o":"m 243 822 l 243 500 b 229 81 243 322 238 182 l 28 7 l 28 0 l 575 0 l 575 7 l 376 79 b 364 500 369 181 364 321 b 368 1014 364 718 365 865 l 361 1014 b 28 815 283 924 149 854 l 28 808 z "},"2":{"ha":857,"x_min":0,"x_max":0,"o":"m 754 0 l 754 358 l 743 358 b 510 97 732 167 671 97 l 182 97 b 672 785 550 457 672 626 b 399 1014 672 906 586 1014 b 113 733 235 1014 113 892 b 124 646 113 701 117 671 l 136 646 b 131 708 132 664 131 685 b 344 919 131 846 235 919 b 554 733 468 919 554 858 b 46 0 554 536 342 335 z "},"3":{"ha":828,"x_min":0,"x_max":0,"o":"m 425 111 b 106 321 253 111 143 167 l 94 321 b 425 -14 121 97 247 -14 b 758 326 633 -14 758 146 b 528 640 758 489 672 622 l 778 994 l 778 1000 l 140 1000 l 140 643 l 151 643 b 385 893 163 826 224 893 l 669 893 l 307 490 l 307 485 l 451 549 b 706 326 611 544 706 463 b 425 111 706 194 585 111 z "},"4":{"ha":789,"x_min":0,"x_max":0,"o":"m 761 7 l 590 79 b 579 308 586 139 581 215 l 761 308 l 761 406 l 578 406 l 578 1014 l 571 1014 l 0 314 l 0 308 l 460 308 b 447 81 457 215 451 140 l 269 7 l 269 0 l 761 0 z m 146 406 l 461 850 l 461 406 z "},"5":{"ha":828,"x_min":0,"x_max":0,"o":"m 425 111 b 106 321 253 111 143 167 l 94 321 b 425 -14 121 97 247 -14 b 758 326 633 -14 758 146 b 439 667 758 514 639 667 b 176 517 339 667 238 614 l 271 893 l 669 893 l 747 1000 l 203 1000 l 143 449 l 150 449 b 439 542 201 515 314 542 b 706 326 606 542 706 463 b 425 111 706 194 585 111 z "},"6":{"ha":856,"x_min":0,"x_max":0,"o":"m 453 1014 b 83 500 224 1014 83 813 b 439 -14 83 190 218 -14 b 772 313 647 -14 772 139 b 453 639 772 493 653 639 b 151 374 319 639 183 542 b 139 500 143 413 139 454 b 453 889 139 740 256 889 b 744 679 610 889 707 832 l 756 679 b 453 1014 729 903 615 1014 z m 453 514 b 719 313 619 514 719 439 b 453 111 719 189 604 111 b 165 324 310 111 210 190 b 453 514 183 443 300 514 z "},"7":{"ha":694,"x_min":0,"x_max":0,"o":"m 364 0 b 694 994 457 379 518 554 l 694 1000 l 60 1000 l 60 643 l 71 643 b 304 893 82 826 143 893 l 619 893 l 206 6 l 206 0 z "},"8":{"ha":840,"x_min":0,"x_max":0,"o":"m 757 290 b 536 550 757 451 654 513 b 703 779 631 582 703 672 b 414 1014 703 908 586 1014 b 124 751 242 1014 124 896 b 289 499 124 610 196 540 b 83 258 171 467 83 386 b 421 -14 83 97 222 -14 b 757 290 621 -14 757 124 z m 649 739 b 508 557 649 656 589 581 b 179 758 351 601 179 613 b 414 889 179 831 275 889 b 649 739 554 889 649 825 z m 138 299 b 314 489 138 393 211 463 b 701 281 482 424 701 433 b 421 111 701 190 588 111 b 138 299 254 111 138 196 z "},"9":{"ha":856,"x_min":0,"x_max":0,"o":"m 403 -14 b 772 500 632 -14 772 188 b 417 1014 772 810 638 1014 b 83 688 208 1014 83 861 b 403 361 83 507 203 361 b 704 626 536 361 672 458 b 717 500 713 588 717 546 b 403 111 717 260 600 111 b 111 321 246 111 149 168 l 100 321 b 403 -14 126 97 240 -14 z m 136 688 b 403 889 136 811 251 889 b 690 676 546 889 646 810 b 403 486 672 557 556 486 b 136 688 236 486 136 561 z "},"\u0000":{"ha":0,"x_min":0,"x_max":0,"o":""},"\r":{"ha":694,"x_min":0,"x_max":0,"o":""}," ":{"ha":486,"x_min":0,"x_max":0,"o":""},"⁠":{"ha":486,"x_min":0,"x_max":0,"o":""}," ":{"ha":486,"x_min":0,"x_max":0,"o":""}," ":{"ha":1389,"x_min":0,"x_max":0,"o":""}," ":{"ha":694,"x_min":0,"x_max":0,"o":""}," ":{"ha":222,"x_min":0,"x_max":0,"o":""}," ":{"ha":139,"x_min":0,"x_max":0,"o":""}," ":{"ha":833,"x_min":0,"x_max":0,"o":""},"A":{"ha":1140,"x_min":0,"x_max":0,"o":"m 440 6 l 219 78 l 308 317 l 753 317 b 867 75 793 235 833 151 l 685 6 l 685 0 l 1140 0 l 1140 6 l 1010 79 b 789 479 935 188 854 350 l 525 1000 l 322 1000 l 322 993 b 471 874 381 993 431 954 l 485 846 l 138 81 l 0 6 l 0 0 l 440 0 z m 699 424 b 711 400 703 415 707 408 l 340 400 l 497 821 z "},"B":{"ha":1006,"x_min":0,"x_max":0,"o":"m 28 0 l 579 0 b 936 279 792 0 936 94 b 626 532 936 432 813 519 b 867 763 774 557 867 635 b 510 1000 867 918 722 1000 l 28 1000 l 28 993 l 201 919 b 215 500 210 817 215 678 b 201 81 215 322 210 182 l 28 7 z m 510 550 l 336 550 l 336 958 l 510 958 b 736 763 650 958 736 875 b 510 550 736 640 650 550 z m 579 506 b 806 281 719 506 806 408 b 579 42 806 143 719 42 l 336 42 l 336 506 z "},"C":{"ha":1004,"x_min":0,"x_max":0,"o":"m 536 111 b 125 507 301 111 125 265 b 515 897 125 749 289 897 b 851 583 701 897 851 799 l 863 583 l 863 894 b 536 1014 803 954 689 1014 b 69 507 265 1014 69 815 b 529 -14 69 193 267 -14 b 969 386 781 -14 933 149 l 960 388 b 536 111 915 213 779 111 z "},"D":{"ha":1111,"x_min":0,"x_max":0,"o":"m 28 0 l 533 0 b 1042 500 829 0 1042 188 b 533 1000 1042 810 829 1000 l 28 1000 l 28 993 l 201 919 b 215 500 210 817 215 678 b 201 81 215 322 210 182 l 28 7 z m 497 958 b 913 500 771 958 913 761 b 497 42 913 239 771 42 l 336 42 l 336 958 z "},"E":{"ha":964,"x_min":0,"x_max":0,"o":"m 28 0 l 878 0 l 910 325 l 897 325 b 599 42 856 118 758 42 l 336 42 l 336 481 l 546 481 l 640 254 l 651 254 l 651 749 l 640 749 l 546 522 l 336 522 l 336 958 l 572 958 b 832 713 751 958 815 869 l 844 713 l 844 1000 l 28 1000 l 28 993 l 201 919 b 215 500 210 817 215 678 b 201 81 215 322 210 182 l 28 7 z "},"F":{"ha":899,"x_min":0,"x_max":0,"o":"m 617 0 l 617 7 l 349 79 b 336 464 342 175 338 301 l 508 464 l 603 238 l 614 238 l 614 732 l 603 732 l 508 506 l 336 506 l 336 958 l 572 958 b 832 713 751 958 815 869 l 844 713 l 844 1000 l 28 1000 l 28 993 l 201 919 b 215 500 210 817 215 678 b 201 81 215 322 210 182 l 28 7 l 28 0 z "},"G":{"ha":1015,"x_min":0,"x_max":0,"o":"m 926 411 b 536 111 903 233 760 111 b 125 507 301 111 125 265 b 515 897 125 749 289 897 b 851 583 701 897 851 799 l 863 583 l 863 899 b 536 1014 814 949 707 1014 b 69 507 265 1014 69 815 b 529 -14 69 193 267 -14 b 967 467 800 -14 967 194 l 967 508 l 500 508 l 413 411 z "},"H":{"ha":1283,"x_min":0,"x_max":0,"o":"m 28 0 l 519 0 l 519 7 l 349 79 b 336 500 342 181 336 321 l 336 506 l 951 506 l 951 500 b 938 81 951 322 946 182 l 764 7 l 764 0 l 1256 0 l 1256 7 l 1085 79 b 1072 500 1078 181 1072 321 b 1085 921 1072 679 1078 818 l 1256 993 l 1256 1000 l 764 1000 l 764 993 l 938 919 b 951 547 944 826 950 703 l 336 547 b 349 921 338 704 342 828 l 519 993 l 519 1000 l 28 1000 l 28 993 l 201 919 b 215 500 210 817 215 678 b 201 81 215 322 210 182 l 28 7 z "},"I":{"ha":547,"x_min":0,"x_max":0,"o":"m 28 0 l 519 0 l 519 7 l 349 79 b 336 500 342 181 336 321 b 349 921 336 679 342 818 l 519 993 l 519 1000 l 28 1000 l 28 993 l 201 919 b 215 500 210 817 215 678 b 201 81 215 322 210 182 l 28 7 z "},"J":{"ha":547,"x_min":0,"x_max":0,"o":"m 336 -15 l 336 500 b 349 921 336 679 342 818 l 519 993 l 519 1000 l 28 1000 l 28 993 l 201 919 b 215 500 210 817 215 678 l 215 8 b 28 -296 215 -186 154 -275 l 26 -306 b 336 -15 207 -306 336 -218 z "},"K":{"ha":1076,"x_min":0,"x_max":0,"o":"m 28 0 l 519 0 l 519 7 l 349 79 b 336 499 342 179 336 318 l 811 0 l 1076 0 l 1076 7 b 892 104 1036 7 968 32 l 425 551 l 858 915 l 1057 994 l 1057 1000 l 599 1000 l 599 994 l 753 922 l 336 507 b 349 921 336 679 342 818 l 519 993 l 519 1000 l 28 1000 l 28 993 l 201 919 b 215 500 210 817 215 678 b 201 81 215 322 210 182 l 28 7 z "},"L":{"ha":964,"x_min":0,"x_max":0,"o":"m 336 500 b 349 921 336 679 342 818 l 617 993 l 617 1000 l 28 1000 l 28 993 l 201 919 b 215 500 210 817 215 678 b 201 81 215 322 210 182 l 28 7 l 28 0 l 878 0 l 910 325 l 897 325 b 599 42 856 118 758 42 l 336 42 z "},"M":{"ha":1376,"x_min":0,"x_max":0,"o":"m 857 0 l 1349 0 l 1349 7 l 1178 79 b 1165 500 1171 181 1164 321 l 1169 894 b 1363 993 1224 971 1279 993 l 1363 1000 l 1086 1000 l 689 128 l 283 1000 l 0 1000 l 0 993 b 211 854 90 993 153 954 l 211 500 b 199 79 211 321 206 182 l 28 7 l 28 0 l 440 0 l 440 7 l 267 81 b 253 500 258 183 253 322 l 253 772 l 643 -28 l 650 -28 l 1044 761 l 1044 500 b 1031 81 1044 322 1039 182 l 857 7 z "},"N":{"ha":1253,"x_min":0,"x_max":0,"o":"m 994 -28 l 1007 -28 l 1007 500 b 1019 921 1007 679 1013 818 l 1190 993 l 1190 1000 l 778 1000 l 778 993 l 951 919 b 965 500 960 817 965 678 l 965 178 l 240 1000 l 0 1000 l 0 993 b 211 851 67 993 129 942 l 211 500 b 199 79 211 321 206 182 l 28 7 l 28 0 l 440 0 l 440 7 l 267 81 b 253 500 258 183 253 322 l 253 806 z "},"O":{"ha":1072,"x_min":0,"x_max":0,"o":"m 536 -14 b 1003 500 807 -14 1003 190 b 536 1014 1003 813 807 1014 b 69 500 265 1014 69 813 b 536 -14 69 190 265 -14 z m 536 111 b 125 500 297 111 125 263 b 536 889 125 740 297 889 b 947 500 775 889 947 740 b 536 111 947 263 775 111 z "},"P":{"ha":992,"x_min":0,"x_max":0,"o":"m 617 0 l 617 7 l 349 79 b 336 453 342 174 338 294 l 551 453 b 908 735 764 453 908 549 b 551 1000 908 908 764 1000 l 28 1000 l 28 993 l 201 919 b 215 500 210 817 215 678 b 201 81 215 322 210 182 l 28 7 l 28 0 z m 551 494 l 336 494 l 336 958 l 551 958 b 778 735 692 958 778 863 b 551 494 778 596 692 494 z "},"Q":{"ha":1072,"x_min":0,"x_max":0,"o":"m 1283 -129 l 1276 -122 b 989 -204 1207 -175 1111 -204 b 521 -14 851 -204 725 -167 b 1003 500 807 -14 1003 190 b 536 1014 1003 813 807 1014 b 69 500 265 1014 69 813 b 463 -10 69 214 236 18 b 943 -306 722 -247 821 -306 b 1283 -129 1078 -306 1182 -224 z m 536 111 b 125 500 297 111 125 263 b 536 889 125 740 297 889 b 947 500 775 889 947 740 b 536 111 947 263 775 111 z "},"R":{"ha":1076,"x_min":0,"x_max":0,"o":"m 617 0 l 617 7 l 349 79 b 336 513 342 185 336 326 l 811 0 l 1076 0 l 1076 7 b 892 104 1036 7 967 31 l 499 494 l 551 494 b 908 756 764 494 908 585 b 551 1000 908 917 764 1000 l 28 1000 l 28 993 l 201 919 b 215 500 210 817 215 678 b 201 81 215 322 210 182 l 28 7 l 28 0 z m 551 536 l 336 536 l 336 958 l 551 958 b 778 756 692 958 778 872 b 551 536 778 629 692 536 z "},"S":{"ha":913,"x_min":0,"x_max":0,"o":"m 450 -14 b 822 294 668 -14 822 92 b 168 735 822 733 168 435 b 431 904 168 839 292 904 b 740 626 574 904 740 842 l 751 626 l 751 910 b 444 1014 697 964 588 1014 b 119 725 274 1014 119 901 b 771 272 119 257 771 579 b 458 96 771 156 644 96 b 122 389 272 96 122 189 l 111 389 l 111 106 b 450 -14 172 44 292 -14 z "},"T":{"ha":953,"x_min":0,"x_max":0,"o":"m 189 0 l 764 0 l 764 7 l 551 79 b 539 500 544 181 539 321 l 539 958 l 639 958 b 899 685 818 958 881 860 l 911 685 l 911 1000 l 42 1000 l 42 685 l 54 685 b 314 958 72 860 135 958 l 418 958 l 418 500 b 404 81 418 322 413 182 l 189 7 z "},"U":{"ha":1206,"x_min":0,"x_max":0,"o":"m 994 424 l 994 500 b 1007 921 994 679 1000 818 l 1178 993 l 1178 1000 l 765 1000 l 765 993 l 939 919 b 953 500 947 817 953 678 l 953 424 b 663 57 953 199 853 57 b 336 435 440 57 336 204 l 336 500 b 349 921 336 679 342 818 l 519 993 l 519 1000 l 28 1000 l 28 993 l 201 919 b 215 500 210 817 215 678 l 215 426 b 619 -14 215 150 365 -14 b 994 424 885 -14 994 143 z "},"V":{"ha":1153,"x_min":0,"x_max":0,"o":"m 724 1000 l 724 994 l 938 914 l 629 131 l 454 511 b 279 926 385 664 321 808 l 497 994 l 497 1000 l 0 1000 l 0 994 l 128 922 b 346 478 190 799 275 629 l 583 -28 l 590 -28 l 1019 911 l 1153 994 l 1153 1000 z "},"W":{"ha":1667,"x_min":0,"x_max":0,"o":"m 1238 1000 l 1238 994 l 1454 917 l 1171 136 l 1042 511 b 903 933 988 668 938 811 l 1122 994 l 1122 1000 l 625 1000 l 625 994 l 751 929 b 768 893 757 918 763 906 l 568 147 l 429 511 b 276 929 371 665 318 813 l 497 994 l 497 1000 l 0 1000 l 0 994 l 125 926 b 321 478 188 804 258 631 l 528 -28 l 535 -28 l 825 757 b 933 478 861 667 899 568 l 1125 -28 l 1132 -28 l 1536 914 l 1667 994 l 1667 1000 z "},"X":{"ha":1069,"x_min":0,"x_max":0,"o":"m 563 365 b 756 81 631 274 699 174 l 601 7 l 601 0 l 1069 0 l 1069 7 l 921 79 b 649 433 831 194 735 317 l 567 544 l 844 919 l 999 993 l 999 1000 l 599 1000 l 599 993 l 761 922 l 543 575 l 488 650 b 304 922 424 736 357 840 l 440 993 l 440 1000 l 3 1000 l 3 993 l 153 917 b 378 615 224 825 307 713 l 465 497 l 153 83 l 0 7 l 0 0 l 414 0 l 414 7 l 236 81 l 488 467 z "},"Y":{"ha":1126,"x_min":0,"x_max":0,"o":"m 286 0 l 861 0 l 861 7 l 649 79 b 636 444 643 167 636 289 l 636 479 l 990 911 l 1126 994 l 1126 1000 l 722 1000 l 722 994 l 903 904 l 611 501 l 458 713 b 313 925 407 783 357 853 l 478 994 l 478 1000 l 0 1000 l 0 994 l 140 935 b 356 676 210 857 283 771 l 515 460 l 515 444 b 501 81 515 290 508 168 l 286 7 z "},"Z":{"ha":918,"x_min":0,"x_max":0,"o":"m 851 358 l 840 358 b 607 97 829 167 768 97 l 228 97 l 847 994 l 847 1000 l 111 1000 l 111 643 l 122 643 b 356 893 133 826 194 893 l 742 893 l 49 6 l 49 0 l 851 0 z "},"a":{"ha":810,"x_min":0,"x_max":0,"o":"m 781 57 l 781 65 b 660 225 713 81 660 117 l 660 432 b 406 722 660 621 576 722 b 138 442 243 722 138 593 l 147 442 b 372 626 167 551 244 626 b 553 400 496 626 553 572 l 428 400 b 97 190 201 400 97 324 b 310 -14 97 57 192 -14 b 557 151 424 -14 511 74 l 567 149 l 553 -14 l 558 -17 z m 553 178 b 347 81 486 113 426 81 b 211 211 267 81 211 131 b 417 360 211 301 282 344 l 553 376 z "},"b":{"ha":919,"x_min":0,"x_max":0,"o":"m 269 121 b 522 -14 319 33 419 -14 b 850 365 704 -14 850 142 b 536 722 850 578 728 722 b 261 521 410 722 311 643 l 251 525 b 269 776 257 590 269 690 l 269 1056 l 264 1060 l 42 969 l 42 960 b 163 800 110 944 163 908 l 163 632 b 136 0 163 338 151 128 l 146 -7 z m 490 64 b 269 175 397 64 311 106 l 269 486 b 494 607 329 558 397 607 b 739 346 636 607 739 500 b 490 64 739 179 638 64 z "},"c":{"ha":736,"x_min":0,"x_max":0,"o":"m 388 -14 b 694 236 572 -14 663 126 l 686 240 b 411 104 629 157 542 104 b 136 363 250 104 136 213 b 354 606 136 511 226 606 b 528 549 439 606 488 582 l 571 351 l 581 351 l 617 653 b 410 722 582 685 501 722 b 69 336 186 722 69 558 b 388 -14 69 133 182 -14 z "},"d":{"ha":899,"x_min":0,"x_max":0,"o":"m 653 -18 l 878 72 l 878 82 b 758 221 815 97 758 128 l 758 1056 l 753 1060 l 531 969 l 531 960 b 650 800 597 944 650 908 l 650 588 b 397 722 600 675 500 722 b 69 343 215 722 69 567 b 383 -14 69 131 192 -14 b 658 188 510 -14 608 65 l 668 183 l 647 -14 z m 429 644 b 650 533 522 644 608 603 l 650 222 b 425 101 590 150 522 101 b 181 363 283 101 181 208 b 429 644 181 529 282 644 z "},"e":{"ha":757,"x_min":0,"x_max":0,"o":"m 708 236 l 700 240 b 425 104 643 157 556 104 b 156 347 281 104 174 204 l 624 332 l 653 365 l 653 428 b 388 722 653 564 610 722 b 83 336 182 722 83 558 b 401 -14 83 133 196 -14 b 708 236 586 -14 676 126 z m 385 607 b 610 428 538 607 610 504 l 156 428 b 385 607 172 539 267 607 z "},"f":{"ha":604,"x_min":0,"x_max":0,"o":"m 85 625 l 208 625 b 178 54 206 375 192 182 l 69 7 l 69 0 l 504 0 l 504 7 l 314 67 l 314 625 l 565 625 l 565 708 l 314 708 l 314 807 b 454 979 314 928 365 979 b 578 938 506 979 542 963 l 619 776 l 629 776 l 660 1024 b 500 1069 626 1044 565 1069 b 208 706 336 1069 208 843 l 208 682 l 85 632 z "},"g":{"ha":764,"x_min":0,"x_max":0,"o":"m 115 451 b 235 239 115 357 160 282 b 104 94 169 206 104 174 b 185 -12 104 44 138 6 b 50 -149 115 -32 50 -83 b 368 -319 50 -239 133 -319 b 713 -110 604 -319 713 -236 b 482 89 713 1 663 89 l 332 89 b 193 156 229 89 193 110 b 258 226 193 192 224 213 b 368 207 289 214 326 207 b 619 478 518 207 619 335 b 544 654 619 543 592 606 l 722 606 l 722 739 l 519 675 b 368 722 479 703 429 722 b 115 451 217 722 115 606 z m 393 311 b 168 478 263 311 168 365 b 340 611 168 564 240 611 b 568 447 460 611 568 553 b 393 311 568 351 485 311 z m 497 -26 b 665 -110 615 -26 665 -53 b 369 -212 665 -179 582 -212 b 129 -112 192 -212 129 -169 b 219 -21 129 -72 158 -40 b 328 -26 249 -25 288 -26 z "},"h":{"ha":997,"x_min":0,"x_max":0,"o":"m 313 1056 l 307 1060 l 85 969 l 85 960 b 206 800 153 944 206 908 l 206 488 b 178 54 206 335 194 214 l 69 7 l 69 0 l 453 0 l 453 7 l 314 67 l 314 493 b 528 610 383 564 442 610 b 711 393 628 610 711 556 b 688 56 711 311 704 186 l 572 7 l 572 0 l 956 0 l 956 7 l 817 67 l 817 432 b 586 722 817 639 719 722 b 310 518 456 722 379 628 l 300 522 b 313 776 306 588 313 689 z "},"i":{"ha":508,"x_min":0,"x_max":0,"o":"m 179 986 b 263 904 179 940 218 904 b 346 986 308 904 346 940 b 263 1069 346 1031 308 1069 b 179 986 218 1069 179 1031 z m 453 0 l 453 7 l 314 67 l 314 722 l 308 726 l 86 636 l 86 626 b 206 488 149 611 206 581 b 178 54 206 335 194 214 l 69 7 l 69 0 z "},"j":{"ha":453,"x_min":0,"x_max":0,"o":"m 172 986 b 256 904 172 940 211 904 b 339 986 301 904 339 940 b 256 1069 339 1031 301 1069 b 172 986 211 1069 172 1031 z m 69 -306 b 314 -61 243 -306 314 -221 l 314 722 l 308 726 l 79 636 l 79 626 b 201 482 144 611 201 578 l 201 -19 b 74 -296 201 -200 181 -278 z "},"k":{"ha":875,"x_min":0,"x_max":0,"o":"m 454 7 l 315 67 l 315 399 l 657 0 l 903 0 l 903 7 b 667 165 851 7 768 57 l 406 442 l 681 626 l 850 701 l 850 708 l 508 708 l 508 701 l 611 640 l 315 406 l 315 1056 l 310 1060 l 88 969 l 88 960 b 208 800 156 944 208 908 l 208 515 b 179 54 208 311 190 157 l 69 7 l 69 0 l 454 0 z "},"l":{"ha":482,"x_min":0,"x_max":0,"o":"m 454 7 l 315 67 l 315 1056 l 310 1060 l 88 969 l 88 960 b 208 800 156 944 208 908 l 208 515 b 179 54 208 311 190 157 l 69 7 l 69 0 l 454 0 z "},"m":{"ha":1472,"x_min":0,"x_max":0,"o":"m 453 0 l 453 7 l 314 67 l 314 493 b 521 610 382 563 438 610 b 697 393 617 610 697 556 b 674 56 697 311 690 186 l 558 7 l 558 0 l 942 0 l 942 7 l 803 67 l 803 432 b 800 488 803 451 801 469 b 1010 610 860 557 924 610 b 1186 393 1106 610 1186 556 b 1163 56 1186 311 1179 186 l 1047 7 l 1047 0 l 1431 0 l 1431 7 l 1292 67 l 1292 432 b 1068 722 1292 639 1197 722 b 797 515 942 722 861 626 b 579 722 775 661 689 722 b 310 518 453 722 379 626 l 300 522 l 314 722 l 308 726 l 86 636 l 86 626 b 206 488 149 611 206 581 b 178 54 206 335 194 214 l 69 7 l 69 0 z "},"n":{"ha":997,"x_min":0,"x_max":0,"o":"m 453 0 l 453 7 l 314 67 l 314 493 b 528 610 383 564 442 610 b 711 393 628 610 711 556 b 688 56 711 311 704 186 l 572 7 l 572 0 l 956 0 l 956 7 l 817 67 l 817 432 b 586 722 817 639 719 722 b 310 518 456 722 379 628 l 300 522 l 314 722 l 308 726 l 86 636 l 86 626 b 206 488 149 611 206 581 b 178 54 206 335 194 214 l 69 7 l 69 0 z "},"o":{"ha":814,"x_min":0,"x_max":0,"o":"m 69 336 b 392 -14 69 133 192 -14 b 744 371 614 -14 744 168 b 417 722 744 553 632 722 b 69 336 197 722 69 558 z m 424 108 b 135 374 264 108 135 214 b 389 596 135 504 231 596 b 675 333 529 596 675 500 b 424 108 675 192 564 108 z "},"p":{"ha":940,"x_min":0,"x_max":0,"o":"m 182 269 b 165 -249 182 17 175 -119 l 46 -299 l 46 -306 l 464 -306 l 464 -299 l 290 -240 l 290 121 b 543 -14 340 33 440 -14 b 871 365 725 -14 871 142 b 557 722 871 578 749 722 b 282 521 431 722 332 643 l 272 525 l 293 722 l 288 726 l 63 636 l 63 626 b 182 488 125 611 182 581 z m 511 64 b 290 175 418 64 332 106 l 290 486 b 515 607 350 558 418 607 b 760 346 657 607 760 500 b 511 64 760 179 658 64 z "},"q":{"ha":915,"x_min":0,"x_max":0,"o":"m 763 708 l 753 715 l 650 588 b 397 722 600 675 500 722 b 69 343 215 722 69 567 b 383 -14 69 131 192 -14 b 650 168 503 -14 597 57 b 639 -240 647 -11 644 -99 l 458 -299 l 458 -306 l 901 -306 l 901 -299 l 763 -240 z m 429 644 b 650 533 522 644 608 603 l 650 222 b 425 101 590 150 522 101 b 181 363 283 101 181 208 b 429 644 181 529 282 644 z "},"r":{"ha":717,"x_min":0,"x_max":0,"o":"m 647 693 b 525 722 621 710 571 722 b 306 521 411 722 342 611 l 296 525 l 314 722 l 308 726 l 86 636 l 86 626 b 206 488 149 611 206 581 b 178 54 206 335 194 214 l 69 7 l 69 0 l 522 0 l 522 7 l 314 67 l 314 492 b 483 608 349 554 406 608 b 585 575 531 608 563 592 l 640 403 l 647 403 z "},"s":{"ha":732,"x_min":0,"x_max":0,"o":"m 344 613 b 524 560 431 613 494 582 l 578 436 l 585 436 l 585 671 b 383 722 539 694 475 722 b 126 507 226 722 126 636 b 583 192 126 158 583 389 b 385 92 583 121 485 92 b 182 154 286 92 222 126 l 132 272 l 125 272 l 125 54 b 374 -14 151 33 246 -14 b 635 211 535 -14 635 60 b 174 517 635 546 174 315 b 344 613 174 576 236 613 z "},"t":{"ha":656,"x_min":0,"x_max":0,"o":"m 14 625 l 153 625 l 153 283 b 396 -14 153 89 235 -14 b 642 196 547 -14 608 94 l 633 199 b 435 83 589 135 543 83 b 260 318 326 83 260 138 l 260 625 l 586 625 l 586 708 l 260 708 l 260 914 l 253 914 b 14 632 203 768 140 686 z "},"u":{"ha":921,"x_min":0,"x_max":0,"o":"m 569 660 l 569 650 b 639 564 618 639 639 615 l 639 217 b 433 100 569 144 518 100 b 250 317 333 100 250 154 b 265 722 250 404 256 550 l 260 725 l 56 661 l 56 653 b 143 515 118 636 143 606 l 143 276 b 375 -14 143 71 240 -14 b 642 190 504 -14 572 81 l 653 186 l 639 -14 l 643 -17 l 865 57 l 865 65 b 744 204 801 79 744 113 b 774 722 744 410 754 542 l 768 725 z "},"v":{"ha":849,"x_min":0,"x_max":0,"o":"m 525 708 l 525 701 l 663 638 l 474 138 l 232 643 l 379 701 l 379 708 l 0 708 l 0 701 l 96 646 l 424 -28 l 431 -28 l 740 633 l 849 701 l 849 708 z "},"w":{"ha":1221,"x_min":0,"x_max":0,"o":"m 932 708 l 932 701 l 1039 639 l 875 154 l 693 632 l 803 701 l 803 708 l 443 708 l 443 701 l 553 638 l 569 594 l 421 154 l 231 643 l 340 701 l 340 708 l 0 708 l 0 701 l 92 650 l 371 -28 l 378 -28 l 608 504 l 825 -28 l 832 -28 l 1118 638 l 1221 701 l 1221 708 z "},"x":{"ha":811,"x_min":0,"x_max":0,"o":"m 306 0 l 306 7 l 201 68 l 363 308 l 550 63 l 442 7 l 442 0 l 811 0 l 811 7 l 696 61 l 443 386 l 643 631 l 772 701 l 772 708 l 472 708 l 472 701 l 575 640 l 422 413 l 240 646 l 349 701 l 349 708 l 0 708 l 0 701 l 100 654 l 343 333 l 129 78 l 0 7 l 0 0 z "},"y":{"ha":871,"x_min":0,"x_max":0,"o":"m 110 646 l 318 213 b 399 -19 365 115 399 44 b 206 -190 399 -126 315 -190 b 133 -176 178 -190 154 -187 l 103 -32 l 94 -32 l 53 -289 b 183 -319 85 -308 140 -319 b 450 -61 279 -319 357 -267 l 763 633 l 871 701 l 871 708 l 547 708 l 547 701 l 685 636 l 494 125 l 256 640 l 401 701 l 401 708 l 14 708 l 14 701 z "},"z":{"ha":683,"x_min":0,"x_max":0,"o":"m 617 0 l 617 236 l 606 236 l 529 99 l 235 99 l 628 708 l 110 708 l 110 414 l 122 414 l 204 601 l 511 601 l 56 0 z "},"ᴀ":{"ha":1001,"x_min":0,"x_max":0,"o":"m 728 75 l 546 6 l 546 0 l 1001 0 l 1001 6 l 871 79 l 456 861 l 253 861 l 253 854 b 401 735 311 854 361 815 l 415 706 l 138 81 l 0 6 l 0 0 l 440 0 l 440 6 l 219 78 l 278 247 l 643 247 z m 307 331 l 428 681 l 601 331 z "},"ʙ":{"ha":964,"x_min":0,"x_max":0,"o":"m 28 0 l 579 0 b 894 244 767 0 894 82 b 622 463 894 375 786 451 b 825 658 746 486 825 551 b 510 861 825 790 697 861 l 28 861 l 28 854 l 201 781 b 215 431 211 694 215 579 b 201 81 215 282 208 165 l 28 7 z m 510 481 l 336 481 l 336 819 l 510 819 b 694 658 625 819 694 751 b 510 481 694 557 625 481 z m 579 436 b 764 246 694 436 764 354 b 579 42 764 129 693 42 l 336 42 l 336 436 z "},"ᴄ":{"ha":851,"x_min":0,"x_max":0,"o":"m 467 111 b 125 438 272 111 125 239 b 446 758 125 636 260 758 b 713 472 593 758 713 668 l 724 472 l 724 783 b 467 875 675 832 588 875 b 69 438 236 875 69 703 b 460 -14 69 165 238 -14 b 817 344 664 -14 785 133 l 807 346 b 467 111 769 196 663 111 z "},"ᴅ":{"ha":1042,"x_min":0,"x_max":0,"o":"m 28 0 l 533 0 b 972 431 789 0 972 161 b 533 861 972 697 789 861 l 28 861 l 28 854 l 201 781 b 215 431 208 694 215 579 b 201 81 215 282 208 165 l 28 7 z m 497 819 b 843 431 725 819 843 651 b 497 42 843 208 725 42 l 336 42 l 336 819 z "},"ᴇ":{"ha":894,"x_min":0,"x_max":0,"o":"m 28 0 l 808 0 l 840 325 l 828 325 b 529 42 786 118 689 42 l 336 42 l 336 411 l 476 411 l 571 185 l 582 185 l 582 679 l 571 679 l 476 453 l 336 453 l 336 819 l 503 819 b 763 574 682 819 746 731 l 775 574 l 775 861 l 28 861 l 28 854 l 201 781 b 215 431 208 694 215 579 b 201 81 215 282 208 165 l 28 7 z "},"ꜰ":{"ha":829,"x_min":0,"x_max":0,"o":"m 617 0 l 617 7 l 349 79 b 336 394 343 158 338 263 l 494 394 l 589 168 l 600 168 l 600 663 l 589 663 l 494 436 l 336 436 l 336 819 l 503 819 b 763 574 682 819 746 731 l 775 574 l 775 861 l 28 861 l 28 854 l 201 781 b 215 431 208 694 215 579 b 201 81 215 282 208 165 l 28 7 l 28 0 z "},"ɢ":{"ha":876,"x_min":0,"x_max":0,"o":"m 446 758 b 713 486 593 758 713 672 l 724 486 l 724 783 b 467 875 675 832 588 875 b 69 438 236 875 69 703 b 460 -14 69 165 238 -14 b 828 397 688 -14 828 164 l 828 439 l 431 439 l 343 342 l 788 342 b 467 111 769 204 650 111 b 125 438 272 111 125 239 b 446 758 125 636 260 758 z "},"ʜ":{"ha":1144,"x_min":0,"x_max":0,"o":"m 28 0 l 519 0 l 519 7 l 349 79 b 336 431 343 164 336 281 l 336 436 l 813 436 l 813 431 b 799 81 813 282 806 165 l 625 7 l 625 0 l 1117 0 l 1117 7 l 946 79 b 933 431 940 164 933 281 b 946 782 933 579 940 696 l 1117 854 l 1117 861 l 625 861 l 625 854 l 799 781 b 813 478 804 704 811 604 l 336 478 b 349 782 338 604 343 706 l 519 854 l 519 861 l 28 861 l 28 854 l 201 781 b 215 431 208 694 215 579 b 201 81 215 282 208 165 l 28 7 z "},"ɪ":{"ha":547,"x_min":0,"x_max":0,"o":"m 28 0 l 519 0 l 519 7 l 349 79 b 336 431 343 164 336 281 b 349 782 336 579 343 696 l 519 854 l 519 861 l 28 861 l 28 854 l 201 781 b 215 431 208 694 215 579 b 201 81 215 282 208 165 l 28 7 z "},"ᴊ":{"ha":547,"x_min":0,"x_max":0,"o":"m 336 -15 l 336 500 b 349 782 336 619 344 713 l 519 854 l 519 861 l 28 861 l 28 854 l 201 781 b 215 500 207 711 215 619 l 215 8 b 28 -296 215 -186 154 -275 l 26 -306 b 336 -15 207 -306 336 -218 z "},"ᴋ":{"ha":1007,"x_min":0,"x_max":0,"o":"m 28 0 l 519 0 l 519 7 l 349 79 b 336 429 343 164 336 279 l 742 0 l 1007 0 l 1007 7 b 753 161 951 7 865 51 l 425 482 l 789 776 l 988 856 l 988 861 l 543 861 l 543 856 l 683 783 l 336 438 b 349 782 336 579 343 696 l 506 854 l 506 861 l 28 861 l 28 854 l 201 781 b 215 431 208 694 215 579 b 201 81 215 282 208 165 l 28 7 z "},"ʟ":{"ha":894,"x_min":0,"x_max":0,"o":"m 336 500 b 349 782 336 619 344 713 l 617 854 l 617 861 l 28 861 l 28 854 l 201 781 b 215 500 207 711 215 619 b 201 81 215 322 210 182 l 28 7 l 28 0 l 808 0 l 840 325 l 828 325 b 529 42 786 118 689 42 l 336 42 z "},"ᴍ":{"ha":1238,"x_min":0,"x_max":0,"o":"m 718 0 l 1210 0 l 1210 7 l 1039 79 b 1026 500 1032 181 1024 321 l 1029 756 b 1224 854 1085 832 1140 854 l 1224 861 l 947 861 l 619 128 l 283 861 l 0 861 l 0 854 b 211 715 90 854 153 817 l 211 500 b 199 79 211 321 206 182 l 28 7 l 28 0 l 440 0 l 440 7 l 267 81 b 253 500 258 183 253 322 l 253 633 l 574 -28 l 581 -28 l 906 622 l 906 500 b 892 81 906 322 900 182 l 718 7 z "},"ɴ":{"ha":1114,"x_min":0,"x_max":0,"o":"m 856 -28 l 868 -28 l 868 361 b 881 782 868 540 874 679 l 1051 854 l 1051 861 l 639 861 l 639 854 l 813 781 b 826 361 821 678 826 539 l 826 179 l 240 861 l 0 861 l 0 854 b 211 713 67 854 131 804 l 211 500 b 199 79 211 321 206 182 l 28 7 l 28 0 l 440 0 l 440 7 l 267 81 b 253 500 258 183 253 322 l 253 665 z "},"ᴏ":{"ha":933,"x_min":0,"x_max":0,"o":"m 467 -14 b 864 431 697 -14 864 163 b 467 875 864 700 697 875 b 69 431 236 875 69 700 b 467 -14 69 163 236 -14 z m 467 111 b 125 431 268 111 125 236 b 467 750 125 628 268 750 b 808 431 665 750 808 628 b 467 111 808 236 665 111 z "},"ᴘ":{"ha":950,"x_min":0,"x_max":0,"o":"m 617 0 l 617 7 l 349 79 b 338 342 344 149 339 233 l 524 342 b 867 610 728 342 867 433 b 524 861 867 774 728 861 l 28 861 l 28 854 l 201 781 b 215 431 207 694 215 579 b 201 81 215 282 208 165 l 28 7 l 28 0 z m 524 383 l 336 383 b 336 425 336 397 336 411 l 336 819 l 524 819 b 736 610 654 819 736 729 b 524 383 736 478 654 383 z "},"":{"ha":933,"x_min":0,"x_max":0,"o":"m 467 -14 b 888 -250 686 -210 779 -250 b 1186 -87 1006 -250 1094 -172 l 1179 -81 b 933 -149 1121 -125 1038 -149 b 519 -11 811 -149 692 -132 b 864 431 722 14 864 183 b 467 875 864 700 697 875 b 69 431 236 875 69 700 b 467 -14 69 163 236 -14 z m 467 111 b 125 431 268 111 125 236 b 467 750 125 628 268 750 b 808 431 665 750 808 628 b 467 111 808 236 665 111 z "},"ʀ":{"ha":1007,"x_min":0,"x_max":0,"o":"m 561 0 l 561 7 l 349 79 b 336 443 343 168 336 288 l 742 0 l 1007 0 l 1007 7 b 822 104 967 7 896 31 l 499 425 l 551 425 b 832 651 718 425 832 503 b 551 861 832 789 718 861 l 28 861 l 28 854 l 201 781 b 215 431 208 696 215 579 b 201 81 215 282 208 165 l 28 7 l 28 0 z m 551 467 l 336 467 l 336 819 l 551 819 b 701 651 644 819 701 749 b 551 467 701 546 644 467 z "},"ꜱ":{"ha":814,"x_min":0,"x_max":0,"o":"m 403 -14 b 724 265 590 -14 724 81 b 160 631 724 643 160 401 b 386 763 160 700 226 763 b 653 524 510 763 653 708 l 663 524 l 663 782 b 399 875 615 829 521 875 b 118 622 251 875 118 776 b 679 246 118 224 679 474 b 410 96 679 146 571 96 b 121 350 250 96 121 176 l 111 350 l 111 89 b 403 -14 164 36 267 -14 z "},"ᴛ":{"ha":953,"x_min":0,"x_max":0,"o":"m 189 0 l 764 0 l 764 7 l 551 79 b 539 500 544 181 539 321 l 539 819 l 639 819 b 899 546 818 819 881 721 l 911 546 l 911 861 l 42 861 l 42 546 l 54 546 b 314 819 72 721 135 819 l 418 819 l 418 500 b 404 81 418 322 413 182 l 189 7 z "},"ᴜ":{"ha":1136,"x_min":0,"x_max":0,"o":"m 925 354 l 925 431 b 938 782 925 581 932 696 l 1108 854 l 1108 861 l 696 861 l 696 854 l 869 781 b 883 431 876 694 883 579 l 883 354 b 628 57 883 172 796 57 b 336 365 429 57 336 178 l 336 431 b 349 782 336 581 343 696 l 519 854 l 519 861 l 28 861 l 28 854 l 201 781 b 215 431 208 694 215 579 l 215 357 b 585 -14 215 124 353 -14 b 925 354 825 -14 925 118 z "},"ᴠ":{"ha":1014,"x_min":0,"x_max":0,"o":"m 585 861 l 585 856 l 799 775 l 558 132 l 389 511 b 279 788 339 622 306 707 l 497 856 l 497 861 l 0 861 l 0 856 l 128 783 b 281 478 172 694 231 588 l 514 -28 l 521 -28 l 881 772 l 1014 856 l 1014 861 z "},"ᴡ":{"ha":1501,"x_min":0,"x_max":0,"o":"m 1128 861 l 1128 856 l 1289 778 l 1061 136 l 932 511 b 842 794 894 621 867 710 l 1061 856 l 1061 861 l 564 861 l 564 856 l 690 790 b 706 758 696 779 700 769 l 508 143 l 369 511 b 276 790 329 618 304 710 l 497 856 l 497 861 l 0 861 l 0 856 l 125 788 b 261 478 175 689 218 585 l 467 -28 l 474 -28 l 763 631 b 824 478 783 581 804 529 l 1015 -28 l 1022 -28 l 1371 775 l 1501 856 l 1501 861 z "},"":{"ha":1069,"x_min":0,"x_max":0,"o":"m 496 296 b 638 81 549 222 592 154 l 471 7 l 471 0 l 939 0 l 939 7 l 803 79 b 582 364 728 163 651 268 l 499 478 l 706 781 l 860 854 l 860 861 l 460 861 l 460 854 l 622 783 l 476 510 l 424 581 b 285 783 374 650 329 719 l 431 854 l 431 861 l -7 861 l -7 854 l 133 778 b 314 546 206 696 249 635 l 397 431 l 153 83 l 0 7 l 0 0 l 414 0 l 414 7 l 236 81 l 419 400 z "},"ʏ":{"ha":988,"x_min":0,"x_max":0,"o":"m 217 0 l 792 0 l 792 7 l 579 79 b 567 375 575 150 567 249 l 567 410 l 851 772 l 988 856 l 988 861 l 583 861 l 583 856 l 764 765 l 542 432 l 389 643 b 297 786 357 688 325 739 l 478 856 l 478 861 l 0 861 l 0 856 l 129 796 b 286 607 181 744 238 674 l 446 390 l 446 375 b 432 81 446 250 438 151 l 217 7 z "},"ᴢ":{"ha":779,"x_min":0,"x_max":0,"o":"m 713 358 l 701 358 b 468 97 690 167 629 97 l 226 97 l 708 856 l 708 861 l 83 861 l 83 504 l 94 504 b 328 754 106 688 167 754 l 603 754 l 49 6 l 49 0 l 713 0 z "},"&":{"ha":1110,"x_min":0,"x_max":0,"o":"m 856 0 l 1138 0 l 1138 7 b 885 133 1057 7 963 71 l 646 325 b 460 469 578 381 515 428 b 921 443 579 468 807 460 l 1024 539 l 553 539 b 706 782 635 610 706 699 b 443 1014 706 910 606 1014 b 181 750 282 1014 181 908 b 276 499 181 636 208 571 b 69 258 158 468 69 388 b 376 -14 69 97 196 -14 b 656 174 526 -14 613 61 z m 222 749 b 429 896 222 857 308 896 b 651 758 549 896 651 844 b 446 481 651 675 579 592 b 222 749 307 588 222 661 z m 124 299 b 290 486 124 390 193 457 b 583 235 354 422 449 350 l 636 189 b 407 104 592 135 533 104 b 124 299 240 104 124 192 z "},"":{"ha":1110,"x_min":0,"x_max":0,"o":"m 736 -1 l 979 -1 l 979 7 b 761 113 910 7 828 60 l 556 278 b 394 403 496 325 442 367 b 793 379 496 401 694 393 l 882 476 l 476 476 b 607 671 544 536 607 604 b 382 871 607 782 521 871 b 146 644 238 871 146 781 b 235 426 146 544 172 489 b 60 221 135 399 60 331 b 324 -14 60 82 168 -14 b 558 151 451 -14 522 53 z m 185 643 b 369 756 185 726 261 756 b 550 649 467 756 550 715 b 382 411 550 578 493 503 b 185 643 261 504 185 568 z m 107 256 b 246 415 107 332 165 390 b 503 200 303 361 386 300 l 549 161 b 350 88 510 114 460 88 b 107 256 207 88 107 163 z "},"@":{"ha":1182,"x_min":0,"x_max":0,"o":"m 544 -208 b 875 -115 668 -208 781 -174 l 857 -85 b 550 -172 769 -139 665 -172 b 132 232 279 -172 132 3 b 728 838 132 550 379 838 b 1083 524 957 838 1083 707 b 807 100 1083 271 889 100 b 747 200 767 100 747 133 b 925 715 747 336 818 525 l 918 722 l 825 674 b 692 722 778 696 725 722 b 311 82 560 722 311 329 b 393 -14 311 19 350 -14 b 679 214 503 -14 569 100 l 688 214 b 660 28 678 146 660 75 b 700 -14 660 -1 679 -14 l 788 24 b 1124 533 940 89 1124 251 b 735 875 1124 728 986 875 b 89 226 358 875 89 564 b 544 -208 89 -19 250 -208 z m 401 172 b 646 621 401 321 533 621 b 767 575 679 621 726 603 l 697 293 b 456 107 569 153 510 107 b 401 172 421 107 401 125 z "},"":{"ha":1181,"x_min":0,"x_max":0,"o":"m 525 -42 b 856 51 649 -42 761 -7 l 838 82 b 531 -6 750 28 646 -6 b 113 399 260 -6 113 169 b 708 1004 113 717 360 1004 b 1064 690 938 1004 1064 874 b 788 267 1064 438 869 267 b 728 367 747 267 728 300 b 906 882 728 503 799 692 l 899 889 l 806 840 b 672 889 758 863 706 889 b 292 249 540 889 292 496 b 374 153 292 186 331 153 b 660 381 483 153 550 267 l 668 381 b 640 194 658 313 640 242 b 681 153 640 165 660 153 l 768 190 b 1104 700 921 256 1104 418 b 715 1042 1104 894 967 1042 b 69 393 339 1042 69 731 b 525 -42 69 147 231 -42 z m 382 339 b 626 788 382 488 514 788 b 747 742 660 788 707 769 l 678 460 b 436 274 550 319 490 274 b 382 339 401 274 382 292 z "},"ﬁ":{"ha":1011,"x_min":0,"x_max":0,"o":"m 956 0 l 956 7 l 817 67 l 817 722 l 811 726 l 767 708 l 314 708 l 314 750 b 513 1019 314 896 375 1019 b 751 869 693 1019 663 869 b 810 918 785 869 810 892 b 553 1069 810 1006 692 1069 b 208 682 401 1069 267 982 l 85 632 l 85 625 l 208 625 b 178 54 206 375 192 182 l 69 7 l 69 0 l 504 0 l 504 7 l 314 67 l 314 625 l 547 625 b 708 488 661 625 708 589 b 681 54 708 335 697 214 l 572 7 l 572 0 z "},"":{"ha":956,"x_min":0,"x_max":0,"o":"m 572 -306 b 817 -61 746 -306 817 -221 l 817 722 l 811 726 l 765 708 l 314 708 l 314 750 b 513 1019 314 896 375 1019 b 751 869 693 1019 663 869 b 810 918 785 869 810 892 b 553 1069 810 1006 692 1069 b 208 682 401 1069 267 982 l 85 632 l 85 625 l 208 625 b 178 54 206 375 192 182 l 69 7 l 69 0 l 504 0 l 504 7 l 314 67 l 314 625 l 554 625 b 704 482 651 625 704 576 l 704 -19 b 576 -296 704 -200 683 -278 z "},"ﬂ":{"ha":983,"x_min":0,"x_max":0,"o":"m 956 7 l 817 67 l 817 1056 l 811 1060 l 739 1031 b 553 1069 693 1056 639 1069 b 208 682 401 1069 267 982 l 85 631 l 85 624 l 208 624 b 178 54 206 374 192 182 l 69 7 l 69 0 l 504 0 l 504 7 l 314 67 l 314 625 l 565 625 l 565 708 l 314 708 l 314 750 b 513 1019 314 896 375 1019 b 710 843 642 1019 710 944 l 710 515 b 681 54 710 311 692 157 l 571 7 l 571 0 l 956 0 z "},"":{"ha":1467,"x_min":0,"x_max":0,"o":"m 817 121 b 1069 -14 867 33 967 -14 b 1397 365 1251 -14 1397 142 b 1083 722 1397 578 1275 722 b 808 521 957 722 858 643 l 799 525 b 817 776 804 590 817 690 l 817 1056 l 811 1060 l 765 1015 b 553 1069 714 1050 656 1069 b 208 682 401 1069 267 982 l 85 631 l 85 624 l 208 624 b 178 54 206 374 192 182 l 69 7 l 69 0 l 504 0 l 504 7 l 314 67 l 314 625 l 565 625 l 565 708 l 314 708 l 314 750 b 513 1019 314 896 375 1019 b 710 843 642 1019 710 944 l 710 632 b 683 0 710 338 699 128 l 693 -7 z m 1038 64 b 817 175 944 64 858 106 l 817 486 b 1042 607 876 558 944 607 b 1286 346 1183 607 1286 500 b 1038 64 1286 179 1185 64 z "},"":{"ha":1501,"x_min":0,"x_max":0,"o":"m 817 1056 l 811 1060 l 763 1017 b 553 1069 713 1050 654 1069 b 208 682 401 1069 267 982 l 85 631 l 85 624 l 208 624 b 178 54 206 374 192 182 l 69 7 l 69 0 l 504 0 l 504 7 l 314 67 l 314 625 l 565 625 l 565 708 l 314 708 l 314 750 b 513 1019 314 896 375 1019 b 710 843 642 1019 710 944 l 710 488 b 682 54 710 335 699 214 l 574 7 l 574 0 l 957 0 l 957 7 l 818 67 l 818 493 b 1032 610 888 564 946 610 b 1215 393 1132 610 1215 556 b 1192 56 1215 311 1208 186 l 1076 7 l 1076 0 l 1460 0 l 1460 7 l 1321 67 l 1321 432 b 1090 722 1321 639 1224 722 b 814 518 960 722 883 628 l 804 522 b 817 776 810 588 817 689 z "},"":{"ha":1376,"x_min":0,"x_max":0,"o":"m 817 399 l 1158 0 l 1404 0 l 1404 7 b 1168 165 1353 7 1269 57 l 907 442 l 1182 626 l 1351 701 l 1351 708 l 1010 708 l 1010 701 l 1113 640 l 817 406 l 817 1056 l 811 1060 l 763 1017 b 553 1069 713 1050 654 1069 b 208 682 401 1069 267 982 l 85 631 l 85 624 l 208 624 b 178 54 206 374 192 182 l 69 7 l 69 0 l 504 0 l 504 7 l 314 67 l 314 625 l 565 625 l 565 708 l 314 708 l 314 750 b 513 1019 314 896 375 1019 b 710 843 642 1019 710 944 l 710 515 b 681 54 710 311 692 157 l 571 7 l 571 0 l 956 0 l 956 7 l 817 67 z "},"":{"ha":1260,"x_min":0,"x_max":0,"o":"m 85 625 l 208 625 b 178 54 206 375 192 182 l 69 7 l 69 0 l 504 0 l 504 7 l 314 67 l 314 625 l 710 625 l 710 283 b 953 -14 710 89 792 -14 b 1199 196 1104 -14 1165 94 l 1190 199 b 992 83 1146 135 1100 83 b 817 318 883 83 817 138 l 817 625 l 1143 625 l 1143 708 l 817 708 l 817 914 l 810 914 b 690 708 779 824 743 758 l 314 708 l 314 807 b 454 979 314 928 365 979 b 578 938 506 979 542 963 l 619 776 l 629 776 l 660 1024 b 500 1069 626 1044 565 1069 b 208 706 336 1069 208 843 l 208 682 l 85 632 z "},"ﬀ":{"ha":1093,"x_min":0,"x_max":0,"o":"m 681 54 l 572 7 l 572 0 l 1007 0 l 1007 7 l 817 67 l 817 625 l 1068 625 l 1068 708 l 817 708 l 817 807 b 957 979 817 928 868 979 b 1081 938 1008 979 1044 963 l 1122 776 l 1132 776 l 1163 1024 b 1003 1069 1129 1044 1068 1069 b 828 979 936 1069 876 1033 b 553 1069 763 1029 676 1069 b 208 682 401 1069 267 982 l 85 631 l 85 624 l 208 624 b 178 54 206 374 192 182 l 69 7 l 69 0 l 504 0 l 504 7 l 314 67 l 314 625 l 711 625 b 681 54 708 375 694 182 z m 314 708 l 314 750 b 513 1019 314 896 375 1019 b 763 886 626 1019 713 965 b 711 708 731 825 713 761 z "},"ﬃ":{"ha":1513,"x_min":0,"x_max":0,"o":"m 1457 0 l 1457 7 l 1318 67 l 1318 722 l 1313 726 l 1268 708 l 815 708 l 815 750 b 1014 1019 815 896 876 1019 b 1253 869 1194 1019 1164 869 b 1311 918 1286 869 1311 892 b 1054 1069 1311 1006 1193 1069 b 835 975 974 1069 897 1044 b 553 1069 768 1026 679 1069 b 208 682 401 1069 267 982 l 85 631 l 85 624 l 208 624 b 178 54 206 374 192 182 l 69 7 l 69 0 l 504 0 l 504 7 l 314 67 l 314 625 l 710 625 b 679 54 707 375 693 182 l 571 7 l 571 0 l 1006 0 l 1006 7 l 815 67 l 815 625 l 1049 625 b 1210 488 1163 625 1210 589 b 1182 54 1210 335 1199 214 l 1074 7 l 1074 0 z m 314 708 l 314 750 b 513 1019 314 896 375 1019 b 769 874 632 1019 721 961 b 715 708 747 829 729 774 z "},"":{"ha":1457,"x_min":0,"x_max":0,"o":"m 1074 -306 b 1318 -61 1247 -306 1318 -221 l 1318 722 l 1313 726 l 1267 708 l 815 708 l 815 750 b 1014 1019 815 896 876 1019 b 1253 869 1194 1019 1164 869 b 1311 918 1286 869 1311 892 b 1054 1069 1311 1006 1193 1069 b 835 975 974 1069 897 1044 b 553 1069 768 1026 679 1069 b 208 682 401 1069 267 982 l 85 631 l 85 624 l 208 624 b 178 54 206 374 192 182 l 69 7 l 69 0 l 504 0 l 504 7 l 314 67 l 314 625 l 710 625 b 679 54 707 375 693 182 l 571 7 l 571 0 l 1006 0 l 1006 7 l 815 67 l 815 625 l 1056 625 b 1206 482 1153 625 1206 576 l 1206 -19 b 1078 -296 1206 -200 1185 -278 z m 314 708 l 314 750 b 513 1019 314 896 375 1019 b 769 874 632 1019 721 961 b 715 708 747 829 729 774 z "},"ﬄ":{"ha":1485,"x_min":0,"x_max":0,"o":"m 1457 7 l 1318 67 l 1318 1056 l 1313 1060 l 1240 1031 b 1054 1069 1194 1056 1140 1069 b 826 965 969 1069 890 1042 b 553 1069 761 1018 681 1069 b 208 682 401 1069 267 982 l 85 631 l 85 624 l 208 624 b 178 54 206 374 192 182 l 69 7 l 69 0 l 504 0 l 504 7 l 314 67 l 314 625 l 507 625 l 507 708 l 314 708 l 314 750 b 513 1019 314 896 375 1019 b 763 860 635 1019 717 950 b 710 682 742 811 724 753 l 586 631 l 586 624 l 710 624 b 679 54 707 374 693 182 l 571 7 l 571 0 l 1006 0 l 1006 7 l 815 67 l 815 625 l 1067 625 l 1067 708 l 815 708 l 815 750 b 1014 1019 815 896 876 1019 b 1211 843 1143 1019 1211 944 l 1211 515 b 1182 54 1211 311 1193 157 l 1072 7 l 1072 0 l 1457 0 z "},"":{"ha":1968,"x_min":0,"x_max":0,"o":"m 1318 121 b 1571 -14 1368 33 1468 -14 b 1899 365 1753 -14 1899 142 b 1585 722 1899 578 1776 722 b 1310 521 1458 722 1360 643 l 1300 525 b 1318 776 1306 590 1318 690 l 1318 1056 l 1313 1060 l 1267 1015 b 1054 1069 1215 1050 1157 1069 b 826 965 969 1069 890 1042 b 553 1069 761 1018 681 1069 b 208 682 401 1069 267 982 l 85 631 l 85 624 l 208 624 b 178 54 206 374 192 182 l 69 7 l 69 0 l 504 0 l 504 7 l 314 67 l 314 625 l 507 625 l 507 708 l 314 708 l 314 750 b 513 1019 314 896 375 1019 b 763 860 635 1019 717 950 b 710 682 742 811 724 753 l 586 631 l 586 624 l 710 624 b 679 54 707 374 693 182 l 571 7 l 571 0 l 1006 0 l 1006 7 l 815 67 l 815 625 l 1067 625 l 1067 708 l 815 708 l 815 750 b 1014 1019 815 896 876 1019 b 1211 843 1143 1019 1211 944 l 1211 632 b 1185 0 1211 338 1200 128 l 1194 -7 z m 1539 64 b 1318 175 1446 64 1360 106 l 1318 486 b 1543 607 1378 558 1446 607 b 1788 346 1685 607 1788 500 b 1539 64 1788 179 1686 64 z "},"":{"ha":2003,"x_min":0,"x_max":0,"o":"m 1318 1056 l 1313 1060 l 1264 1017 b 1054 1069 1214 1050 1156 1069 b 826 965 969 1069 890 1042 b 553 1069 761 1018 681 1069 b 208 682 401 1069 267 982 l 85 631 l 85 624 l 208 624 b 178 54 206 374 192 182 l 69 7 l 69 0 l 504 0 l 504 7 l 314 67 l 314 625 l 507 625 l 507 708 l 314 708 l 314 750 b 513 1019 314 896 375 1019 b 763 860 635 1019 717 950 b 710 682 742 811 724 753 l 586 631 l 586 624 l 710 624 b 679 54 707 374 693 182 l 571 7 l 571 0 l 1006 0 l 1006 7 l 815 67 l 815 625 l 1067 625 l 1067 708 l 815 708 l 815 750 b 1014 1019 815 896 876 1019 b 1211 843 1143 1019 1211 944 l 1211 488 b 1183 54 1211 335 1200 214 l 1075 7 l 1075 0 l 1458 0 l 1458 7 l 1319 67 l 1319 493 b 1533 610 1389 564 1447 610 b 1717 393 1633 610 1717 556 b 1693 56 1717 311 1710 186 l 1578 7 l 1578 0 l 1961 0 l 1961 7 l 1822 67 l 1822 432 b 1592 722 1822 639 1725 722 b 1315 518 1461 722 1385 628 l 1306 522 b 1318 776 1311 588 1318 689 z "},"":{"ha":1878,"x_min":0,"x_max":0,"o":"m 1318 399 l 1660 0 l 1906 0 l 1906 7 b 1669 165 1854 7 1771 57 l 1408 442 l 1683 626 l 1853 701 l 1853 708 l 1511 708 l 1511 701 l 1614 640 l 1318 406 l 1318 1056 l 1313 1060 l 1264 1017 b 1054 1069 1214 1050 1156 1069 b 826 965 969 1069 890 1042 b 553 1069 761 1018 681 1069 b 208 682 401 1069 267 982 l 85 631 l 85 624 l 208 624 b 178 54 206 374 192 182 l 69 7 l 69 0 l 504 0 l 504 7 l 314 67 l 314 625 l 507 625 l 507 708 l 314 708 l 314 750 b 513 1019 314 896 375 1019 b 763 860 635 1019 717 950 b 710 682 742 811 724 753 l 586 631 l 586 624 l 710 624 b 679 54 707 374 693 182 l 571 7 l 571 0 l 1006 0 l 1006 7 l 815 67 l 815 625 l 1067 625 l 1067 708 l 815 708 l 815 750 b 1014 1019 815 896 876 1019 b 1211 843 1143 1019 1211 944 l 1211 515 b 1182 54 1211 311 1193 157 l 1072 7 l 1072 0 l 1457 0 l 1457 7 l 1318 67 z "},"":{"ha":1714,"x_min":0,"x_max":0,"o":"m 586 625 l 710 625 b 679 54 707 375 693 182 l 571 7 l 571 0 l 1006 0 l 1006 7 l 815 67 l 815 625 l 1211 625 l 1211 283 b 1454 -14 1211 89 1293 -14 b 1700 196 1606 -14 1667 94 l 1692 199 b 1493 83 1647 135 1601 83 b 1318 318 1385 83 1318 138 l 1318 625 l 1644 625 l 1644 708 l 1318 708 l 1318 914 l 1311 914 b 1192 708 1281 824 1244 758 l 815 708 l 815 807 b 956 979 815 928 867 979 b 1079 938 1007 979 1043 963 l 1121 776 l 1131 776 l 1161 1024 b 1001 1069 1128 1044 1067 1069 b 819 971 932 1069 869 1029 b 553 1069 756 1022 676 1069 b 208 682 401 1069 267 982 l 85 631 l 85 624 l 208 624 b 178 54 206 374 192 182 l 69 7 l 69 0 l 504 0 l 504 7 l 314 67 l 314 625 l 507 625 l 507 708 l 314 708 l 314 750 b 513 1019 314 896 375 1019 b 756 874 628 1019 708 957 b 710 706 726 817 710 756 l 710 682 l 586 632 z "},"":{"ha":1753,"x_min":0,"x_max":0,"o":"m 147 0 l 722 0 l 722 7 l 510 79 b 497 500 503 181 497 321 l 497 958 l 840 958 b 961 800 910 958 961 908 l 961 488 b 933 54 961 335 950 214 l 825 7 l 825 0 l 1208 0 l 1208 7 l 1069 67 l 1069 493 b 1283 610 1139 564 1197 610 b 1467 393 1383 610 1467 556 b 1443 56 1467 311 1460 186 l 1328 7 l 1328 0 l 1711 0 l 1711 7 l 1572 67 l 1572 432 b 1342 722 1572 639 1475 722 b 1065 518 1211 722 1135 628 l 1056 522 b 1068 776 1061 588 1068 689 l 1068 1056 l 1063 1060 l 915 1000 l 0 1000 l 0 685 l 13 685 b 272 958 31 860 93 958 l 376 958 l 376 500 b 363 81 376 322 371 182 l 147 7 z "},"":{"ha":2583,"x_min":0,"x_max":0,"o":"m 608 504 l 825 -28 l 832 -28 l 1060 503 l 1279 -28 l 1286 -28 l 1515 501 l 1733 -28 l 1740 -28 l 1971 504 l 2188 -28 l 2194 -28 l 2481 638 l 2583 701 l 2583 708 l 2294 708 l 2294 701 l 2401 639 l 2238 154 l 2056 632 l 2165 701 l 2165 708 l 1806 708 l 1806 701 l 1915 638 l 1932 594 l 1783 154 l 1601 632 l 1711 701 l 1711 708 l 1351 708 l 1351 701 l 1458 639 l 1478 593 l 1329 154 l 1139 643 l 1249 701 l 1249 708 l 908 708 l 908 701 l 1000 650 l 1024 593 l 875 154 l 693 632 l 803 701 l 803 708 l 443 708 l 443 701 l 553 638 l 569 594 l 421 154 l 231 643 l 340 701 l 340 708 l 0 708 l 0 701 l 92 650 l 371 -28 l 378 -28 z "},"":{"ha":1446,"x_min":0,"x_max":0,"o":"m 617 0 l 617 7 l 349 79 b 336 464 342 175 338 301 l 508 464 l 603 238 l 614 238 l 614 732 l 603 732 l 508 506 l 336 506 l 336 958 l 572 958 b 832 713 751 958 815 869 l 844 713 l 844 1000 l 28 1000 l 28 993 l 201 919 b 215 500 210 817 215 678 b 201 81 215 322 210 182 l 28 7 l 28 0 z m 926 0 l 1418 0 l 1418 7 l 1247 79 b 1235 500 1240 181 1235 321 b 1247 921 1235 679 1240 818 l 1418 993 l 1418 1000 l 926 1000 l 926 993 l 1100 919 b 1114 500 1108 817 1114 678 b 1100 81 1114 322 1108 182 l 926 7 z "},"":{"ha":1863,"x_min":0,"x_max":0,"o":"m 617 0 l 617 7 l 349 79 b 336 464 342 175 338 301 l 508 464 l 603 238 l 614 238 l 614 732 l 603 732 l 508 506 l 336 506 l 336 958 l 572 958 b 832 713 751 958 815 869 l 844 713 l 844 1000 l 28 1000 l 28 993 l 201 919 b 215 500 210 817 215 678 b 201 81 215 322 210 182 l 28 7 l 28 0 z m 1235 500 b 1247 921 1235 679 1240 818 l 1515 993 l 1515 1000 l 926 1000 l 926 993 l 1100 919 b 1114 500 1108 817 1114 678 b 1100 81 1114 322 1108 182 l 926 7 l 926 0 l 1776 0 l 1808 325 l 1796 325 b 1497 42 1754 118 1657 42 l 1235 42 z "},"":{"ha":1797,"x_min":0,"x_max":0,"o":"m 617 0 l 617 7 l 349 79 b 336 464 342 175 338 301 l 508 464 l 603 238 l 614 238 l 614 732 l 603 732 l 508 506 l 336 506 l 336 958 l 572 958 b 832 713 751 958 815 869 l 844 713 l 844 1000 l 28 1000 l 28 993 l 201 919 b 215 500 210 817 215 678 b 201 81 215 322 210 182 l 28 7 l 28 0 z m 1515 0 l 1515 7 l 1247 79 b 1235 464 1240 175 1236 301 l 1407 464 l 1501 238 l 1513 238 l 1513 732 l 1501 732 l 1407 506 l 1235 506 l 1235 958 l 1471 958 b 1731 713 1650 958 1714 869 l 1743 713 l 1743 1000 l 926 1000 l 926 993 l 1100 919 b 1114 500 1108 817 1114 678 b 1100 81 1114 322 1108 182 l 926 7 l 926 0 z "},"":{"ha":2344,"x_min":0,"x_max":0,"o":"m 617 0 l 617 7 l 349 79 b 336 464 342 175 338 301 l 508 464 l 603 238 l 614 238 l 614 732 l 603 732 l 508 506 l 336 506 l 336 958 l 572 958 b 832 713 751 958 815 869 l 844 713 l 844 1000 l 28 1000 l 28 993 l 201 919 b 215 500 210 817 215 678 b 201 81 215 322 210 182 l 28 7 l 28 0 z m 1515 0 l 1515 7 l 1247 79 b 1235 464 1240 175 1236 301 l 1407 464 l 1501 238 l 1513 238 l 1513 732 l 1501 732 l 1407 506 l 1235 506 l 1235 958 l 1471 958 b 1731 713 1650 958 1714 869 l 1743 713 l 1743 1000 l 926 1000 l 926 993 l 1100 919 b 1114 500 1108 817 1114 678 b 1100 81 1114 322 1108 182 l 926 7 l 926 0 z m 1825 0 l 2317 0 l 2317 7 l 2146 79 b 2133 500 2139 181 2133 321 b 2146 921 2133 679 2139 818 l 2317 993 l 2317 1000 l 1825 1000 l 1825 993 l 1999 919 b 2013 500 2007 817 2013 678 b 1999 81 2013 322 2007 182 l 1825 7 z "},"":{"ha":2761,"x_min":0,"x_max":0,"o":"m 617 0 l 617 7 l 349 79 b 336 464 342 175 338 301 l 508 464 l 603 238 l 614 238 l 614 732 l 603 732 l 508 506 l 336 506 l 336 958 l 572 958 b 832 713 751 958 815 869 l 844 713 l 844 1000 l 28 1000 l 28 993 l 201 919 b 215 500 210 817 215 678 b 201 81 215 322 210 182 l 28 7 l 28 0 z m 1515 0 l 1515 7 l 1247 79 b 1235 464 1240 175 1236 301 l 1407 464 l 1501 238 l 1513 238 l 1513 732 l 1501 732 l 1407 506 l 1235 506 l 1235 958 l 1471 958 b 1731 713 1650 958 1714 869 l 1743 713 l 1743 1000 l 926 1000 l 926 993 l 1100 919 b 1114 500 1108 817 1114 678 b 1100 81 1114 322 1108 182 l 926 7 l 926 0 z m 2133 500 b 2146 921 2133 679 2139 818 l 2414 993 l 2414 1000 l 1825 1000 l 1825 993 l 1999 919 b 2013 500 2007 817 2013 678 b 1999 81 2013 322 2007 182 l 1825 7 l 1825 0 l 2675 0 l 2707 325 l 2694 325 b 2396 42 2653 118 2556 42 l 2133 42 z "},"":{"ha":3458,"x_min":0,"x_max":0,"o":"m 3029 1000 l 3029 994 l 3246 917 l 2963 136 l 2833 511 b 2713 872 2788 643 2746 764 l 2731 914 l 2818 968 l 2914 994 l 2914 1000 l 2417 1000 l 2417 994 l 2543 929 b 2603 790 2563 888 2582 840 l 2365 136 l 2236 511 b 2097 933 2182 668 2132 811 l 2317 994 l 2317 1000 l 1819 1000 l 1819 994 l 1946 929 b 1963 893 1951 918 1957 906 l 1763 147 l 1624 511 b 1504 838 1579 628 1539 740 l 1536 914 l 1643 981 l 1692 994 l 1692 1000 l 1194 1000 l 1194 994 l 1319 926 b 1397 760 1344 878 1371 821 l 1171 136 l 1042 511 b 903 933 988 668 938 811 l 1122 994 l 1122 1000 l 625 1000 l 625 994 l 751 929 b 768 893 757 918 763 906 l 568 147 l 429 511 b 276 929 371 665 318 813 l 497 994 l 497 1000 l 0 1000 l 0 994 l 125 926 b 321 478 188 804 258 631 l 528 -28 l 535 -28 l 825 757 b 933 478 861 667 899 568 l 1125 -28 l 1132 -28 l 1433 675 b 1515 478 1461 610 1489 542 l 1722 -28 l 1729 -28 l 2019 757 b 2128 478 2056 667 2093 568 l 2319 -28 l 2326 -28 l 2639 701 b 2725 478 2668 626 2697 550 l 2917 -28 l 2924 -28 l 3328 914 l 3458 994 l 3458 1000 z "},"":{"ha":1376,"x_min":0,"x_max":0,"o":"m 617 0 l 617 7 l 349 79 b 336 394 343 158 338 263 l 494 394 l 589 168 l 600 168 l 600 663 l 589 663 l 494 436 l 336 436 l 336 819 l 503 819 b 763 574 682 819 746 731 l 775 574 l 775 861 l 28 861 l 28 854 l 201 781 b 215 431 208 694 215 579 b 201 81 215 282 208 165 l 28 7 l 28 0 z m 857 0 l 1349 0 l 1349 7 l 1178 79 b 1165 431 1172 164 1165 281 b 1178 782 1165 579 1172 696 l 1349 854 l 1349 861 l 857 861 l 857 854 l 1031 781 b 1044 431 1038 694 1044 579 b 1031 81 1044 282 1038 165 l 857 7 z "},"":{"ha":1724,"x_min":0,"x_max":0,"o":"m 617 0 l 617 7 l 349 79 b 336 394 343 158 338 263 l 494 394 l 589 168 l 600 168 l 600 663 l 589 663 l 494 436 l 336 436 l 336 819 l 503 819 b 763 574 682 819 746 731 l 775 574 l 775 861 l 28 861 l 28 854 l 201 781 b 215 431 208 694 215 579 b 201 81 215 282 208 165 l 28 7 l 28 0 z m 1165 500 b 1178 782 1165 619 1174 713 l 1446 854 l 1446 861 l 857 861 l 857 854 l 1031 781 b 1044 500 1036 711 1044 619 b 1031 81 1044 322 1039 182 l 857 7 l 857 0 l 1638 0 l 1669 325 l 1657 325 b 1358 42 1615 118 1518 42 l 1165 42 z "},"":{"ha":1658,"x_min":0,"x_max":0,"o":"m 617 0 l 617 7 l 349 79 b 336 394 343 158 338 263 l 494 394 l 589 168 l 600 168 l 600 663 l 589 663 l 494 436 l 336 436 l 336 819 l 503 819 b 763 574 682 819 746 731 l 775 574 l 775 861 l 28 861 l 28 854 l 201 781 b 215 431 208 694 215 579 b 201 81 215 282 208 165 l 28 7 l 28 0 z m 1446 0 l 1446 7 l 1178 79 b 1165 394 1172 158 1167 263 l 1324 394 l 1418 168 l 1429 168 l 1429 663 l 1418 663 l 1324 436 l 1165 436 l 1165 819 l 1332 819 b 1592 574 1511 819 1575 731 l 1604 574 l 1604 861 l 857 861 l 857 854 l 1031 781 b 1044 431 1038 694 1044 579 b 1031 81 1044 282 1038 165 l 857 7 l 857 0 z "},"":{"ha":2206,"x_min":0,"x_max":0,"o":"m 617 0 l 617 7 l 349 79 b 336 394 343 158 338 263 l 494 394 l 589 168 l 600 168 l 600 663 l 589 663 l 494 436 l 336 436 l 336 819 l 503 819 b 763 574 682 819 746 731 l 775 574 l 775 861 l 28 861 l 28 854 l 201 781 b 215 431 208 694 215 579 b 201 81 215 282 208 165 l 28 7 l 28 0 z m 1446 0 l 1446 7 l 1178 79 b 1165 394 1172 158 1167 263 l 1324 394 l 1418 168 l 1429 168 l 1429 663 l 1418 663 l 1324 436 l 1165 436 l 1165 819 l 1332 819 b 1592 574 1511 819 1575 731 l 1604 574 l 1604 861 l 857 861 l 857 854 l 1031 781 b 1044 431 1038 694 1044 579 b 1031 81 1044 282 1038 165 l 857 7 l 857 0 z m 1686 0 l 2178 0 l 2178 7 l 2007 79 b 1994 431 2001 164 1994 281 b 2007 782 1994 579 2001 696 l 2178 854 l 2178 861 l 1686 861 l 1686 854 l 1860 781 b 1874 431 1867 694 1874 579 b 1860 81 1874 282 1867 165 l 1686 7 z "},"":{"ha":2553,"x_min":0,"x_max":0,"o":"m 617 0 l 617 7 l 349 79 b 336 394 343 158 338 263 l 494 394 l 589 168 l 600 168 l 600 663 l 589 663 l 494 436 l 336 436 l 336 819 l 503 819 b 763 574 682 819 746 731 l 775 574 l 775 861 l 28 861 l 28 854 l 201 781 b 215 431 208 694 215 579 b 201 81 215 282 208 165 l 28 7 l 28 0 z m 1446 0 l 1446 7 l 1178 79 b 1165 394 1172 158 1167 263 l 1324 394 l 1418 168 l 1429 168 l 1429 663 l 1418 663 l 1324 436 l 1165 436 l 1165 819 l 1332 819 b 1592 574 1511 819 1575 731 l 1604 574 l 1604 861 l 857 861 l 857 854 l 1031 781 b 1044 431 1038 694 1044 579 b 1031 81 1044 282 1038 165 l 857 7 l 857 0 z m 1994 500 b 2007 782 1994 619 2003 713 l 2275 854 l 2275 861 l 1686 861 l 1686 854 l 1860 781 b 1874 500 1865 711 1874 619 b 1860 81 1874 322 1868 182 l 1686 7 l 1686 0 l 2467 0 l 2499 325 l 2486 325 b 2188 42 2444 118 2347 42 l 1994 42 z "},"":{"ha":3147,"x_min":0,"x_max":0,"o":"m 2774 861 l 2774 856 l 2935 778 l 2707 136 l 2578 511 b 2489 788 2542 618 2514 706 l 2510 800 l 2707 856 l 2707 861 l 2210 861 l 2210 856 l 2336 790 b 2367 724 2346 769 2357 747 l 2158 136 l 2029 511 b 1939 794 1992 621 1964 710 l 2158 856 l 2158 861 l 1661 861 l 1661 856 l 1788 790 b 1803 758 1793 779 1797 769 l 1606 143 l 1467 511 b 1378 779 1428 613 1404 701 l 1415 803 l 1594 856 l 1594 861 l 1097 861 l 1097 856 l 1222 788 b 1263 704 1236 760 1250 732 l 1061 136 l 932 511 b 842 794 894 621 867 710 l 1061 856 l 1061 861 l 564 861 l 564 856 l 690 790 b 706 758 696 779 700 769 l 508 143 l 369 511 b 276 790 329 618 304 710 l 497 856 l 497 861 l 0 861 l 0 856 l 125 788 b 261 478 175 689 218 585 l 467 -28 l 474 -28 l 763 631 b 824 478 783 581 804 529 l 1015 -28 l 1022 -28 l 1301 615 b 1358 478 1321 571 1340 524 l 1564 -28 l 1571 -28 l 1860 631 b 1921 478 1881 581 1901 529 l 2113 -28 l 2119 -28 l 2407 633 b 2469 478 2428 583 2450 531 l 2661 -28 l 2668 -28 l 3017 775 l 3147 856 l 3147 861 z "},"Ⅽ":{"ha":851,"x_min":0,"x_max":0,"o":"m 467 111 b 125 438 272 111 125 239 b 446 758 125 636 260 758 b 713 472 593 758 713 668 l 724 472 l 724 783 b 467 875 675 832 588 875 b 69 438 236 875 69 703 b 460 -14 69 165 238 -14 b 817 344 664 -14 785 133 l 807 346 b 467 111 769 196 663 111 z "},"Ⅾ":{"ha":1042,"x_min":0,"x_max":0,"o":"m 28 0 l 533 0 b 972 431 789 0 972 161 b 533 861 972 697 789 861 l 28 861 l 28 854 l 201 781 b 215 431 208 694 215 579 b 201 81 215 282 208 165 l 28 7 z m 497 819 b 843 431 725 819 843 651 b 497 42 843 208 725 42 l 336 42 l 336 819 z "},"Ⅰ":{"ha":547,"x_min":0,"x_max":0,"o":"m 28 0 l 519 0 l 519 7 l 349 79 b 336 431 343 164 336 281 b 349 782 336 579 343 696 l 519 854 l 519 861 l 28 861 l 28 854 l 201 781 b 215 431 208 694 215 579 b 201 81 215 282 208 165 l 28 7 z "},"Ⅼ":{"ha":894,"x_min":0,"x_max":0,"o":"m 336 500 b 349 782 336 619 344 713 l 617 854 l 617 861 l 28 861 l 28 854 l 201 781 b 215 500 207 711 215 619 b 201 81 215 322 210 182 l 28 7 l 28 0 l 808 0 l 840 325 l 828 325 b 529 42 786 118 689 42 l 336 42 z "},"Ⅿ":{"ha":1238,"x_min":0,"x_max":0,"o":"m 718 0 l 1210 0 l 1210 7 l 1039 79 b 1026 500 1032 181 1024 321 l 1029 756 b 1224 854 1085 832 1140 854 l 1224 861 l 947 861 l 619 128 l 283 861 l 0 861 l 0 854 b 211 715 90 854 153 817 l 211 500 b 199 79 211 321 206 182 l 28 7 l 28 0 l 440 0 l 440 7 l 267 81 b 253 500 258 183 253 322 l 253 633 l 574 -28 l 581 -28 l 906 622 l 906 500 b 892 81 906 322 900 182 l 718 7 z "},"Ⅴ":{"ha":1014,"x_min":0,"x_max":0,"o":"m 585 861 l 585 856 l 799 775 l 558 132 l 389 511 b 279 788 339 622 306 707 l 497 856 l 497 861 l 0 861 l 0 856 l 128 783 b 281 478 172 694 231 588 l 514 -28 l 521 -28 l 881 772 l 1014 856 l 1014 861 z "},"Ⅹ":{"ha":1069,"x_min":0,"x_max":0,"o":"m 496 296 b 638 81 549 222 592 154 l 471 7 l 471 0 l 939 0 l 939 7 l 803 79 b 582 364 728 163 651 268 l 499 478 l 706 781 l 860 854 l 860 861 l 460 861 l 460 854 l 622 783 l 476 510 l 424 581 b 285 783 374 650 329 719 l 431 854 l 431 861 l -7 861 l -7 854 l 133 778 b 314 546 206 696 249 635 l 397 431 l 153 83 l 0 7 l 0 0 l 414 0 l 414 7 l 236 81 l 419 400 z "},"":{"ha":878,"x_min":0,"x_max":0,"o":"m 439 -14 b 794 500 658 -14 794 190 b 439 1014 794 813 658 1014 b 83 500 218 1014 83 813 b 439 -14 83 190 218 -14 z m 139 500 b 439 889 139 740 250 889 b 626 819 514 889 578 865 l 222 211 b 139 500 168 278 139 378 z m 439 111 b 251 181 363 111 300 136 l 656 790 b 739 500 710 722 739 624 b 439 111 739 263 626 111 z "},"#":{"ha":833,"x_min":0,"x_max":0,"o":"m 111 0 l 153 0 l 239 326 l 504 326 l 418 0 l 460 0 l 546 326 l 724 326 l 724 368 l 557 368 l 625 632 l 806 632 l 806 674 l 636 674 l 722 1000 l 681 1000 l 594 674 l 329 674 l 415 1000 l 374 1000 l 288 674 l 110 674 l 110 632 l 276 632 l 208 368 l 28 368 l 28 326 l 197 326 z m 250 368 l 318 632 l 583 632 l 515 368 z "},"€":{"ha":833,"x_min":0,"x_max":0,"o":"m 0 354 l 136 354 b 481 -14 172 128 297 -14 b 811 321 658 -14 785 97 l 800 321 b 481 111 763 167 653 111 b 197 354 333 111 235 203 l 556 354 l 556 396 l 189 396 b 181 500 183 428 181 463 b 189 604 181 538 183 572 l 556 604 l 556 646 l 197 646 b 481 889 233 799 333 889 b 738 610 625 889 738 803 l 749 610 l 749 921 b 481 1014 699 971 606 1014 b 136 646 296 1014 172 874 l 0 646 l 0 604 l 131 604 b 125 500 126 571 125 536 b 131 396 125 464 126 429 l 0 396 z "},"$":{"ha":833,"x_min":0,"x_max":0,"o":"m 297 -139 l 339 -139 l 339 -10 b 401 -14 358 -12 379 -14 b 478 -7 428 -14 454 -11 l 478 -139 l 519 -139 l 519 4 b 738 290 653 46 738 158 b 519 556 738 458 636 521 l 519 875 b 665 610 607 838 665 753 l 676 610 l 676 921 b 519 1001 643 954 589 985 l 519 1139 l 478 1139 l 478 1010 b 408 1014 456 1013 433 1014 b 339 1007 385 1014 361 1011 l 339 1139 l 297 1139 l 297 996 b 118 751 188 957 118 863 b 297 485 118 596 197 525 l 297 121 b 131 404 199 156 131 247 l 119 404 l 119 93 b 297 -3 160 53 218 15 z m 408 896 b 478 889 432 896 456 893 l 478 568 b 339 601 431 581 382 589 l 339 890 b 408 896 361 894 383 896 z m 174 758 b 297 881 174 813 221 858 l 297 614 b 174 758 225 639 174 678 z m 401 104 b 339 110 379 104 358 106 l 339 469 b 478 435 385 456 433 446 l 478 110 b 401 104 454 107 428 104 z m 682 281 b 519 119 682 211 619 147 l 519 425 b 682 281 611 401 682 368 z "},"¢":{"ha":833,"x_min":0,"x_max":0,"o":"m 385 0 l 426 0 l 426 132 b 729 382 607 132 697 272 l 721 386 b 426 250 664 303 576 250 l 426 750 b 563 694 489 743 529 722 l 606 497 l 615 497 l 651 799 b 426 868 617 831 536 868 l 426 1000 l 385 1000 l 385 865 b 104 482 206 846 104 689 b 385 133 104 292 203 150 z m 171 508 b 385 751 171 656 260 750 l 385 253 b 171 508 264 272 171 374 z "},"₽":{"ha":833,"x_min":0,"x_max":0,"o":"m 28 300 l 213 300 b 201 81 210 214 207 140 l 28 7 l 28 0 l 617 0 l 617 7 l 349 79 b 339 300 344 140 342 214 l 583 300 l 583 342 l 338 342 b 336 514 336 394 336 451 l 336 550 l 476 550 b 806 783 672 550 806 631 b 476 1000 806 926 672 1000 l 28 1000 l 28 993 l 201 919 b 215 592 208 835 214 726 l 28 592 l 28 550 l 215 550 b 215 500 215 533 215 517 b 214 342 215 443 215 390 l 28 342 z m 476 592 l 336 592 l 336 958 l 476 958 b 675 783 600 958 675 883 b 476 592 675 672 600 592 z "},"£":{"ha":833,"x_min":0,"x_max":0,"o":"m 139 482 l 369 482 b 401 397 389 456 401 428 b 90 6 401 289 169 93 l 90 0 l 768 0 l 768 358 l 757 358 b 524 97 746 167 685 97 l 267 97 b 418 397 335 217 418 301 b 404 482 418 431 413 458 l 694 482 l 694 524 l 383 524 b 274 733 340 593 274 632 b 468 914 274 854 353 914 b 714 671 589 914 714 822 l 725 671 b 429 1014 725 876 617 1014 b 156 785 242 1014 156 906 b 333 524 156 668 261 597 l 139 524 z "},"¥":{"ha":833,"x_min":0,"x_max":0,"o":"m 128 0 l 703 0 l 703 7 l 490 79 b 478 354 485 158 479 225 l 694 354 l 694 396 l 478 396 l 478 604 l 694 604 l 694 646 l 494 646 l 713 911 l 849 994 l 849 1000 l 472 1000 l 472 994 l 625 904 l 453 647 l 406 713 b 260 925 335 806 301 853 l 397 994 l 397 1000 l -15 1000 l -15 994 l 88 935 b 303 676 158 850 231 771 l 326 646 l 139 646 l 139 604 l 357 604 l 357 396 l 139 396 l 139 354 l 357 354 b 343 81 356 226 350 160 l 128 7 z "},"":{"ha":833,"x_min":0,"x_max":0,"o":"m 417 -14 b 772 500 636 -14 772 190 b 417 1014 772 813 636 1014 b 61 500 196 1014 61 813 b 417 -14 61 190 196 -14 z m 117 500 b 417 889 117 740 228 889 b 604 819 492 889 556 865 l 200 211 b 117 500 146 278 117 378 z m 417 111 b 229 181 340 111 278 136 l 633 790 b 717 500 688 722 717 624 b 417 111 717 263 604 111 z "},"":{"ha":833,"x_min":0,"x_max":0,"o":"m 417 -14 b 772 500 636 -14 772 190 b 417 1014 772 813 636 1014 b 61 500 196 1014 61 813 b 417 -14 61 190 196 -14 z m 417 111 b 117 500 228 111 117 263 b 417 889 117 740 228 889 b 717 500 604 889 717 740 b 417 111 717 263 604 111 z "},"":{"ha":833,"x_min":0,"x_max":0,"o":"m 358 822 l 358 500 b 344 81 358 322 353 182 l 143 7 l 143 0 l 690 0 l 690 7 l 492 79 b 479 500 485 181 479 321 b 483 1014 479 718 481 865 l 476 1014 b 143 815 399 924 264 854 l 143 808 z "},"":{"ha":833,"x_min":0,"x_max":0,"o":"m 743 0 l 743 358 l 732 358 b 499 97 721 167 660 97 l 171 97 b 661 785 539 457 661 626 b 388 1014 661 906 575 1014 b 101 733 224 1014 101 892 b 113 646 101 701 106 671 l 125 646 b 119 708 121 664 119 685 b 333 919 119 846 224 919 b 543 733 457 919 543 858 b 35 0 543 536 331 335 z "},"":{"ha":833,"x_min":0,"x_max":0,"o":"m 406 111 b 86 321 233 111 124 167 l 75 321 b 406 -14 101 97 228 -14 b 739 326 614 -14 739 146 b 508 640 739 489 653 622 l 758 994 l 758 1000 l 121 1000 l 121 643 l 132 643 b 365 893 143 826 204 893 l 650 893 l 288 490 l 288 485 l 432 549 b 686 326 592 544 686 463 b 406 111 686 194 565 111 z "},"":{"ha":833,"x_min":0,"x_max":0,"o":"m 797 7 l 626 79 b 615 308 622 139 617 215 l 797 308 l 797 406 l 614 406 l 614 1014 l 607 1014 l 36 314 l 36 308 l 496 308 b 483 81 493 215 488 140 l 306 7 l 306 0 l 797 0 z m 182 406 l 497 850 l 497 406 z "},"":{"ha":833,"x_min":0,"x_max":0,"o":"m 415 111 b 96 321 243 111 133 167 l 85 321 b 415 -14 111 97 238 -14 b 749 326 624 -14 749 146 b 429 667 749 514 629 667 b 167 517 329 667 228 614 l 261 893 l 660 893 l 738 1000 l 193 1000 l 133 449 l 140 449 b 429 542 192 515 304 542 b 696 326 596 542 696 463 b 415 111 696 194 575 111 z "},"":{"ha":833,"x_min":0,"x_max":0,"o":"m 442 1014 b 72 500 213 1014 72 813 b 428 -14 72 190 207 -14 b 761 313 636 -14 761 139 b 442 639 761 493 642 639 b 140 374 308 639 172 542 b 128 500 132 413 128 454 b 442 889 128 740 244 889 b 733 679 599 889 696 832 l 744 679 b 442 1014 718 903 604 1014 z m 442 514 b 708 313 608 514 708 439 b 442 111 708 189 593 111 b 154 324 299 111 199 190 b 442 514 172 443 289 514 z "},"":{"ha":833,"x_min":0,"x_max":0,"o":"m 404 0 b 735 994 497 379 558 554 l 735 1000 l 100 1000 l 100 643 l 111 643 b 344 893 122 826 183 893 l 660 893 l 246 6 l 246 0 z "},"":{"ha":833,"x_min":0,"x_max":0,"o":"m 753 290 b 532 550 753 451 650 513 b 699 779 626 582 699 672 b 410 1014 699 908 582 1014 b 119 751 238 1014 119 896 b 285 499 119 610 192 540 b 79 258 167 467 79 386 b 417 -14 79 97 218 -14 b 753 290 617 -14 753 124 z m 644 739 b 504 557 644 656 585 581 b 175 758 347 601 175 613 b 410 889 175 831 271 889 b 644 739 550 889 644 825 z m 133 299 b 310 489 133 393 207 463 b 697 281 478 424 697 433 b 417 111 697 190 583 111 b 133 299 250 111 133 196 z "},"":{"ha":833,"x_min":0,"x_max":0,"o":"m 392 -14 b 761 500 621 -14 761 188 b 406 1014 761 810 626 1014 b 72 688 197 1014 72 861 b 392 361 72 507 192 361 b 693 626 525 361 661 458 b 706 500 701 588 706 546 b 392 111 706 260 589 111 b 100 321 235 111 138 168 l 89 321 b 392 -14 115 97 229 -14 z m 125 688 b 392 889 125 811 240 889 b 679 676 535 889 635 810 b 392 486 661 557 544 486 b 125 688 225 486 125 561 z "},"":{"ha":833,"x_min":0,"x_max":0,"o":"m 111 0 l 153 0 l 239 326 l 504 326 l 418 0 l 460 0 l 546 326 l 724 326 l 724 368 l 557 368 l 625 632 l 806 632 l 806 674 l 636 674 l 722 1000 l 681 1000 l 594 674 l 329 674 l 415 1000 l 374 1000 l 288 674 l 110 674 l 110 632 l 276 632 l 208 368 l 28 368 l 28 326 l 197 326 z m 250 368 l 318 632 l 583 632 l 515 368 z "},"":{"ha":833,"x_min":0,"x_max":0,"o":"m 11 354 l 147 354 b 492 -14 183 128 308 -14 b 822 321 669 -14 796 97 l 811 321 b 492 111 774 167 664 111 b 208 354 344 111 246 203 l 567 354 l 567 396 l 200 396 b 192 500 194 428 192 463 b 200 604 192 538 194 572 l 567 604 l 567 646 l 208 646 b 492 889 244 799 344 889 b 749 610 636 889 749 803 l 760 610 l 760 921 b 492 1014 710 971 617 1014 b 147 646 307 1014 183 874 l 11 646 l 11 604 l 142 604 b 136 500 138 571 136 536 b 142 396 136 464 138 429 l 11 396 z "},"":{"ha":833,"x_min":0,"x_max":0,"o":"m 286 -139 l 328 -139 l 328 -10 b 390 -14 347 -12 368 -14 b 467 -7 417 -14 443 -11 l 467 -139 l 508 -139 l 508 4 b 726 290 642 46 726 158 b 508 556 726 458 625 521 l 508 875 b 654 610 596 838 654 753 l 665 610 l 665 921 b 508 1001 632 954 578 985 l 508 1139 l 467 1139 l 467 1010 b 397 1014 444 1013 422 1014 b 328 1007 374 1014 350 1011 l 328 1139 l 286 1139 l 286 996 b 107 751 176 957 107 863 b 286 485 107 596 186 525 l 286 121 b 119 404 188 156 119 247 l 108 404 l 108 93 b 286 -3 149 53 207 15 z m 397 896 b 467 889 421 896 444 893 l 467 568 b 328 601 419 581 371 589 l 328 890 b 397 896 350 894 372 896 z m 163 758 b 286 881 163 813 210 858 l 286 614 b 163 758 214 639 163 678 z m 390 104 b 328 110 368 104 347 106 l 328 469 b 467 435 374 456 422 446 l 467 110 b 390 104 443 107 417 104 z m 671 281 b 508 119 671 211 608 147 l 508 425 b 671 281 600 401 671 368 z "},"":{"ha":833,"x_min":0,"x_max":0,"o":"m 385 0 l 426 0 l 426 132 b 729 382 607 132 697 272 l 721 386 b 426 250 664 303 576 250 l 426 750 b 563 694 489 743 529 722 l 606 497 l 615 497 l 651 799 b 426 868 617 831 536 868 l 426 1000 l 385 1000 l 385 865 b 104 482 206 846 104 689 b 385 133 104 292 203 150 z m 171 508 b 385 751 171 656 260 750 l 385 253 b 171 508 264 272 171 374 z "},"":{"ha":833,"x_min":0,"x_max":0,"o":"m 28 300 l 213 300 b 201 81 210 214 207 140 l 28 7 l 28 0 l 617 0 l 617 7 l 349 79 b 339 300 344 140 342 214 l 583 300 l 583 342 l 338 342 b 336 514 336 394 336 451 l 336 550 l 476 550 b 806 783 672 550 806 631 b 476 1000 806 926 672 1000 l 28 1000 l 28 993 l 201 919 b 215 592 208 835 214 726 l 28 592 l 28 550 l 215 550 b 215 500 215 533 215 517 b 214 342 215 443 215 390 l 28 342 z m 476 592 l 336 592 l 336 958 l 476 958 b 675 783 600 958 675 883 b 476 592 675 672 600 592 z "},"":{"ha":833,"x_min":0,"x_max":0,"o":"m 126 482 l 357 482 b 389 397 376 456 389 428 b 78 6 389 289 157 93 l 78 0 l 756 0 l 756 358 l 744 358 b 511 97 733 167 672 97 l 254 97 b 406 397 322 217 406 301 b 392 482 406 431 400 458 l 682 482 l 682 524 l 371 524 b 261 733 328 593 261 632 b 456 914 261 854 340 914 b 701 671 576 914 701 822 l 713 671 b 417 1014 713 876 604 1014 b 143 785 229 1014 143 906 b 321 524 143 668 249 597 l 126 524 z "},"":{"ha":833,"x_min":0,"x_max":0,"o":"m 128 0 l 703 0 l 703 7 l 490 79 b 478 354 485 158 479 225 l 694 354 l 694 396 l 478 396 l 478 604 l 694 604 l 694 646 l 494 646 l 713 911 l 849 994 l 849 1000 l 472 1000 l 472 994 l 625 904 l 453 647 l 406 713 b 260 925 335 806 301 853 l 397 994 l 397 1000 l -15 1000 l -15 994 l 88 935 b 303 676 158 850 231 771 l 326 646 l 139 646 l 139 604 l 357 604 l 357 396 l 139 396 l 139 354 l 357 354 b 343 81 356 226 350 160 l 128 7 z "},"":{"ha":860,"x_min":0,"x_max":0,"o":"m 431 -14 b 790 354 638 -14 790 143 b 431 722 790 567 638 722 b 69 354 222 722 69 567 b 431 -14 69 143 222 -14 z m 132 354 b 431 667 132 535 258 667 b 624 596 506 667 572 640 l 204 144 b 132 354 158 199 132 272 z m 431 42 b 236 113 354 42 288 68 l 656 564 b 728 354 701 510 728 438 b 431 42 728 175 600 42 z "},"":{"ha":860,"x_min":0,"x_max":0,"o":"m 431 -14 b 790 354 638 -14 790 143 b 431 722 790 567 638 722 b 69 354 222 722 69 567 b 431 -14 69 143 222 -14 z m 431 42 b 132 354 258 42 132 175 b 431 667 132 535 258 667 b 728 354 600 667 728 535 b 431 42 728 175 600 42 z "},"":{"ha":690,"x_min":0,"x_max":0,"o":"m 290 354 b 278 81 290 239 283 149 l 69 7 l 69 0 l 617 0 l 617 7 l 411 79 b 401 354 407 147 401 236 b 413 628 401 471 408 561 l 621 701 l 621 708 l 74 708 l 74 701 l 279 629 b 290 354 283 563 290 471 z "},"":{"ha":818,"x_min":0,"x_max":0,"o":"m 749 0 l 749 236 l 738 236 l 661 97 l 275 97 b 660 513 567 274 660 397 b 422 722 660 628 585 721 b 153 457 253 722 153 606 b 161 394 153 435 156 413 l 179 394 b 175 440 176 408 175 422 b 363 631 175 565 267 631 b 529 476 463 631 529 571 b 69 0 529 369 465 265 z "},"":{"ha":822,"x_min":0,"x_max":0,"o":"m 400 -181 b 81 29 228 -181 118 -125 l 69 29 b 400 -306 96 -194 222 -306 b 733 35 608 -306 733 -146 b 503 349 733 197 647 331 l 753 703 l 753 708 l 115 708 l 115 351 l 126 351 b 360 601 138 535 199 601 l 644 601 l 282 199 l 282 193 l 426 257 b 681 35 586 253 681 171 b 400 -181 681 -97 560 -181 z "},"":{"ha":900,"x_min":0,"x_max":0,"o":"m 831 6 l 831 103 l 647 103 l 647 711 l 640 711 l 69 11 l 69 6 l 526 6 b 513 -306 525 -122 519 -226 l 660 -306 b 647 6 654 -224 650 -118 z m 215 103 l 526 540 l 526 103 z "},"":{"ha":803,"x_min":0,"x_max":0,"o":"m 118 157 l 125 157 b 414 250 176 224 289 250 b 681 35 581 250 681 171 b 400 -181 681 -97 560 -181 b 81 29 228 -181 118 -125 l 69 29 b 400 -306 96 -194 222 -306 b 733 35 608 -306 733 -146 b 414 375 733 222 614 375 b 151 225 314 375 213 322 l 246 601 l 644 601 l 722 708 l 178 708 z "},"":{"ha":856,"x_min":0,"x_max":0,"o":"m 453 1014 b 83 500 224 1014 83 813 b 439 -14 83 190 218 -14 b 772 313 647 -14 772 139 b 453 639 772 493 653 639 b 151 374 319 639 183 542 b 139 500 143 413 139 454 b 453 889 139 740 256 889 b 744 679 610 889 707 832 l 756 679 b 453 1014 729 903 615 1014 z m 453 514 b 719 313 619 514 719 439 b 453 111 719 189 604 111 b 165 324 310 111 210 190 b 453 514 183 443 300 514 z "},"":{"ha":783,"x_min":0,"x_max":0,"o":"m 374 -292 b 704 703 467 88 528 263 l 704 708 l 69 708 l 69 351 l 81 351 b 314 601 92 535 153 601 l 629 601 l 215 -286 l 215 -292 z "},"":{"ha":840,"x_min":0,"x_max":0,"o":"m 757 290 b 536 550 757 451 654 513 b 703 779 631 582 703 672 b 414 1014 703 908 586 1014 b 124 751 242 1014 124 896 b 289 499 124 610 196 540 b 83 258 171 467 83 386 b 421 -14 83 97 222 -14 b 757 290 621 -14 757 124 z m 649 739 b 508 557 649 656 589 581 b 179 758 351 601 179 613 b 414 889 179 831 275 889 b 649 739 554 889 649 825 z m 138 299 b 314 489 138 393 211 463 b 701 281 482 424 701 433 b 421 111 701 190 588 111 b 138 299 254 111 138 196 z "},"":{"ha":856,"x_min":0,"x_max":0,"o":"m 403 -306 b 772 208 632 -306 772 -104 b 417 722 772 518 638 722 b 83 396 208 722 83 569 b 403 69 83 215 203 69 b 704 335 536 69 672 167 b 717 208 713 296 717 254 b 403 -181 717 -32 600 -181 b 111 29 246 -181 149 -124 l 100 29 b 403 -306 126 -194 240 -306 z m 136 396 b 403 597 136 519 251 597 b 690 385 546 597 646 518 b 403 194 672 265 556 194 b 136 396 236 194 136 269 z "},"":{"ha":958,"x_min":0,"x_max":0,"o":"m 153 0 l 194 0 l 281 326 l 546 326 l 460 0 l 501 0 l 588 326 l 765 326 l 765 368 l 599 368 l 667 632 l 847 632 l 847 674 l 678 674 l 764 1000 l 722 1000 l 636 674 l 371 674 l 457 1000 l 415 1000 l 329 674 l 151 674 l 151 632 l 318 632 l 250 368 l 69 368 l 69 326 l 239 326 z m 292 368 l 360 632 l 625 632 l 557 368 z "},"":{"ha":1019,"x_min":0,"x_max":0,"o":"m 69 354 l 206 354 b 550 -14 242 128 367 -14 b 881 321 728 -14 854 97 l 869 321 b 550 111 832 167 722 111 b 267 354 403 111 304 203 l 625 354 l 625 396 l 258 396 b 250 500 253 428 250 463 b 258 604 250 538 253 572 l 625 604 l 625 646 l 267 646 b 550 889 303 799 403 889 b 807 610 694 889 807 803 l 818 610 l 818 921 b 550 1014 768 971 675 1014 b 206 646 365 1014 242 874 l 69 646 l 69 604 l 200 604 b 194 500 196 571 194 536 b 200 396 194 464 196 429 l 69 396 z "},"":{"ha":710,"x_min":0,"x_max":0,"o":"m 249 -139 l 290 -139 l 290 -10 b 353 -14 310 -12 331 -14 b 429 -7 379 -14 406 -11 l 429 -139 l 471 -139 l 471 4 b 689 290 604 46 689 158 b 471 556 689 458 588 521 l 471 875 b 617 610 558 838 617 753 l 628 610 l 628 921 b 471 1001 594 954 540 985 l 471 1139 l 429 1139 l 429 1010 b 360 1014 407 1013 385 1014 b 290 1007 336 1014 313 1011 l 290 1139 l 249 1139 l 249 996 b 69 751 139 957 69 863 b 249 485 69 596 149 525 l 249 121 b 82 404 150 156 82 247 l 71 404 l 71 93 b 249 -3 111 53 169 15 z m 360 896 b 429 889 383 896 407 893 l 429 568 b 290 601 382 581 333 589 l 290 890 b 360 896 313 894 335 896 z m 125 758 b 249 881 125 813 172 858 l 249 614 b 125 758 176 639 125 678 z m 353 104 b 290 110 331 104 310 106 l 290 469 b 429 435 336 456 385 446 l 429 110 b 353 104 406 107 379 104 z m 633 281 b 471 119 633 211 571 147 l 471 425 b 633 281 563 401 633 368 z "},"":{"ha":764,"x_min":0,"x_max":0,"o":"m 350 -146 l 392 -146 l 392 -14 b 694 236 572 -14 663 126 l 686 240 b 392 104 629 157 542 104 l 392 604 b 528 549 454 597 494 576 l 571 351 l 581 351 l 617 653 b 392 722 582 685 501 722 l 392 854 l 350 854 l 350 719 b 69 336 171 700 69 543 b 350 -12 69 146 168 4 z m 136 363 b 350 606 136 510 225 604 l 350 107 b 136 363 229 126 136 228 z "},"":{"ha":833,"x_min":0,"x_max":0,"o":"m 28 300 l 213 300 b 201 81 210 214 207 140 l 28 7 l 28 0 l 617 0 l 617 7 l 349 79 b 339 300 344 140 342 214 l 583 300 l 583 342 l 338 342 b 336 514 336 394 336 451 l 336 550 l 476 550 b 806 783 672 550 806 631 b 476 1000 806 926 672 1000 l 28 1000 l 28 993 l 201 919 b 215 592 208 835 214 726 l 28 592 l 28 550 l 215 550 b 215 500 215 533 215 517 b 214 342 215 443 215 390 l 28 342 z m 476 592 l 336 592 l 336 958 l 476 958 b 675 783 600 958 675 883 b 476 592 675 672 600 592 z "},"":{"ha":817,"x_min":0,"x_max":0,"o":"m 118 482 l 349 482 b 381 397 368 456 381 428 b 69 6 381 289 149 93 l 69 0 l 747 0 l 747 358 l 736 358 b 503 97 725 167 664 97 l 246 97 b 397 397 314 217 397 301 b 383 482 397 431 392 458 l 674 482 l 674 524 l 363 524 b 253 733 319 593 253 632 b 447 914 253 854 332 914 b 693 671 568 914 693 822 l 704 671 b 408 1014 704 876 596 1014 b 135 785 221 1014 135 906 b 313 524 135 668 240 597 l 118 524 z "},"":{"ha":1003,"x_min":0,"x_max":0,"o":"m 213 0 l 788 0 l 788 7 l 575 79 b 563 354 569 158 564 225 l 779 354 l 779 396 l 563 396 l 563 604 l 779 604 l 779 646 l 579 646 l 797 911 l 933 994 l 933 1000 l 557 1000 l 557 994 l 710 904 l 538 647 l 490 713 b 344 925 419 806 386 853 l 482 994 l 482 1000 l 69 1000 l 69 994 l 172 935 b 388 676 243 850 315 771 l 411 646 l 224 646 l 224 604 l 442 604 l 442 396 l 224 396 l 224 354 l 442 354 b 428 81 440 226 435 160 l 213 7 z "},"":{"ha":833,"x_min":0,"x_max":0,"o":"m 417 -14 b 776 354 624 -14 776 143 b 417 722 776 567 624 722 b 56 354 208 722 56 567 b 417 -14 56 143 208 -14 z m 118 354 b 417 667 118 535 244 667 b 610 596 492 667 558 640 l 190 144 b 118 354 144 199 118 272 z m 417 42 b 222 113 340 42 274 68 l 642 564 b 714 354 688 510 714 438 b 417 42 714 175 586 42 z "},"":{"ha":833,"x_min":0,"x_max":0,"o":"m 417 -14 b 776 354 624 -14 776 143 b 417 722 776 567 624 722 b 56 354 208 722 56 567 b 417 -14 56 143 208 -14 z m 417 42 b 118 354 244 42 118 175 b 417 667 118 535 244 667 b 714 354 586 667 714 535 b 417 42 714 175 586 42 z "},"":{"ha":833,"x_min":0,"x_max":0,"o":"m 363 354 b 350 81 363 239 354 149 l 72 7 l 72 0 l 758 0 l 758 7 l 483 79 b 474 354 479 147 474 236 b 485 628 474 471 481 561 l 763 701 l 763 708 l 76 708 l 76 701 l 351 629 b 363 354 354 563 363 471 z "},"":{"ha":833,"x_min":0,"x_max":0,"o":"m 715 0 l 715 236 l 704 236 l 628 97 l 242 97 b 626 513 533 274 626 397 b 389 722 626 628 551 721 b 119 457 219 722 119 606 b 128 394 119 435 122 413 l 146 394 b 142 440 143 408 142 422 b 329 631 142 565 233 631 b 496 476 429 631 496 571 b 36 0 496 369 432 265 z "},"":{"ha":833,"x_min":0,"x_max":0,"o":"m 406 -181 b 86 29 233 -181 124 -125 l 75 29 b 406 -306 101 -194 228 -306 b 739 35 614 -306 739 -146 b 508 349 739 197 653 331 l 758 703 l 758 708 l 121 708 l 121 351 l 132 351 b 365 601 143 535 204 601 l 650 601 l 288 199 l 288 193 l 432 257 b 686 35 592 253 686 171 b 406 -181 686 -97 565 -181 z "},"":{"ha":833,"x_min":0,"x_max":0,"o":"m 797 6 l 797 103 l 614 103 l 614 711 l 607 711 l 36 11 l 36 6 l 493 6 b 479 -306 492 -122 486 -226 l 626 -306 b 614 6 621 -224 617 -118 z m 182 103 l 493 540 l 493 103 z "},"":{"ha":833,"x_min":0,"x_max":0,"o":"m 133 157 l 140 157 b 429 250 192 224 304 250 b 696 35 596 250 696 171 b 415 -181 696 -97 575 -181 b 96 29 243 -181 133 -125 l 85 29 b 415 -306 111 -194 238 -306 b 749 35 624 -306 749 -146 b 429 375 749 222 629 375 b 167 225 329 375 228 322 l 261 601 l 660 601 l 738 708 l 193 708 z "},"":{"ha":833,"x_min":0,"x_max":0,"o":"m 442 1014 b 72 500 213 1014 72 813 b 428 -14 72 190 207 -14 b 761 313 636 -14 761 139 b 442 639 761 493 642 639 b 140 374 308 639 172 542 b 128 500 132 413 128 454 b 442 889 128 740 244 889 b 733 679 599 889 696 832 l 744 679 b 442 1014 718 903 604 1014 z m 442 514 b 708 313 608 514 708 439 b 442 111 708 189 593 111 b 154 324 299 111 199 190 b 442 514 172 443 289 514 z "},"":{"ha":833,"x_min":0,"x_max":0,"o":"m 404 -292 b 735 703 497 88 558 263 l 735 708 l 100 708 l 100 351 l 111 351 b 344 601 122 535 183 601 l 660 601 l 246 -286 l 246 -292 z "},"":{"ha":833,"x_min":0,"x_max":0,"o":"m 753 290 b 532 550 753 451 650 513 b 699 779 626 582 699 672 b 410 1014 699 908 582 1014 b 119 751 238 1014 119 896 b 285 499 119 610 192 540 b 79 258 167 467 79 386 b 417 -14 79 97 218 -14 b 753 290 617 -14 753 124 z m 644 739 b 504 557 644 656 585 581 b 175 758 347 601 175 613 b 410 889 175 831 271 889 b 644 739 550 889 644 825 z m 133 299 b 310 489 133 393 207 463 b 697 281 478 424 697 433 b 417 111 697 190 583 111 b 133 299 250 111 133 196 z "},"":{"ha":833,"x_min":0,"x_max":0,"o":"m 392 -306 b 761 208 621 -306 761 -104 b 406 722 761 518 626 722 b 72 396 197 722 72 569 b 392 69 72 215 192 69 b 693 335 525 69 661 167 b 706 208 701 296 706 254 b 392 -181 706 -32 589 -181 b 100 29 235 -181 138 -124 l 89 29 b 392 -306 115 -194 229 -306 z m 125 396 b 392 597 125 519 240 597 b 679 385 535 597 635 518 b 392 194 661 265 544 194 b 125 396 225 194 125 269 z "},"":{"ha":833,"x_min":0,"x_max":0,"o":"m 111 0 l 153 0 l 239 326 l 504 326 l 418 0 l 460 0 l 546 326 l 724 326 l 724 368 l 557 368 l 625 632 l 806 632 l 806 674 l 636 674 l 722 1000 l 681 1000 l 594 674 l 329 674 l 415 1000 l 374 1000 l 288 674 l 110 674 l 110 632 l 276 632 l 208 368 l 28 368 l 28 326 l 197 326 z m 250 368 l 318 632 l 583 632 l 515 368 z "},"":{"ha":833,"x_min":0,"x_max":0,"o":"m 11 354 l 147 354 b 492 -14 183 128 308 -14 b 822 321 669 -14 796 97 l 811 321 b 492 111 774 167 664 111 b 208 354 344 111 246 203 l 567 354 l 567 396 l 200 396 b 192 500 194 428 192 463 b 200 604 192 538 194 572 l 567 604 l 567 646 l 208 646 b 492 889 244 799 344 889 b 749 610 636 889 749 803 l 760 610 l 760 921 b 492 1014 710 971 617 1014 b 147 646 307 1014 183 874 l 11 646 l 11 604 l 142 604 b 136 500 138 571 136 536 b 142 396 136 464 138 429 l 11 396 z "},"":{"ha":833,"x_min":0,"x_max":0,"o":"m 286 -139 l 328 -139 l 328 -10 b 390 -14 347 -12 368 -14 b 467 -7 417 -14 443 -11 l 467 -139 l 508 -139 l 508 4 b 726 290 642 46 726 158 b 508 556 726 458 625 521 l 508 875 b 654 610 596 838 654 753 l 665 610 l 665 921 b 508 1001 632 954 578 985 l 508 1139 l 467 1139 l 467 1010 b 397 1014 444 1013 422 1014 b 328 1007 374 1014 350 1011 l 328 1139 l 286 1139 l 286 996 b 107 751 176 957 107 863 b 286 485 107 596 186 525 l 286 121 b 119 404 188 156 119 247 l 108 404 l 108 93 b 286 -3 149 53 207 15 z m 397 896 b 467 889 421 896 444 893 l 467 568 b 328 601 419 581 371 589 l 328 890 b 397 896 350 894 372 896 z m 163 758 b 286 881 163 813 210 858 l 286 614 b 163 758 214 639 163 678 z m 390 104 b 328 110 368 104 347 106 l 328 469 b 467 435 374 456 422 446 l 467 110 b 390 104 443 107 417 104 z m 671 281 b 508 119 671 211 608 147 l 508 425 b 671 281 600 401 671 368 z "},"":{"ha":833,"x_min":0,"x_max":0,"o":"m 385 -146 l 426 -146 l 426 -14 b 729 236 607 -14 697 126 l 721 240 b 426 104 664 157 576 104 l 426 604 b 563 549 489 597 529 576 l 606 351 l 615 351 l 651 653 b 426 722 617 685 536 722 l 426 854 l 385 854 l 385 719 b 104 336 206 700 104 543 b 385 -12 104 146 203 4 z m 171 363 b 385 606 171 510 260 604 l 385 107 b 171 363 264 126 171 228 z "},"":{"ha":833,"x_min":0,"x_max":0,"o":"m 28 300 l 213 300 b 201 81 210 214 207 140 l 28 7 l 28 0 l 617 0 l 617 7 l 349 79 b 339 300 344 140 342 214 l 583 300 l 583 342 l 338 342 b 336 514 336 394 336 451 l 336 550 l 476 550 b 806 783 672 550 806 631 b 476 1000 806 926 672 1000 l 28 1000 l 28 993 l 201 919 b 215 592 208 835 214 726 l 28 592 l 28 550 l 215 550 b 215 500 215 533 215 517 b 214 342 215 443 215 390 l 28 342 z m 476 592 l 336 592 l 336 958 l 476 958 b 675 783 600 958 675 883 b 476 592 675 672 600 592 z "},"":{"ha":833,"x_min":0,"x_max":0,"o":"m 126 482 l 357 482 b 389 397 376 456 389 428 b 78 6 389 289 157 93 l 78 0 l 756 0 l 756 358 l 744 358 b 511 97 733 167 672 97 l 254 97 b 406 397 322 217 406 301 b 392 482 406 431 400 458 l 682 482 l 682 524 l 371 524 b 261 733 328 593 261 632 b 456 914 261 854 340 914 b 701 671 576 914 701 822 l 713 671 b 417 1014 713 876 604 1014 b 143 785 229 1014 143 906 b 321 524 143 668 249 597 l 126 524 z "},"":{"ha":833,"x_min":0,"x_max":0,"o":"m 128 0 l 703 0 l 703 7 l 490 79 b 478 354 485 158 479 225 l 694 354 l 694 396 l 478 396 l 478 604 l 694 604 l 694 646 l 494 646 l 713 911 l 849 994 l 849 1000 l 472 1000 l 472 994 l 625 904 l 453 647 l 406 713 b 260 925 335 806 301 853 l 397 994 l 397 1000 l -15 1000 l -15 994 l 88 935 b 303 676 158 850 231 771 l 326 646 l 139 646 l 139 604 l 357 604 l 357 396 l 139 396 l 139 354 l 357 354 b 343 81 356 226 350 160 l 128 7 z "},".":{"ha":307,"x_min":0,"x_max":0,"o":"m 69 68 b 153 -14 69 22 108 -14 b 238 68 200 -14 238 22 b 153 153 238 115 200 153 b 69 68 108 153 69 115 z "},",":{"ha":307,"x_min":0,"x_max":0,"o":"m 81 -193 b 238 50 179 -142 238 -31 b 154 153 238 114 200 153 b 74 78 111 153 74 119 b 164 -49 74 7 164 13 b 75 -182 164 -93 133 -147 z "},";":{"ha":307,"x_min":0,"x_max":0,"o":"m 69 638 b 153 556 69 592 108 556 b 238 638 200 556 238 592 b 153 722 238 685 200 722 b 69 638 108 722 69 685 z m 81 -193 b 238 50 179 -142 238 -31 b 154 153 238 114 200 153 b 74 78 111 153 74 119 b 164 -49 74 7 164 13 b 75 -182 164 -93 133 -147 z "},":":{"ha":307,"x_min":0,"x_max":0,"o":"m 69 638 b 153 556 69 592 108 556 b 238 638 200 556 238 592 b 153 722 238 685 200 722 b 69 638 108 722 69 685 z m 69 68 b 153 -14 69 22 108 -14 b 238 68 200 -14 238 22 b 153 153 238 115 200 153 b 69 68 108 153 69 115 z "},"‥":{"ha":585,"x_min":0,"x_max":0,"o":"m 347 68 b 431 -14 347 22 386 -14 b 515 68 478 -14 515 22 b 431 153 515 115 478 153 b 347 68 386 153 347 115 z m 69 68 b 153 -14 69 22 108 -14 b 238 68 200 -14 238 22 b 153 153 238 115 200 153 b 69 68 108 153 69 115 z "},"…":{"ha":863,"x_min":0,"x_max":0,"o":"m 347 68 b 431 -14 347 22 386 -14 b 515 68 478 -14 515 22 b 431 153 515 115 478 153 b 347 68 386 153 347 115 z m 69 68 b 153 -14 69 22 108 -14 b 238 68 200 -14 238 22 b 153 153 238 115 200 153 b 69 68 108 153 69 115 z m 625 68 b 708 -14 625 22 664 -14 b 793 68 756 -14 793 22 b 708 153 793 115 756 153 b 625 68 664 153 625 115 z "},"⋮":{"ha":307,"x_min":0,"x_max":0,"o":"m 69 638 b 153 556 69 592 108 556 b 238 638 200 556 238 592 b 153 722 238 685 200 722 b 69 638 108 722 69 685 z m 69 353 b 153 271 69 307 108 271 b 238 353 200 271 238 307 b 153 438 238 400 200 438 b 69 353 108 438 69 400 z m 69 68 b 153 -14 69 22 108 -14 b 238 68 200 -14 238 22 b 153 153 238 115 200 153 b 69 68 108 153 69 115 z "},"!":{"ha":363,"x_min":0,"x_max":0,"o":"m 119 999 l 119 764 b 176 222 119 568 176 378 l 186 222 b 243 764 186 376 243 568 l 243 999 z m 97 68 b 181 -14 97 22 136 -14 b 265 68 228 -14 265 22 b 181 153 265 115 228 153 b 97 68 136 153 97 115 z "},"":{"ha":363,"x_min":0,"x_max":0,"o":"m 119 860 l 119 694 b 176 222 119 524 176 358 l 186 222 b 243 694 186 357 243 524 l 243 860 z m 97 68 b 181 -14 97 22 136 -14 b 265 68 228 -14 265 22 b 181 153 265 115 228 153 b 97 68 136 153 97 115 z "},"¡":{"ha":363,"x_min":0,"x_max":0,"o":"m 265 640 b 182 722 265 686 226 722 b 97 640 135 722 97 686 b 182 556 97 593 135 556 b 265 640 226 556 265 593 z m 243 -290 l 243 -56 b 186 486 243 140 186 331 l 176 486 b 119 -56 176 332 119 140 l 119 -290 z "},"":{"ha":363,"x_min":0,"x_max":0,"o":"m 265 931 b 182 1013 265 976 226 1013 b 97 931 135 1013 97 976 b 182 846 97 883 135 846 b 265 931 226 846 265 883 z m 243 0 l 243 235 b 186 776 243 431 186 621 l 176 776 b 119 235 176 622 119 431 l 119 0 z "},"":{"ha":363,"x_min":0,"x_max":0,"o":"m 265 792 b 182 874 265 838 226 874 b 97 792 135 874 97 838 b 182 707 97 744 135 707 b 265 792 226 707 265 744 z m 243 0 l 243 165 b 186 638 243 336 186 501 l 176 638 b 119 165 176 503 119 336 l 119 0 z "},"?":{"ha":631,"x_min":0,"x_max":0,"o":"m 575 785 b 315 1014 575 906 493 1014 b 56 772 161 1014 56 919 b 79 667 56 740 67 692 l 90 667 b 75 740 82 694 75 718 b 276 914 75 867 188 914 b 457 733 383 914 457 854 b 275 222 457 576 275 439 l 285 222 b 575 785 285 476 575 529 z m 196 68 b 279 -14 196 22 235 -14 b 364 68 326 -14 364 22 b 279 153 364 115 326 153 b 196 68 235 153 196 115 z "},"":{"ha":631,"x_min":0,"x_max":0,"o":"m 575 646 b 315 875 575 767 493 875 b 56 614 161 875 56 772 b 79 508 56 582 67 533 l 90 508 b 75 582 82 536 75 560 b 276 775 75 722 188 775 b 457 594 383 775 457 715 b 275 222 457 439 275 381 l 285 222 b 575 646 285 414 575 411 z m 196 68 b 279 -14 196 22 235 -14 b 364 68 326 -14 364 22 b 279 153 364 115 326 153 b 196 68 235 153 196 115 z "},"¿":{"ha":631,"x_min":0,"x_max":0,"o":"m 435 640 b 351 722 435 686 396 722 b 267 640 304 722 267 686 b 351 556 267 593 304 556 b 435 640 396 556 435 593 z m 56 -76 b 315 -306 56 -197 138 -306 b 575 -64 469 -306 575 -211 b 551 42 575 -32 564 17 l 540 42 b 556 -32 549 14 556 -10 b 354 -206 556 -158 443 -206 b 174 -25 247 -206 174 -146 b 356 486 174 132 356 269 l 346 486 b 56 -76 346 232 56 179 z "},"":{"ha":631,"x_min":0,"x_max":0,"o":"m 435 932 b 351 1014 435 978 396 1014 b 267 932 304 1014 267 978 b 351 847 267 885 304 847 b 435 932 396 847 435 885 z m 56 215 b 315 -14 56 94 138 -14 b 575 228 469 -14 575 81 b 551 333 575 260 564 308 l 540 333 b 556 260 549 306 556 282 b 354 86 556 133 443 86 b 174 267 247 86 174 146 b 356 778 174 424 356 561 l 346 778 b 56 215 346 524 56 471 z "},"":{"ha":631,"x_min":0,"x_max":0,"o":"m 435 793 b 351 875 435 839 396 875 b 267 793 304 875 267 839 b 351 708 267 746 304 708 b 435 793 396 708 435 746 z m 56 215 b 315 -14 56 94 138 -14 b 575 247 469 -14 575 89 b 551 353 575 279 564 328 l 540 353 b 556 279 549 325 556 301 b 354 86 556 139 443 86 b 174 267 247 86 174 146 b 356 639 174 422 356 481 l 346 639 b 56 215 346 447 56 450 z "},"–":{"ha":694,"x_min":0,"x_max":0,"o":"m 69 400 b 625 400 119 401 574 401 l 625 442 b 69 442 574 440 119 440 z "},"":{"ha":694,"x_min":0,"x_max":0,"o":"m 69 479 b 625 479 119 481 574 481 l 625 521 b 69 521 574 519 119 519 z "},"":{"ha":694,"x_min":0,"x_max":0,"o":"m 69 400 b 625 400 119 401 574 401 l 625 442 b 69 442 574 440 119 440 z "},"_":{"ha":694,"x_min":0,"x_max":0,"o":"m 69 -194 b 625 -194 119 -193 574 -193 l 625 -153 b 69 -153 574 -154 119 -154 z "},"—":{"ha":1389,"x_min":0,"x_max":0,"o":"m 139 400 b 1250 400 240 404 1149 404 l 1250 442 b 139 442 1147 438 239 438 z "},"":{"ha":1389,"x_min":0,"x_max":0,"o":"m 139 479 b 1250 479 240 483 1149 483 l 1250 521 b 139 521 1147 517 239 517 z "},"":{"ha":1389,"x_min":0,"x_max":0,"o":"m 139 400 b 1250 400 240 404 1149 404 l 1250 442 b 139 442 1147 438 239 438 z "},"•":{"ha":528,"x_min":0,"x_max":0,"o":"m 264 229 b 472 438 386 229 472 317 b 264 646 472 560 386 646 b 56 438 143 646 56 560 b 264 229 56 317 143 229 z "},"◦":{"ha":528,"x_min":0,"x_max":0,"o":"m 264 229 b 472 438 386 229 472 317 b 264 646 472 560 386 646 b 56 438 143 646 56 560 b 264 229 56 317 143 229 z m 264 271 b 97 438 168 271 97 340 b 264 604 97 536 168 604 b 431 438 361 604 431 536 b 264 271 431 340 361 271 z "},"‣":{"ha":528,"x_min":0,"x_max":0,"o":"m 97 179 l 472 438 l 97 696 z "},"◉":{"ha":1028,"x_min":0,"x_max":0,"o":"m 514 -21 b 972 438 783 -21 972 172 b 514 896 972 707 783 896 b 56 438 249 896 56 707 b 514 -21 56 172 249 -21 z m 514 21 b 97 438 272 21 97 194 b 514 854 97 683 272 854 b 931 438 758 854 931 683 b 514 21 931 194 758 21 z m 514 229 b 722 438 636 229 722 317 b 514 646 722 560 636 646 b 306 438 393 646 306 560 b 514 229 306 317 393 229 z m 514 271 b 347 438 418 271 347 340 b 514 604 347 536 418 604 b 681 438 611 604 681 536 b 514 271 681 340 611 271 z "},"◎":{"ha":1028,"x_min":0,"x_max":0,"o":"m 514 -21 b 972 438 783 -21 972 172 b 514 896 972 707 783 896 b 56 438 249 896 56 707 b 514 -21 56 172 249 -21 z m 514 21 b 97 438 272 21 97 194 b 514 854 97 683 272 854 b 931 438 758 854 931 683 b 514 21 931 194 758 21 z m 514 229 b 722 438 636 229 722 317 b 514 646 722 560 636 646 b 306 438 393 646 306 560 b 514 229 306 317 393 229 z "},"·":{"ha":307,"x_min":0,"x_max":0,"o":"m 69 500 b 153 418 69 454 108 418 b 238 500 200 418 238 454 b 153 585 238 547 200 585 b 69 500 108 585 69 547 z "},"":{"ha":307,"x_min":0,"x_max":0,"o":"m 69 500 b 153 418 69 454 108 418 b 238 500 200 418 238 454 b 153 585 238 547 200 585 b 69 500 108 585 69 547 z "},"":{"ha":307,"x_min":0,"x_max":0,"o":"m 69 500 b 153 418 69 454 108 418 b 238 500 200 418 238 454 b 153 585 238 547 200 585 b 69 500 108 585 69 547 z "},"-":{"ha":514,"x_min":0,"x_max":0,"o":"m 69 372 b 444 372 172 378 340 378 l 444 469 b 69 469 340 464 172 464 z "},"":{"ha":514,"x_min":0,"x_max":0,"o":"m 69 451 b 444 451 172 457 340 457 l 444 549 b 69 549 340 543 172 543 z "},"":{"ha":514,"x_min":0,"x_max":0,"o":"m 69 372 b 444 372 172 378 340 378 l 444 469 b 69 469 340 464 172 464 z "},"‹":{"ha":447,"x_min":0,"x_max":0,"o":"m 371 92 l 232 379 l 371 667 l 356 667 b 76 379 279 567 183 468 b 356 92 183 289 272 192 z "},"›":{"ha":447,"x_min":0,"x_max":0,"o":"m 76 92 l 92 92 b 371 379 175 192 264 289 b 92 667 264 468 168 567 l 76 667 l 215 379 z "},"":{"ha":447,"x_min":0,"x_max":0,"o":"m 371 203 l 232 490 l 371 778 l 356 778 b 76 490 279 678 183 579 b 356 203 183 400 272 303 z "},"":{"ha":447,"x_min":0,"x_max":0,"o":"m 76 203 l 92 203 b 371 490 175 303 264 400 b 92 778 264 579 168 678 l 76 778 l 215 490 z "},"":{"ha":447,"x_min":0,"x_max":0,"o":"m 371 92 l 232 379 l 371 667 l 356 667 b 76 379 279 567 183 468 b 356 92 183 289 272 192 z "},"":{"ha":447,"x_min":0,"x_max":0,"o":"m 76 92 l 92 92 b 371 379 175 192 264 289 b 92 667 264 468 168 567 l 76 667 l 215 379 z "},"«":{"ha":725,"x_min":0,"x_max":0,"o":"m 649 92 l 510 379 l 649 667 l 633 667 b 354 379 557 567 461 468 b 633 92 461 289 550 192 z m 371 92 l 232 379 l 371 667 l 356 667 b 76 379 279 567 183 468 b 356 92 183 289 272 192 z "},"»":{"ha":725,"x_min":0,"x_max":0,"o":"m 76 667 l 215 379 l 76 92 l 92 92 b 371 379 168 192 264 290 b 92 667 264 469 175 567 z m 354 667 l 493 379 l 354 92 l 369 92 b 649 379 446 192 542 290 b 369 667 542 469 453 567 z "},"":{"ha":725,"x_min":0,"x_max":0,"o":"m 649 203 l 510 490 l 649 778 l 633 778 b 354 490 557 678 461 579 b 633 203 461 400 550 303 z m 371 203 l 232 490 l 371 778 l 356 778 b 76 490 279 678 183 579 b 356 203 183 400 272 303 z "},"":{"ha":725,"x_min":0,"x_max":0,"o":"m 76 778 l 215 490 l 76 203 l 92 203 b 371 490 168 303 264 401 b 92 778 264 581 175 678 z m 354 778 l 493 490 l 354 203 l 369 203 b 649 490 446 303 542 401 b 369 778 542 581 453 678 z "},"":{"ha":725,"x_min":0,"x_max":0,"o":"m 649 92 l 510 379 l 649 667 l 633 667 b 354 379 557 567 461 468 b 633 92 461 289 550 192 z m 371 92 l 232 379 l 371 667 l 356 667 b 76 379 279 567 183 468 b 356 92 183 289 272 192 z "},"":{"ha":725,"x_min":0,"x_max":0,"o":"m 76 667 l 215 379 l 76 92 l 92 92 b 371 379 168 192 264 290 b 92 667 264 469 175 567 z m 354 667 l 493 379 l 354 92 l 369 92 b 649 379 446 192 542 290 b 369 667 542 469 453 567 z "},"‘":{"ha":307,"x_min":0,"x_max":0,"o":"m 226 1069 b 69 826 128 1018 69 907 b 153 724 69 763 107 724 b 233 799 196 724 233 757 b 143 925 233 869 143 864 b 232 1058 143 969 174 1024 z "},"’":{"ha":307,"x_min":0,"x_max":0,"o":"m 81 724 b 238 967 179 775 238 886 b 154 1069 238 1031 200 1069 b 74 994 111 1069 74 1036 b 164 868 74 924 164 929 b 75 735 164 824 133 769 z "},"“":{"ha":543,"x_min":0,"x_max":0,"o":"m 226 1069 b 69 826 128 1018 69 907 b 153 724 69 763 107 724 b 233 799 196 724 233 757 b 143 925 233 869 143 864 b 232 1058 143 969 174 1024 z m 463 1069 b 306 826 364 1018 306 907 b 389 724 306 763 343 724 b 469 799 432 724 469 757 b 379 925 469 869 379 864 b 468 1058 379 969 410 1024 z "},"”":{"ha":543,"x_min":0,"x_max":0,"o":"m 81 724 b 238 967 179 775 238 886 b 154 1069 238 1031 200 1069 b 74 994 111 1069 74 1036 b 164 868 74 924 164 929 b 75 735 164 824 133 769 z m 317 724 b 474 967 415 775 474 886 b 390 1069 474 1031 436 1069 b 310 994 347 1069 310 1036 b 400 868 310 924 400 929 b 311 735 400 824 369 769 z "},"‚":{"ha":307,"x_min":0,"x_max":0,"o":"m 81 -139 b 238 104 179 -87 238 24 b 154 207 238 168 200 207 b 74 132 111 207 74 174 b 164 6 74 61 164 67 b 75 -128 164 -39 133 -93 z "},"„":{"ha":543,"x_min":0,"x_max":0,"o":"m 81 -139 b 238 104 179 -87 238 24 b 154 207 238 168 200 207 b 74 132 111 207 74 174 b 164 6 74 61 164 67 b 75 -128 164 -39 133 -93 z m 317 -139 b 474 104 415 -87 474 24 b 390 207 474 168 436 207 b 310 132 347 207 310 174 b 400 6 310 61 400 67 b 311 -128 400 -39 369 -93 z "},"/":{"ha":603,"x_min":0,"x_max":0,"o":"m 0 -69 l 49 -69 l 603 1069 l 554 1069 z "},"":{"ha":535,"x_min":0,"x_max":0,"o":"m 0 -69 l 49 -69 l 535 931 l 486 931 z "},"\\":{"ha":603,"x_min":0,"x_max":0,"o":"m 0 1069 l 554 -69 l 603 -69 l 49 1069 z "},"":{"ha":535,"x_min":0,"x_max":0,"o":"m 535 -69 l 49 931 l 0 931 l 486 -69 z "},"|":{"ha":319,"x_min":0,"x_max":0,"o":"m 139 -69 l 181 -69 l 181 1069 l 139 1069 z "},"":{"ha":319,"x_min":0,"x_max":0,"o":"m 139 -69 l 181 -69 l 181 931 l 139 931 z "},"¦":{"ha":319,"x_min":0,"x_max":0,"o":"m 139 625 l 181 625 l 181 1069 l 139 1069 z m 139 -69 l 181 -69 l 181 375 l 139 375 z "},"":{"ha":319,"x_min":0,"x_max":0,"o":"m 139 556 l 181 556 l 181 931 l 139 931 z m 139 -69 l 181 -69 l 181 306 l 139 306 z "},"(":{"ha":418,"x_min":0,"x_max":0,"o":"m 213 424 b 418 1008 213 685 289 910 l 411 1014 b 111 424 286 940 111 758 b 411 -167 111 89 286 -93 l 418 -161 b 213 424 289 -62 213 163 z "},")":{"ha":418,"x_min":0,"x_max":0,"o":"m 206 424 b 0 -161 206 163 129 -62 l 7 -167 b 307 424 132 -93 307 89 b 7 1014 307 758 132 940 l 0 1008 b 206 424 129 910 206 685 z "},"":{"ha":418,"x_min":0,"x_max":0,"o":"m 213 479 b 418 1064 213 740 289 965 l 411 1069 b 111 479 286 996 111 814 b 411 -111 111 144 286 -37 l 418 -106 b 213 479 289 -7 213 218 z "},"":{"ha":418,"x_min":0,"x_max":0,"o":"m 206 479 b 0 -106 206 218 129 -7 l 7 -111 b 307 479 132 -37 307 144 b 7 1069 307 814 132 996 l 0 1064 b 206 479 129 965 206 740 z "},"":{"ha":418,"x_min":0,"x_max":0,"o":"m 213 424 b 418 1008 213 685 289 910 l 411 1014 b 111 424 286 940 111 758 b 411 -167 111 89 286 -93 l 418 -161 b 213 424 289 -62 213 163 z "},"":{"ha":418,"x_min":0,"x_max":0,"o":"m 206 424 b 0 -161 206 163 129 -62 l 7 -167 b 307 424 132 -93 307 89 b 7 1014 307 758 132 940 l 0 1008 b 206 424 129 910 206 685 z "},"[":{"ha":418,"x_min":0,"x_max":0,"o":"m 118 -167 l 418 -167 l 418 -125 l 215 -125 l 215 972 l 418 972 l 418 1014 l 118 1014 z "},"]":{"ha":418,"x_min":0,"x_max":0,"o":"m 300 -167 l 300 1014 l 0 1014 l 0 972 l 203 972 l 203 -125 l 0 -125 l 0 -167 z "},"":{"ha":418,"x_min":0,"x_max":0,"o":"m 118 -111 l 418 -111 l 418 -69 l 215 -69 l 215 1028 l 418 1028 l 418 1069 l 118 1069 z "},"":{"ha":418,"x_min":0,"x_max":0,"o":"m 300 -111 l 300 1069 l 0 1069 l 0 1028 l 203 1028 l 203 -69 l 0 -69 l 0 -111 z "},"":{"ha":418,"x_min":0,"x_max":0,"o":"m 118 -167 l 418 -167 l 418 -125 l 215 -125 l 215 972 l 418 972 l 418 1014 l 118 1014 z "},"":{"ha":418,"x_min":0,"x_max":0,"o":"m 300 -167 l 300 1014 l 0 1014 l 0 972 l 203 972 l 203 -125 l 0 -125 l 0 -167 z "},"{":{"ha":418,"x_min":0,"x_max":0,"o":"m 75 419 b 146 315 147 408 146 361 b 125 -8 146 236 125 72 b 332 -167 125 -135 243 -167 b 418 -150 361 -167 400 -158 l 418 -143 b 340 -154 390 -150 364 -154 b 236 0 260 -154 236 -75 b 235 322 236 90 235 242 b 99 424 235 382 200 401 b 235 525 200 444 235 465 b 236 847 235 606 236 757 b 340 1001 236 922 260 1001 b 418 990 364 1001 390 997 l 418 997 b 332 1014 400 1006 361 1014 b 125 856 243 1014 125 982 b 146 532 125 775 146 611 b 75 428 146 486 147 439 z "},"}":{"ha":418,"x_min":0,"x_max":0,"o":"m 343 428 b 272 532 271 439 272 486 b 293 856 272 611 293 775 b 86 1014 293 982 175 1014 b 0 997 57 1014 18 1006 l 0 990 b 78 1001 28 997 54 1001 b 182 847 158 1001 182 922 b 183 525 182 757 183 606 b 319 424 183 465 218 446 b 183 322 218 403 183 382 b 182 0 183 242 182 90 b 78 -154 182 -75 158 -154 b 0 -143 54 -154 28 -150 l 0 -150 b 86 -167 18 -158 57 -167 b 293 -8 175 -167 293 -135 b 272 315 293 72 272 236 b 343 419 272 361 271 408 z "},"":{"ha":418,"x_min":0,"x_max":0,"o":"m 75 475 b 146 371 147 464 146 417 b 125 47 146 292 125 128 b 332 -111 125 -79 243 -111 b 418 -94 361 -111 400 -103 l 418 -87 b 340 -99 390 -94 364 -99 b 236 56 260 -99 236 -19 b 235 378 236 146 235 297 b 99 479 235 438 200 457 b 235 581 200 500 235 521 b 236 903 235 661 236 813 b 340 1057 236 978 260 1057 b 418 1046 364 1057 390 1053 l 418 1053 b 332 1069 400 1061 361 1069 b 125 911 243 1069 125 1038 b 146 588 125 831 146 667 b 75 483 146 542 147 494 z "},"":{"ha":418,"x_min":0,"x_max":0,"o":"m 343 483 b 272 588 271 494 272 542 b 293 911 272 667 293 831 b 86 1069 293 1038 175 1069 b 0 1053 57 1069 18 1061 l 0 1046 b 78 1057 28 1053 54 1057 b 182 903 158 1057 182 978 b 183 581 182 813 183 661 b 319 479 183 521 218 501 b 183 378 218 458 183 438 b 182 56 183 297 182 146 b 78 -99 182 -19 158 -99 b 0 -87 54 -99 28 -94 l 0 -94 b 86 -111 18 -103 57 -111 b 293 47 175 -111 293 -79 b 272 371 293 128 272 292 b 343 475 272 417 271 464 z "},"":{"ha":418,"x_min":0,"x_max":0,"o":"m 75 419 b 146 315 147 408 146 361 b 125 -8 146 236 125 72 b 332 -167 125 -135 243 -167 b 418 -150 361 -167 400 -158 l 418 -143 b 340 -154 390 -150 364 -154 b 236 0 260 -154 236 -75 b 235 322 236 90 235 242 b 99 424 235 382 200 401 b 235 525 200 444 235 465 b 236 847 235 606 236 757 b 340 1001 236 922 260 1001 b 418 990 364 1001 390 997 l 418 997 b 332 1014 400 1006 361 1014 b 125 856 243 1014 125 982 b 146 532 125 775 146 611 b 75 428 146 486 147 439 z "},"":{"ha":418,"x_min":0,"x_max":0,"o":"m 343 428 b 272 532 271 439 272 486 b 293 856 272 611 293 775 b 86 1014 293 982 175 1014 b 0 997 57 1014 18 1006 l 0 990 b 78 1001 28 997 54 1001 b 182 847 158 1001 182 922 b 183 525 182 757 183 606 b 319 424 183 465 218 446 b 183 322 218 403 183 382 b 182 0 183 242 182 90 b 78 -154 182 -75 158 -154 b 0 -143 54 -154 28 -150 l 0 -150 b 86 -167 18 -158 57 -167 b 293 -8 175 -167 293 -135 b 272 315 293 72 272 236 b 343 419 272 361 271 408 z "},"†":{"ha":647,"x_min":0,"x_max":0,"o":"m 325 1058 b 239 1000 301 1035 274 1014 b 315 814 275 957 299 906 b 139 879 228 824 183 851 b 69 806 119 851 97 826 b 139 735 99 785 122 761 b 315 797 183 758 226 786 l 239 7 b 325 -53 271 -7 299 -28 b 404 7 346 -28 374 -7 l 333 797 b 510 735 421 786 467 758 b 578 806 525 761 551 785 b 510 879 549 825 525 851 b 333 814 464 851 421 824 b 408 1000 349 906 372 954 b 325 1058 374 1014 346 1035 z "},"‡":{"ha":646,"x_min":0,"x_max":0,"o":"m 397 207 b 394 607 379 338 376 463 b 333 797 363 653 347 703 b 508 735 421 786 467 758 b 576 806 524 761 550 785 b 508 879 547 825 524 851 b 333 814 463 851 418 824 b 407 1000 347 906 371 953 b 324 1058 372 1014 346 1035 b 239 1000 300 1035 274 1014 b 315 814 274 957 299 906 b 138 879 228 824 183 851 b 69 806 119 851 97 826 b 138 735 99 785 122 761 b 315 797 182 758 225 786 b 249 607 299 701 285 653 b 251 207 272 471 272 326 b 313 17 283 161 299 111 b 138 79 225 28 179 56 b 69 8 122 53 96 29 b 138 -65 99 -11 122 -37 b 313 0 183 -37 228 -10 b 239 -186 299 -92 275 -139 b 322 -244 274 -200 300 -221 b 407 -186 346 -221 372 -200 b 331 0 372 -143 347 -92 b 508 -65 418 -10 463 -37 b 576 8 526 -37 549 -12 b 508 79 547 29 524 53 b 331 17 464 56 421 28 b 397 207 347 113 361 161 z "},"*":{"ha":615,"x_min":0,"x_max":0,"o":"m 546 882 b 469 933 518 894 490 910 b 317 817 439 892 396 858 b 379 1000 328 907 349 954 b 308 1057 350 1014 326 1033 b 236 1000 289 1033 265 1014 b 301 817 267 957 288 907 b 144 933 217 857 179 890 b 69 885 124 910 97 894 b 100 799 85 858 97 829 b 294 801 151 814 206 817 b 139 692 232 736 188 710 b 161 604 154 664 160 633 b 253 607 190 611 222 614 b 307 788 253 658 267 710 b 363 610 349 710 360 661 b 451 604 393 615 424 613 b 476 692 456 633 461 664 b 319 801 428 708 382 738 b 511 799 410 818 461 814 b 546 882 517 831 528 858 z "},"※":{"ha":1389,"x_min":0,"x_max":0,"o":"m 610 929 b 693 847 610 883 649 847 b 778 929 740 847 778 883 b 693 1014 778 976 740 1014 b 610 929 649 1014 610 976 z m 286 63 b 694 475 319 99 506 286 b 1103 63 883 286 1069 99 l 1132 92 b 719 500 1096 125 908 311 b 1132 908 908 689 1096 875 l 1103 938 b 694 525 1069 901 883 714 b 286 938 506 714 319 901 l 257 908 b 669 500 293 875 481 689 b 257 92 481 311 293 125 z m 208 499 b 292 417 208 453 247 417 b 376 499 339 417 376 453 b 292 583 376 546 339 583 b 208 499 247 583 208 546 z m 1013 499 b 1096 417 1013 453 1051 417 b 1181 499 1143 417 1181 453 b 1096 583 1181 546 1143 583 b 1013 499 1051 583 1013 546 z m 610 68 b 693 -14 610 22 649 -14 b 778 68 740 -14 778 22 b 693 153 778 115 740 153 b 610 68 649 153 610 115 z "},"⁜":{"ha":1389,"x_min":0,"x_max":0,"o":"m 208 929 b 292 847 208 883 247 847 b 376 929 339 847 376 883 b 292 1014 376 976 339 1014 b 208 929 247 1014 208 976 z m 1013 929 b 1096 847 1013 883 1051 847 b 1181 929 1143 847 1181 883 b 1096 1014 1181 976 1143 1014 b 1013 929 1051 1014 1013 976 z m 194 479 b 675 482 243 481 457 482 b 672 0 675 264 674 50 l 717 0 b 714 482 715 50 714 264 b 1194 479 932 482 1146 481 l 1194 521 b 714 518 1144 519 932 518 b 717 1000 714 738 715 951 l 672 1000 b 675 518 674 950 675 736 b 194 521 457 518 243 519 z m 208 68 b 292 -14 208 22 247 -14 b 376 68 339 -14 376 22 b 292 153 376 115 339 153 b 208 68 247 153 208 115 z m 1013 68 b 1096 -14 1013 22 1051 -14 b 1181 68 1143 -14 1181 22 b 1096 153 1181 115 1143 153 b 1013 68 1051 153 1013 115 z "},"⁚":{"ha":585,"x_min":0,"x_max":0,"o":"m 208 929 b 292 847 208 883 247 847 b 376 929 339 847 376 883 b 292 1014 376 976 339 1014 b 208 929 247 1014 208 976 z m 208 68 b 292 -14 208 22 247 -14 b 376 68 339 -14 376 22 b 292 153 376 115 339 153 b 208 68 247 153 208 115 z "},"⁖":{"ha":986,"x_min":0,"x_max":0,"o":"m 610 929 b 693 847 610 883 649 847 b 778 929 740 847 778 883 b 693 1014 778 976 740 1014 b 610 929 649 1014 610 976 z m 208 499 b 292 417 208 453 247 417 b 376 499 339 417 376 453 b 292 583 376 546 339 583 b 208 499 247 583 208 546 z m 610 68 b 693 -14 610 22 649 -14 b 778 68 740 -14 778 22 b 693 153 778 115 740 153 b 610 68 649 153 610 115 z "},"⁘":{"ha":1389,"x_min":0,"x_max":0,"o":"m 610 929 b 693 847 610 883 649 847 b 778 929 740 847 778 883 b 693 1014 778 976 740 1014 b 610 929 649 1014 610 976 z m 208 499 b 292 417 208 453 247 417 b 376 499 339 417 376 453 b 292 583 376 546 339 583 b 208 499 247 583 208 546 z m 1013 499 b 1096 417 1013 453 1051 417 b 1181 499 1143 417 1181 453 b 1096 583 1181 546 1143 583 b 1013 499 1051 583 1013 546 z m 610 68 b 693 -14 610 22 649 -14 b 778 68 740 -14 778 22 b 693 153 778 115 740 153 b 610 68 649 153 610 115 z "},"⁙":{"ha":1389,"x_min":0,"x_max":0,"o":"m 208 929 b 292 847 208 883 247 847 b 376 929 339 847 376 883 b 292 1014 376 976 339 1014 b 208 929 247 1014 208 976 z m 1013 929 b 1096 847 1013 883 1051 847 b 1181 929 1143 847 1181 883 b 1096 1014 1181 976 1143 1014 b 1013 929 1051 1014 1013 976 z m 610 499 b 693 417 610 453 649 417 b 778 499 740 417 778 453 b 693 583 778 546 740 583 b 610 499 649 583 610 546 z m 208 68 b 292 -14 208 22 247 -14 b 376 68 339 -14 376 22 b 292 153 376 115 339 153 b 208 68 247 153 208 115 z m 1013 68 b 1096 -14 1013 22 1051 -14 b 1181 68 1143 -14 1181 22 b 1096 153 1181 115 1143 153 b 1013 68 1051 153 1013 115 z "},"⁝":{"ha":585,"x_min":0,"x_max":0,"o":"m 208 929 b 292 847 208 883 247 847 b 376 929 339 847 376 883 b 292 1014 376 976 339 1014 b 208 929 247 1014 208 976 z m 208 499 b 292 417 208 453 247 417 b 376 499 339 417 376 453 b 292 583 376 546 339 583 b 208 499 247 583 208 546 z m 208 68 b 292 -14 208 22 247 -14 b 376 68 339 -14 376 22 b 292 153 376 115 339 153 b 208 68 247 153 208 115 z "},"⁞":{"ha":585,"x_min":0,"x_max":0,"o":"m 208 929 b 292 847 208 883 247 847 b 376 929 339 847 376 883 b 292 1014 376 976 339 1014 b 208 929 247 1014 208 976 z m 208 642 b 292 560 208 596 247 560 b 376 642 339 560 376 596 b 292 726 376 689 339 726 b 208 642 247 726 208 689 z m 208 356 b 292 274 208 310 247 274 b 376 356 339 274 376 310 b 292 440 376 403 339 440 b 208 356 247 440 208 403 z m 208 68 b 292 -14 208 22 247 -14 b 376 68 339 -14 376 22 b 292 153 376 115 339 153 b 208 68 247 153 208 115 z "},"ª":{"ha":607,"x_min":0,"x_max":0,"o":"m 596 504 l 596 510 b 503 633 544 522 503 550 l 503 792 b 308 1014 503 936 439 1014 b 96 799 179 1014 96 915 l 111 799 b 269 935 125 879 178 935 b 407 767 364 935 407 894 l 325 767 b 72 606 151 767 72 708 b 235 450 72 504 144 450 b 411 576 315 450 375 518 l 418 574 l 421 450 l 426 447 z m 407 608 b 264 536 364 560 319 536 b 174 622 211 536 174 568 b 317 728 174 686 224 715 l 407 740 z m 93 278 b 526 278 132 279 488 279 l 526 319 b 93 319 488 318 132 318 z "},"º":{"ha":607,"x_min":0,"x_max":0,"o":"m 296 449 b 513 732 429 449 513 561 b 296 1014 513 903 429 1014 b 79 732 161 1014 79 903 b 296 449 79 561 161 449 z m 296 553 b 124 732 188 553 124 622 b 296 911 124 842 188 911 b 468 732 403 911 468 842 b 296 553 468 622 403 553 z m 93 278 b 526 278 132 279 488 279 l 526 319 b 93 319 488 318 132 318 z "},"№":{"ha":1721,"x_min":0,"x_max":0,"o":"m 1410 449 b 1626 732 1543 449 1626 561 b 1410 1014 1626 903 1543 1014 b 1193 732 1275 1014 1193 903 b 1410 449 1193 561 1275 449 z m 1410 553 b 1238 732 1301 553 1238 622 b 1410 911 1238 842 1301 911 b 1582 732 1517 911 1582 842 b 1410 553 1582 622 1517 553 z m 856 -28 l 868 -28 l 868 361 b 881 782 868 540 874 679 l 1051 854 l 1051 861 l 639 861 l 639 854 l 813 781 b 826 361 821 678 826 539 l 826 179 l 240 861 l 0 861 l 0 854 b 211 713 67 854 131 804 l 211 500 b 199 79 211 321 206 182 l 28 7 l 28 0 l 440 0 l 440 7 l 267 81 b 253 500 258 183 253 322 l 253 665 z m 1207 278 b 1640 278 1246 279 1601 279 l 1640 319 b 1207 319 1601 318 1246 318 z "},"§":{"ha":914,"x_min":0,"x_max":0,"o":"m 786 -31 b 763 100 786 22 778 65 b 831 294 806 147 831 213 b 176 735 831 733 176 435 b 439 904 176 839 300 904 b 749 626 582 904 749 842 l 760 626 l 760 910 b 453 1014 706 964 596 1014 b 128 725 282 1014 128 901 b 150 596 128 672 136 631 b 83 400 108 546 83 481 b 738 -40 83 -39 738 260 b 475 -210 738 -144 614 -210 b 165 68 332 -210 165 -147 l 154 68 l 154 -215 b 461 -319 208 -269 318 -319 b 786 -31 632 -319 786 -207 z m 135 422 b 190 533 135 468 154 506 b 779 272 353 357 779 521 b 724 161 779 226 760 189 b 135 422 561 338 135 174 z "},"¶":{"ha":997,"x_min":0,"x_max":0,"o":"m 560 -306 l 560 500 b 574 958 560 678 565 856 l 739 958 l 739 500 b 726 -306 739 321 733 -203 l 782 -306 l 782 500 b 796 919 782 678 788 817 l 969 993 l 969 1000 l 426 1000 b 69 735 214 1000 69 908 b 426 453 69 549 214 453 l 517 453 b 504 -226 515 253 511 -132 l 236 -299 l 236 -306 z "},"®":{"ha":674,"x_min":0,"x_max":0,"o":"m 338 472 b 604 743 492 472 604 596 b 338 1014 604 893 492 1014 b 69 743 182 1014 69 893 b 338 472 69 596 182 472 z m 338 972 b 563 743 468 972 563 868 b 338 514 563 618 468 514 b 111 743 207 514 111 618 b 338 972 111 868 207 972 z m 350 608 l 350 615 l 304 635 b 300 742 301 661 300 693 l 415 608 l 513 608 l 513 615 b 446 661 500 615 479 625 l 371 742 b 472 811 431 744 472 774 b 360 879 472 856 426 879 l 188 879 l 188 872 l 236 851 b 239 746 238 825 239 790 b 236 635 239 700 238 663 l 188 615 l 188 608 z m 356 763 l 300 763 l 300 854 l 356 854 b 404 811 389 854 404 835 b 356 763 404 788 388 763 z "},"©":{"ha":1153,"x_min":0,"x_max":0,"o":"m 576 -14 b 1083 500 869 -14 1083 219 b 576 1014 1083 783 869 1014 b 69 500 283 1014 69 783 b 576 -14 69 219 283 -14 z m 576 958 b 1028 500 838 958 1028 751 b 576 42 1028 247 838 42 b 125 500 315 42 125 247 b 576 958 125 751 315 958 z m 583 321 b 383 500 457 321 383 390 b 583 679 383 610 457 679 b 750 528 647 679 750 654 l 765 528 l 765 725 b 583 782 736 753 664 782 b 339 500 432 782 339 671 b 575 217 339 329 433 217 b 806 421 700 215 779 299 l 793 425 b 583 321 771 349 678 317 z "},"℗":{"ha":1153,"x_min":0,"x_max":0,"o":"m 576 -14 b 1083 500 869 -14 1083 219 b 576 1014 1083 783 869 1014 b 69 500 283 1014 69 783 b 576 -14 69 219 283 -14 z m 576 958 b 1028 500 838 958 1028 751 b 576 42 1028 247 838 42 b 125 500 315 42 125 247 b 576 958 125 751 315 958 z m 647 229 l 647 238 l 528 276 b 521 433 525 319 522 368 l 631 433 b 850 608 763 433 850 507 b 631 771 850 715 763 771 l 324 771 l 324 763 l 419 722 b 426 506 424 669 426 597 b 419 278 426 410 424 332 l 324 238 l 324 229 z m 622 469 l 521 469 b 521 500 521 479 521 489 l 521 735 l 622 735 b 743 608 699 735 743 679 b 622 469 743 539 699 469 z "},"℠":{"ha":1463,"x_min":0,"x_max":0,"o":"m 299 444 b 504 615 419 444 504 504 b 143 860 504 879 143 707 b 288 932 143 904 211 932 b 460 799 367 932 460 901 l 465 799 l 465 956 b 296 1014 436 986 375 1014 b 117 854 201 1014 117 951 b 476 603 117 574 476 760 b 304 526 476 553 407 526 b 118 668 200 526 118 571 l 111 668 l 111 511 b 299 444 146 478 211 444 z m 1086 458 l 1385 458 l 1385 465 l 1290 504 b 1283 736 1288 560 1283 638 l 1286 933 b 1393 988 1315 975 1346 988 l 1393 1000 l 1192 1000 l 1007 582 l 797 1000 l 615 1000 l 615 988 b 721 928 660 988 692 971 l 721 736 b 710 504 721 638 713 561 l 613 465 l 613 458 l 857 458 l 857 465 l 765 506 b 754 736 760 563 754 639 l 754 868 l 967 443 l 982 443 l 1190 869 l 1190 736 b 1182 506 1190 639 1186 561 l 1086 465 z "},"™":{"ha":1463,"x_min":0,"x_max":0,"o":"m 119 458 l 469 458 l 469 465 l 351 507 b 344 736 349 563 344 638 l 344 974 l 386 974 b 529 822 485 974 519 918 l 547 822 l 547 1000 l 42 1000 l 42 822 l 58 822 b 201 974 69 918 103 974 l 246 974 l 246 736 b 238 508 246 639 242 564 l 119 465 z m 1086 458 l 1385 458 l 1385 465 l 1290 504 b 1283 736 1288 560 1283 638 l 1286 933 b 1393 988 1315 975 1346 988 l 1393 1000 l 1192 1000 l 1007 582 l 797 1000 l 615 1000 l 615 988 b 721 928 660 988 692 971 l 721 736 b 710 504 721 638 713 561 l 613 465 l 613 458 l 857 458 l 857 465 l 765 506 b 754 736 760 563 754 639 l 754 868 l 967 443 l 982 443 l 1190 869 l 1190 736 b 1182 506 1190 639 1186 561 l 1086 465 z "},"Á":{"ha":1140,"x_min":0,"x_max":0,"o":"m 681 1208 l 338 1079 l 340 1069 l 710 1114 b 681 1208 719 1156 714 1178 z m 440 6 l 219 78 l 308 317 l 753 317 b 867 75 793 235 833 151 l 685 6 l 685 0 l 1140 0 l 1140 6 l 1010 79 b 789 479 935 188 854 350 l 525 1000 l 322 1000 l 322 993 b 471 874 381 993 431 954 l 485 846 l 138 81 l 0 6 l 0 0 l 440 0 z m 699 424 b 711 400 703 415 707 408 l 340 400 l 497 821 z "},"À":{"ha":1140,"x_min":0,"x_max":0,"o":"m 333 1208 b 304 1114 300 1178 294 1156 l 674 1069 l 676 1079 z m 440 6 l 219 78 l 308 317 l 753 317 b 867 75 793 235 833 151 l 685 6 l 685 0 l 1140 0 l 1140 6 l 1010 79 b 789 479 935 188 854 350 l 525 1000 l 322 1000 l 322 993 b 471 874 381 993 431 954 l 485 846 l 138 81 l 0 6 l 0 0 l 440 0 z m 699 424 b 711 400 703 415 707 408 l 340 400 l 497 821 z "},"Â":{"ha":1140,"x_min":0,"x_max":0,"o":"m 718 1056 l 722 1064 l 507 1213 l 292 1064 l 296 1056 l 507 1114 z m 440 6 l 219 78 l 308 317 l 753 317 b 867 75 793 235 833 151 l 685 6 l 685 0 l 1140 0 l 1140 6 l 1010 79 b 789 479 935 188 854 350 l 525 1000 l 322 1000 l 322 993 b 471 874 381 993 431 954 l 485 846 l 138 81 l 0 6 l 0 0 l 440 0 z m 699 424 b 711 400 703 415 707 408 l 340 400 l 497 821 z "},"Ä":{"ha":1140,"x_min":0,"x_max":0,"o":"m 299 1128 b 371 1056 299 1088 333 1056 b 446 1128 414 1056 446 1088 b 371 1201 446 1168 414 1201 b 299 1128 333 1201 299 1168 z m 568 1128 b 640 1056 568 1088 603 1056 b 715 1128 683 1056 715 1088 b 640 1201 715 1168 683 1201 b 568 1128 603 1201 568 1168 z m 440 6 l 219 78 l 308 317 l 753 317 b 867 75 793 235 833 151 l 685 6 l 685 0 l 1140 0 l 1140 6 l 1010 79 b 789 479 935 188 854 350 l 525 1000 l 322 1000 l 322 993 b 471 874 381 993 431 954 l 485 846 l 138 81 l 0 6 l 0 0 l 440 0 z m 699 424 b 711 400 703 415 707 408 l 340 400 l 497 821 z "},"Ã":{"ha":1140,"x_min":0,"x_max":0,"o":"m 388 1142 b 604 1063 456 1142 525 1063 b 694 1183 656 1063 694 1094 l 694 1204 l 681 1204 l 681 1186 b 625 1136 681 1154 664 1136 b 408 1215 556 1136 488 1215 b 319 1094 357 1215 319 1185 l 319 1074 l 333 1074 l 333 1092 b 388 1142 333 1124 350 1142 z m 440 6 l 219 78 l 308 317 l 753 317 b 867 75 793 235 833 151 l 685 6 l 685 0 l 1140 0 l 1140 6 l 1010 79 b 789 479 935 188 854 350 l 525 1000 l 322 1000 l 322 993 b 471 874 381 993 431 954 l 485 846 l 138 81 l 0 6 l 0 0 l 440 0 z m 699 424 b 711 400 703 415 707 408 l 340 400 l 497 821 z "},"Ā":{"ha":1140,"x_min":0,"x_max":0,"o":"m 701 1083 l 701 1165 l 313 1165 l 313 1083 z m 440 6 l 219 78 l 308 317 l 753 317 b 867 75 793 235 833 151 l 685 6 l 685 0 l 1140 0 l 1140 6 l 1010 79 b 789 479 935 188 854 350 l 525 1000 l 322 1000 l 322 993 b 471 874 381 993 431 954 l 485 846 l 138 81 l 0 6 l 0 0 l 440 0 z m 699 424 b 711 400 703 415 707 408 l 340 400 l 497 821 z "},"Ă":{"ha":1140,"x_min":0,"x_max":0,"o":"m 321 1213 b 507 1054 336 1128 388 1054 b 693 1213 638 1054 678 1128 l 679 1213 b 507 1131 664 1169 610 1131 b 335 1213 418 1131 350 1169 z m 440 6 l 219 78 l 308 317 l 753 317 b 867 75 793 235 833 151 l 685 6 l 685 0 l 1140 0 l 1140 6 l 1010 79 b 789 479 935 188 854 350 l 525 1000 l 322 1000 l 322 993 b 471 874 381 993 431 954 l 485 846 l 138 81 l 0 6 l 0 0 l 440 0 z m 699 424 b 711 400 703 415 707 408 l 340 400 l 497 821 z "},"Å":{"ha":1140,"x_min":0,"x_max":0,"o":"m 365 1142 b 507 1056 365 1093 417 1056 b 651 1142 608 1056 651 1093 b 507 1229 651 1189 607 1229 b 365 1142 415 1229 365 1189 z m 449 1142 b 507 1201 449 1174 471 1201 b 568 1142 549 1201 568 1174 b 507 1083 568 1108 549 1083 b 449 1142 471 1083 449 1108 z m 440 6 l 219 78 l 308 317 l 753 317 b 867 75 793 235 833 151 l 685 6 l 685 0 l 1140 0 l 1140 6 l 1010 79 b 789 479 935 188 854 350 l 525 1000 l 322 1000 l 322 993 b 471 874 381 993 431 954 l 485 846 l 138 81 l 0 6 l 0 0 l 440 0 z m 699 424 b 711 400 703 415 707 408 l 340 400 l 497 821 z "},"Ǻ":{"ha":1140,"x_min":0,"x_max":0,"o":"m 681 1403 l 338 1274 l 340 1264 l 710 1308 b 681 1403 719 1350 714 1372 z m 365 1142 b 507 1056 365 1093 417 1056 b 651 1142 608 1056 651 1093 b 507 1229 651 1189 607 1229 b 365 1142 415 1229 365 1189 z m 449 1142 b 507 1201 449 1174 471 1201 b 568 1142 549 1201 568 1174 b 507 1083 568 1108 549 1083 b 449 1142 471 1083 449 1108 z m 440 6 l 219 78 l 308 317 l 753 317 b 867 75 793 235 833 151 l 685 6 l 685 0 l 1140 0 l 1140 6 l 1010 79 b 789 479 935 188 854 350 l 525 1000 l 322 1000 l 322 993 b 471 874 381 993 431 954 l 485 846 l 138 81 l 0 6 l 0 0 l 440 0 z m 699 424 b 711 400 703 415 707 408 l 340 400 l 497 821 z "},"Ą":{"ha":1140,"x_min":0,"x_max":0,"o":"m 931 0 b 824 -183 871 -61 824 -121 b 928 -268 824 -235 868 -268 b 1072 -186 972 -268 1021 -243 l 1064 -176 b 971 -211 1032 -201 1007 -211 b 893 -143 926 -211 893 -186 b 968 0 893 -94 924 -51 l 1140 0 l 1140 6 l 1010 79 b 789 479 935 188 854 350 l 525 1000 l 322 1000 l 322 993 b 471 874 381 993 431 954 l 485 846 l 138 81 l 0 6 l 0 0 l 440 0 l 440 6 l 219 78 l 308 317 l 753 317 b 867 75 793 235 833 151 l 685 6 l 685 0 z m 699 424 b 711 400 703 415 707 408 l 340 400 l 497 821 z "},"Æ":{"ha":1524,"x_min":0,"x_max":0,"o":"m 588 0 l 1438 0 l 1469 325 l 1457 325 b 1158 42 1415 118 1318 42 l 896 42 l 896 481 l 1106 481 l 1200 254 l 1211 254 l 1211 749 l 1200 749 l 1106 522 l 896 522 l 896 958 l 1132 958 b 1392 713 1311 958 1375 869 l 1404 713 l 1404 1000 l 588 1000 l 588 993 l 742 928 l 124 81 l -14 6 l -14 0 l 426 0 l 426 6 l 206 78 l 364 317 l 772 317 b 761 81 771 222 767 144 l 588 7 z m 761 919 b 775 500 769 817 775 678 b 775 400 775 465 775 432 l 418 400 z "},"Ǽ":{"ha":1524,"x_min":0,"x_max":0,"o":"m 1010 1208 l 667 1079 l 669 1069 l 1039 1114 b 1010 1208 1049 1156 1043 1178 z m 588 0 l 1438 0 l 1469 325 l 1457 325 b 1158 42 1415 118 1318 42 l 896 42 l 896 481 l 1106 481 l 1200 254 l 1211 254 l 1211 749 l 1200 749 l 1106 522 l 896 522 l 896 958 l 1132 958 b 1392 713 1311 958 1375 869 l 1404 713 l 1404 1000 l 588 1000 l 588 993 l 742 928 l 124 81 l -14 6 l -14 0 l 426 0 l 426 6 l 206 78 l 364 317 l 772 317 b 761 81 771 222 767 144 l 588 7 z m 761 919 b 775 500 769 817 775 678 b 775 400 775 465 775 432 l 418 400 z "},"Ć":{"ha":1004,"x_min":0,"x_max":0,"o":"m 710 1208 l 367 1079 l 369 1069 l 739 1114 b 710 1208 749 1156 743 1178 z m 536 111 b 125 507 301 111 125 265 b 515 897 125 749 289 897 b 851 583 701 897 851 799 l 863 583 l 863 894 b 536 1014 803 954 689 1014 b 69 507 265 1014 69 815 b 529 -14 69 193 267 -14 b 969 386 781 -14 933 149 l 960 388 b 536 111 915 213 779 111 z "},"Ĉ":{"ha":1004,"x_min":0,"x_max":0,"o":"m 747 1056 l 751 1064 l 536 1213 l 321 1064 l 325 1056 l 536 1114 z m 536 111 b 125 507 301 111 125 265 b 515 897 125 749 289 897 b 851 583 701 897 851 799 l 863 583 l 863 894 b 536 1014 803 954 689 1014 b 69 507 265 1014 69 815 b 529 -14 69 193 267 -14 b 969 386 781 -14 933 149 l 960 388 b 536 111 915 213 779 111 z "},"Č":{"ha":1004,"x_min":0,"x_max":0,"o":"m 325 1213 l 321 1204 l 536 1056 l 751 1204 l 747 1213 l 536 1154 z m 536 111 b 125 507 301 111 125 265 b 515 897 125 749 289 897 b 851 583 701 897 851 799 l 863 583 l 863 894 b 536 1014 803 954 689 1014 b 69 507 265 1014 69 815 b 529 -14 69 193 267 -14 b 969 386 781 -14 933 149 l 960 388 b 536 111 915 213 779 111 z "},"Ċ":{"ha":1004,"x_min":0,"x_max":0,"o":"m 464 1128 b 536 1056 464 1088 499 1056 b 611 1128 579 1056 611 1088 b 536 1201 611 1168 579 1201 b 464 1128 499 1201 464 1168 z m 536 111 b 125 507 301 111 125 265 b 515 897 125 749 289 897 b 851 583 701 897 851 799 l 863 583 l 863 894 b 536 1014 803 954 689 1014 b 69 507 265 1014 69 815 b 529 -14 69 193 267 -14 b 969 386 781 -14 933 149 l 960 388 b 536 111 915 213 779 111 z "},"Ç":{"ha":1004,"x_min":0,"x_max":0,"o":"m 536 111 b 125 507 301 111 125 265 b 515 897 125 749 289 897 b 851 583 701 897 851 799 l 863 583 l 863 894 b 536 1014 803 954 689 1014 b 69 507 265 1014 69 815 b 511 -14 69 200 257 -4 l 451 -124 l 458 -129 b 510 -125 476 -128 489 -125 b 567 -169 542 -125 567 -143 b 499 -218 567 -211 529 -218 b 417 -199 474 -218 443 -210 l 411 -208 b 540 -268 446 -237 492 -268 b 664 -176 604 -268 664 -240 b 558 -87 664 -107 617 -87 l 540 -87 l 540 -14 b 969 386 785 -10 933 153 l 960 388 b 536 111 915 213 779 111 z "},"Ď":{"ha":1111,"x_min":0,"x_max":0,"o":"m 286 1213 l 282 1204 l 497 1056 l 713 1204 l 708 1213 l 497 1154 z m 28 0 l 533 0 b 1042 500 829 0 1042 188 b 533 1000 1042 810 829 1000 l 28 1000 l 28 993 l 201 919 b 215 500 210 817 215 678 b 201 81 215 322 210 182 l 28 7 z m 497 958 b 913 500 771 958 913 761 b 497 42 913 239 771 42 l 336 42 l 336 958 z "},"Đ":{"ha":1111,"x_min":0,"x_max":0,"o":"m 28 0 l 533 0 b 1042 500 829 0 1042 188 b 533 1000 1042 810 829 1000 l 28 1000 l 28 993 l 201 919 b 215 519 210 821 215 689 b 28 521 124 519 47 521 l 28 479 b 215 481 47 479 124 481 b 201 81 215 311 210 178 l 28 7 z m 583 479 l 583 521 b 336 519 560 521 451 519 l 336 958 l 497 958 b 913 500 771 958 913 761 b 497 42 913 239 771 42 l 336 42 l 336 481 b 583 479 451 481 560 479 z "},"Ð":{"ha":1111,"x_min":0,"x_max":0,"o":"m 28 0 l 533 0 b 1042 500 829 0 1042 188 b 533 1000 1042 810 829 1000 l 28 1000 l 28 993 l 201 919 b 215 519 210 821 215 689 b 28 521 124 519 47 521 l 28 479 b 215 481 47 479 124 481 b 201 81 215 311 210 178 l 28 7 z m 583 479 l 583 521 b 336 519 560 521 451 519 l 336 958 l 497 958 b 913 500 771 958 913 761 b 497 42 913 239 771 42 l 336 42 l 336 481 b 583 479 451 481 560 479 z "},"É":{"ha":964,"x_min":0,"x_max":0,"o":"m 679 1208 l 336 1079 l 339 1069 l 708 1114 b 679 1208 718 1156 713 1178 z m 28 0 l 878 0 l 910 325 l 897 325 b 599 42 856 118 758 42 l 336 42 l 336 481 l 546 481 l 640 254 l 651 254 l 651 749 l 640 749 l 546 522 l 336 522 l 336 958 l 572 958 b 832 713 751 958 815 869 l 844 713 l 844 1000 l 28 1000 l 28 993 l 201 919 b 215 500 210 817 215 678 b 201 81 215 322 210 182 l 28 7 z "},"È":{"ha":964,"x_min":0,"x_max":0,"o":"m 332 1208 b 303 1114 299 1178 293 1156 l 672 1069 l 675 1079 z m 28 0 l 878 0 l 910 325 l 897 325 b 599 42 856 118 758 42 l 336 42 l 336 481 l 546 481 l 640 254 l 651 254 l 651 749 l 640 749 l 546 522 l 336 522 l 336 958 l 572 958 b 832 713 751 958 815 869 l 844 713 l 844 1000 l 28 1000 l 28 993 l 201 919 b 215 500 210 817 215 678 b 201 81 215 322 210 182 l 28 7 z "},"Ê":{"ha":964,"x_min":0,"x_max":0,"o":"m 717 1056 l 721 1064 l 506 1213 l 290 1064 l 294 1056 l 506 1114 z m 28 0 l 878 0 l 910 325 l 897 325 b 599 42 856 118 758 42 l 336 42 l 336 481 l 546 481 l 640 254 l 651 254 l 651 749 l 640 749 l 546 522 l 336 522 l 336 958 l 572 958 b 832 713 751 958 815 869 l 844 713 l 844 1000 l 28 1000 l 28 993 l 201 919 b 215 500 210 817 215 678 b 201 81 215 322 210 182 l 28 7 z "},"Ě":{"ha":964,"x_min":0,"x_max":0,"o":"m 294 1213 l 290 1204 l 506 1056 l 721 1204 l 717 1213 l 506 1154 z m 28 0 l 878 0 l 910 325 l 897 325 b 599 42 856 118 758 42 l 336 42 l 336 481 l 546 481 l 640 254 l 651 254 l 651 749 l 640 749 l 546 522 l 336 522 l 336 958 l 572 958 b 832 713 751 958 815 869 l 844 713 l 844 1000 l 28 1000 l 28 993 l 201 919 b 215 500 210 817 215 678 b 201 81 215 322 210 182 l 28 7 z "},"Ë":{"ha":964,"x_min":0,"x_max":0,"o":"m 297 1128 b 369 1056 297 1088 332 1056 b 444 1128 413 1056 444 1088 b 369 1201 444 1168 413 1201 b 297 1128 332 1201 297 1168 z m 567 1128 b 639 1056 567 1088 601 1056 b 714 1128 682 1056 714 1088 b 639 1201 714 1168 682 1201 b 567 1128 601 1201 567 1168 z m 28 0 l 878 0 l 910 325 l 897 325 b 599 42 856 118 758 42 l 336 42 l 336 481 l 546 481 l 640 254 l 651 254 l 651 749 l 640 749 l 546 522 l 336 522 l 336 958 l 572 958 b 832 713 751 958 815 869 l 844 713 l 844 1000 l 28 1000 l 28 993 l 201 919 b 215 500 210 817 215 678 b 201 81 215 322 210 182 l 28 7 z "},"Ė":{"ha":964,"x_min":0,"x_max":0,"o":"m 433 1128 b 506 1056 433 1088 468 1056 b 581 1128 549 1056 581 1088 b 506 1201 581 1168 549 1201 b 433 1128 468 1201 433 1168 z m 28 0 l 878 0 l 910 325 l 897 325 b 599 42 856 118 758 42 l 336 42 l 336 481 l 546 481 l 640 254 l 651 254 l 651 749 l 640 749 l 546 522 l 336 522 l 336 958 l 572 958 b 832 713 751 958 815 869 l 844 713 l 844 1000 l 28 1000 l 28 993 l 201 919 b 215 500 210 817 215 678 b 201 81 215 322 210 182 l 28 7 z "},"Ē":{"ha":964,"x_min":0,"x_max":0,"o":"m 700 1083 l 700 1165 l 311 1165 l 311 1083 z m 28 0 l 878 0 l 910 325 l 897 325 b 599 42 856 118 758 42 l 336 42 l 336 481 l 546 481 l 640 254 l 651 254 l 651 749 l 640 749 l 546 522 l 336 522 l 336 958 l 572 958 b 832 713 751 958 815 869 l 844 713 l 844 1000 l 28 1000 l 28 993 l 201 919 b 215 500 210 817 215 678 b 201 81 215 322 210 182 l 28 7 z "},"Ĕ":{"ha":964,"x_min":0,"x_max":0,"o":"m 319 1213 b 506 1054 335 1128 386 1054 b 692 1213 636 1054 676 1128 l 678 1213 b 506 1131 663 1169 608 1131 b 333 1213 417 1131 349 1169 z m 28 0 l 878 0 l 910 325 l 897 325 b 599 42 856 118 758 42 l 336 42 l 336 481 l 546 481 l 640 254 l 651 254 l 651 749 l 640 749 l 546 522 l 336 522 l 336 958 l 572 958 b 832 713 751 958 815 869 l 844 713 l 844 1000 l 28 1000 l 28 993 l 201 919 b 215 500 210 817 215 678 b 201 81 215 322 210 182 l 28 7 z "},"Ę":{"ha":964,"x_min":0,"x_max":0,"o":"m 28 0 l 718 0 b 611 -183 658 -61 611 -121 b 715 -268 611 -235 656 -268 b 860 -186 760 -268 808 -243 l 851 -176 b 758 -211 819 -201 794 -211 b 681 -143 714 -211 681 -186 b 756 0 681 -94 711 -51 l 878 0 l 910 325 l 897 325 b 599 42 856 118 758 42 l 336 42 l 336 481 l 546 481 l 640 254 l 651 254 l 651 749 l 640 749 l 546 522 l 336 522 l 336 958 l 572 958 b 832 713 751 958 815 869 l 844 713 l 844 1000 l 28 1000 l 28 993 l 201 919 b 215 500 210 817 215 678 b 201 81 215 322 210 182 l 28 7 z "},"Ĝ":{"ha":1015,"x_min":0,"x_max":0,"o":"m 747 1056 l 751 1064 l 536 1213 l 321 1064 l 325 1056 l 536 1114 z m 926 411 b 536 111 903 233 760 111 b 125 507 301 111 125 265 b 515 897 125 749 289 897 b 851 583 701 897 851 799 l 863 583 l 863 899 b 536 1014 814 949 707 1014 b 69 507 265 1014 69 815 b 529 -14 69 193 267 -14 b 967 467 800 -14 967 194 l 967 508 l 500 508 l 413 411 z "},"Ğ":{"ha":1015,"x_min":0,"x_max":0,"o":"m 350 1213 b 536 1054 365 1128 417 1054 b 722 1213 667 1054 707 1128 l 708 1213 b 536 1131 693 1169 639 1131 b 364 1213 447 1131 379 1169 z m 926 411 b 536 111 903 233 760 111 b 125 507 301 111 125 265 b 515 897 125 749 289 897 b 851 583 701 897 851 799 l 863 583 l 863 899 b 536 1014 814 949 707 1014 b 69 507 265 1014 69 815 b 529 -14 69 193 267 -14 b 967 467 800 -14 967 194 l 967 508 l 500 508 l 413 411 z "},"Ġ":{"ha":1015,"x_min":0,"x_max":0,"o":"m 464 1128 b 536 1056 464 1088 499 1056 b 611 1128 579 1056 611 1088 b 536 1201 611 1168 579 1201 b 464 1128 499 1201 464 1168 z m 926 411 b 536 111 903 233 760 111 b 125 507 301 111 125 265 b 515 897 125 749 289 897 b 851 583 701 897 851 799 l 863 583 l 863 899 b 536 1014 814 949 707 1014 b 69 507 265 1014 69 815 b 529 -14 69 193 267 -14 b 967 467 800 -14 967 194 l 967 508 l 500 508 l 413 411 z "},"Ģ":{"ha":1015,"x_min":0,"x_max":0,"o":"m 926 411 b 536 111 903 233 760 111 b 125 507 301 111 125 265 b 515 897 125 749 289 897 b 851 583 701 897 851 799 l 863 583 l 863 899 b 536 1014 814 949 707 1014 b 69 507 265 1014 69 815 b 529 -14 69 193 267 -14 b 967 467 800 -14 967 194 l 967 508 l 500 508 l 413 411 z m 483 -74 l 483 -306 l 496 -307 l 585 -92 b 483 -74 554 -64 526 -58 z "},"Ĥ":{"ha":1283,"x_min":0,"x_max":0,"o":"m 853 1056 l 857 1064 l 642 1213 l 426 1064 l 431 1056 l 642 1114 z m 28 0 l 519 0 l 519 7 l 349 79 b 336 500 342 181 336 321 l 336 506 l 951 506 l 951 500 b 938 81 951 322 946 182 l 764 7 l 764 0 l 1256 0 l 1256 7 l 1085 79 b 1072 500 1078 181 1072 321 b 1085 921 1072 679 1078 818 l 1256 993 l 1256 1000 l 764 1000 l 764 993 l 938 919 b 951 547 944 826 950 703 l 336 547 b 349 921 338 704 342 828 l 519 993 l 519 1000 l 28 1000 l 28 993 l 201 919 b 215 500 210 817 215 678 b 201 81 215 322 210 182 l 28 7 z "},"Ħ":{"ha":1283,"x_min":0,"x_max":0,"o":"m 28 0 l 519 0 l 519 7 l 349 79 b 336 500 342 181 336 321 l 336 506 l 951 506 l 951 500 b 938 81 951 322 946 182 l 764 7 l 764 0 l 1256 0 l 1256 7 l 1085 79 b 1072 500 1078 181 1072 321 b 1076 747 1072 593 1074 675 l 1256 747 l 1256 789 l 1078 789 b 1085 921 1079 838 1082 882 l 1256 993 l 1256 1000 l 764 1000 l 764 993 l 938 919 b 946 789 940 881 943 838 l 342 789 b 349 921 343 838 346 882 l 519 993 l 519 1000 l 28 1000 l 28 993 l 201 919 b 210 789 204 881 207 838 l 28 789 l 28 747 l 211 747 b 215 500 214 675 215 593 b 201 81 215 322 210 182 l 28 7 z m 336 547 b 340 747 336 621 338 688 l 947 747 b 951 547 950 688 951 621 z "},"Í":{"ha":547,"x_min":0,"x_max":0,"o":"m 447 1208 l 104 1079 l 107 1069 l 476 1114 b 447 1208 486 1156 481 1178 z m 28 0 l 519 0 l 519 7 l 349 79 b 336 500 342 181 336 321 b 349 921 336 679 342 818 l 519 993 l 519 1000 l 28 1000 l 28 993 l 201 919 b 215 500 210 817 215 678 b 201 81 215 322 210 182 l 28 7 z "},"Ì":{"ha":547,"x_min":0,"x_max":0,"o":"m 100 1208 b 71 1114 67 1178 61 1156 l 440 1069 l 443 1079 z m 28 0 l 519 0 l 519 7 l 349 79 b 336 500 342 181 336 321 b 349 921 336 679 342 818 l 519 993 l 519 1000 l 28 1000 l 28 993 l 201 919 b 215 500 210 817 215 678 b 201 81 215 322 210 182 l 28 7 z "},"Î":{"ha":547,"x_min":0,"x_max":0,"o":"m 485 1056 l 489 1064 l 274 1213 l 58 1064 l 63 1056 l 274 1114 z m 28 0 l 519 0 l 519 7 l 349 79 b 336 500 342 181 336 321 b 349 921 336 679 342 818 l 519 993 l 519 1000 l 28 1000 l 28 993 l 201 919 b 215 500 210 817 215 678 b 201 81 215 322 210 182 l 28 7 z "},"Ï":{"ha":547,"x_min":0,"x_max":0,"o":"m 65 1128 b 138 1056 65 1088 100 1056 b 213 1128 181 1056 213 1088 b 138 1201 213 1168 181 1201 b 65 1128 100 1201 65 1168 z m 335 1128 b 407 1056 335 1088 369 1056 b 482 1128 450 1056 482 1088 b 407 1201 482 1168 450 1201 b 335 1128 369 1201 335 1168 z m 28 0 l 519 0 l 519 7 l 349 79 b 336 500 342 181 336 321 b 349 921 336 679 342 818 l 519 993 l 519 1000 l 28 1000 l 28 993 l 201 919 b 215 500 210 817 215 678 b 201 81 215 322 210 182 l 28 7 z "},"İ":{"ha":547,"x_min":0,"x_max":0,"o":"m 201 1128 b 274 1056 201 1088 236 1056 b 349 1128 317 1056 349 1088 b 274 1201 349 1168 317 1201 b 201 1128 236 1201 201 1168 z m 28 0 l 519 0 l 519 7 l 349 79 b 336 500 342 181 336 321 b 349 921 336 679 342 818 l 519 993 l 519 1000 l 28 1000 l 28 993 l 201 919 b 215 500 210 817 215 678 b 201 81 215 322 210 182 l 28 7 z "},"Ĩ":{"ha":547,"x_min":0,"x_max":0,"o":"m 154 1142 b 371 1063 222 1142 292 1063 b 461 1183 422 1063 461 1094 l 461 1204 l 447 1204 l 447 1186 b 392 1136 447 1154 431 1136 b 175 1215 322 1136 254 1215 b 86 1094 124 1215 86 1185 l 86 1074 l 100 1074 l 100 1092 b 154 1142 100 1124 117 1142 z m 28 0 l 519 0 l 519 7 l 349 79 b 336 500 342 181 336 321 b 349 921 336 679 342 818 l 519 993 l 519 1000 l 28 1000 l 28 993 l 201 919 b 215 500 210 817 215 678 b 201 81 215 322 210 182 l 28 7 z "},"Ī":{"ha":547,"x_min":0,"x_max":0,"o":"m 468 1083 l 468 1165 l 79 1165 l 79 1083 z m 28 0 l 519 0 l 519 7 l 349 79 b 336 500 342 181 336 321 b 349 921 336 679 342 818 l 519 993 l 519 1000 l 28 1000 l 28 993 l 201 919 b 215 500 210 817 215 678 b 201 81 215 322 210 182 l 28 7 z "},"Ĭ":{"ha":547,"x_min":0,"x_max":0,"o":"m 88 1213 b 274 1054 103 1128 154 1054 b 460 1213 404 1054 444 1128 l 446 1213 b 274 1131 431 1169 376 1131 b 101 1213 185 1131 117 1169 z m 28 0 l 519 0 l 519 7 l 349 79 b 336 500 342 181 336 321 b 349 921 336 679 342 818 l 519 993 l 519 1000 l 28 1000 l 28 993 l 201 919 b 215 500 210 817 215 678 b 201 81 215 322 210 182 l 28 7 z "},"Į":{"ha":547,"x_min":0,"x_max":0,"o":"m 28 0 l 254 0 b 147 -183 194 -61 147 -121 b 251 -268 147 -235 192 -268 b 396 -186 296 -268 344 -243 l 388 -176 b 294 -211 356 -201 331 -211 b 217 -143 250 -211 217 -186 b 292 0 217 -94 247 -51 l 519 0 l 519 7 l 349 79 b 336 500 342 181 336 321 b 349 921 336 679 342 818 l 519 993 l 519 1000 l 28 1000 l 28 993 l 201 919 b 215 500 210 817 215 678 b 201 81 215 322 210 182 l 28 7 z "},"Ĳ":{"ha":1094,"x_min":0,"x_max":0,"o":"m 28 0 l 519 0 l 519 7 l 349 79 b 336 500 342 181 336 321 b 349 921 336 679 342 818 l 519 993 l 519 1000 l 28 1000 l 28 993 l 201 919 b 215 500 210 817 215 678 b 201 81 215 322 210 182 l 28 7 z m 883 -15 l 883 500 b 896 921 883 679 889 818 l 1067 993 l 1067 1000 l 575 1000 l 575 993 l 749 919 b 763 500 757 817 763 678 l 763 8 b 575 -296 763 -186 701 -275 l 574 -306 b 883 -15 754 -306 883 -218 z "},"Ĵ":{"ha":547,"x_min":0,"x_max":0,"o":"m 486 1056 l 490 1064 l 275 1213 l 60 1064 l 64 1056 l 275 1114 z m 336 -15 l 336 500 b 349 921 336 679 342 818 l 519 993 l 519 1000 l 28 1000 l 28 993 l 201 919 b 215 500 210 817 215 678 l 215 8 b 28 -296 215 -186 154 -275 l 26 -306 b 336 -15 207 -306 336 -218 z "},"Ķ":{"ha":1076,"x_min":0,"x_max":0,"o":"m 28 0 l 519 0 l 519 7 l 349 79 b 336 499 342 179 336 318 l 811 0 l 1076 0 l 1076 7 b 892 104 1036 7 968 32 l 425 551 l 858 915 l 1057 994 l 1057 1000 l 599 1000 l 599 994 l 753 922 l 336 507 b 349 921 336 679 342 818 l 519 993 l 519 1000 l 28 1000 l 28 993 l 201 919 b 215 500 210 817 215 678 b 201 81 215 322 210 182 l 28 7 z m 515 -74 l 515 -306 l 528 -307 l 617 -92 b 515 -74 586 -64 558 -58 z "},"Ĺ":{"ha":964,"x_min":0,"x_max":0,"o":"m 450 1208 l 107 1079 l 110 1069 l 479 1114 b 450 1208 489 1156 483 1178 z m 336 500 b 349 921 336 679 342 818 l 617 993 l 617 1000 l 28 1000 l 28 993 l 201 919 b 215 500 210 817 215 678 b 201 81 215 322 210 182 l 28 7 l 28 0 l 878 0 l 910 325 l 897 325 b 599 42 856 118 758 42 l 336 42 z "},"Ľ":{"ha":964,"x_min":0,"x_max":0,"o":"m 738 1000 l 738 743 l 749 743 l 843 992 b 738 1000 810 1014 776 1018 z m 336 500 b 349 921 336 679 342 818 l 617 993 l 617 1000 l 28 1000 l 28 993 l 201 919 b 215 500 210 817 215 678 b 201 81 215 322 210 182 l 28 7 l 28 0 l 878 0 l 910 325 l 897 325 b 599 42 856 118 758 42 l 336 42 z "},"Ŀ":{"ha":964,"x_min":0,"x_max":0,"o":"m 336 500 b 349 921 336 679 342 818 l 617 993 l 617 1000 l 28 1000 l 28 993 l 201 919 b 215 500 210 817 215 678 b 201 81 215 322 210 182 l 28 7 l 28 0 l 878 0 l 910 325 l 897 325 b 599 42 856 118 758 42 l 336 42 z m 660 535 b 732 463 660 494 694 463 b 807 535 775 463 807 494 b 732 608 807 575 775 608 b 660 535 694 608 660 575 z "},"Ļ":{"ha":964,"x_min":0,"x_max":0,"o":"m 336 500 b 349 921 336 679 342 818 l 617 993 l 617 1000 l 28 1000 l 28 993 l 201 919 b 215 500 210 817 215 678 b 201 81 215 322 210 182 l 28 7 l 28 0 l 878 0 l 910 325 l 897 325 b 599 42 856 118 758 42 l 336 42 z m 460 -74 l 460 -306 l 472 -307 l 561 -92 b 460 -74 531 -64 503 -58 z "},"Ł":{"ha":964,"x_min":0,"x_max":0,"o":"m 28 317 b 215 438 47 331 124 379 b 201 81 214 289 208 169 l 28 7 l 28 0 l 878 0 l 910 325 l 897 325 b 599 42 856 118 758 42 l 336 42 l 336 514 b 583 671 451 588 560 656 l 583 722 b 336 564 560 706 451 636 b 349 921 338 704 342 828 l 617 993 l 617 1000 l 28 1000 l 28 993 l 201 919 b 215 500 210 817 215 678 b 215 488 215 496 215 492 b 28 368 124 429 47 381 z "},"Ń":{"ha":1253,"x_min":0,"x_max":0,"o":"m 761 1208 l 418 1079 l 421 1069 l 790 1114 b 761 1208 800 1156 794 1178 z m 994 -28 l 1007 -28 l 1007 500 b 1019 921 1007 679 1013 818 l 1190 993 l 1190 1000 l 778 1000 l 778 993 l 951 919 b 965 500 960 817 965 678 l 965 178 l 240 1000 l 0 1000 l 0 993 b 211 851 67 993 129 942 l 211 500 b 199 79 211 321 206 182 l 28 7 l 28 0 l 440 0 l 440 7 l 267 81 b 253 500 258 183 253 322 l 253 806 z "},"Ň":{"ha":1253,"x_min":0,"x_max":0,"o":"m 376 1213 l 372 1204 l 588 1056 l 803 1204 l 799 1213 l 588 1154 z m 994 -28 l 1007 -28 l 1007 500 b 1019 921 1007 679 1013 818 l 1190 993 l 1190 1000 l 778 1000 l 778 993 l 951 919 b 965 500 960 817 965 678 l 965 178 l 240 1000 l 0 1000 l 0 993 b 211 851 67 993 129 942 l 211 500 b 199 79 211 321 206 182 l 28 7 l 28 0 l 440 0 l 440 7 l 267 81 b 253 500 258 183 253 322 l 253 806 z "},"Ñ":{"ha":1253,"x_min":0,"x_max":0,"o":"m 468 1142 b 685 1063 536 1142 606 1063 b 775 1183 736 1063 775 1094 l 775 1204 l 761 1204 l 761 1186 b 706 1136 761 1154 744 1136 b 489 1215 636 1136 568 1215 b 400 1094 438 1215 400 1185 l 400 1074 l 414 1074 l 414 1092 b 468 1142 414 1124 431 1142 z m 994 -28 l 1007 -28 l 1007 500 b 1019 921 1007 679 1013 818 l 1190 993 l 1190 1000 l 778 1000 l 778 993 l 951 919 b 965 500 960 817 965 678 l 965 178 l 240 1000 l 0 1000 l 0 993 b 211 851 67 993 129 942 l 211 500 b 199 79 211 321 206 182 l 28 7 l 28 0 l 440 0 l 440 7 l 267 81 b 253 500 258 183 253 322 l 253 806 z "},"Ņ":{"ha":1253,"x_min":0,"x_max":0,"o":"m 994 -28 l 1007 -28 l 1007 500 b 1019 921 1007 679 1013 818 l 1190 993 l 1190 1000 l 778 1000 l 778 993 l 951 919 b 965 500 960 817 965 678 l 965 178 l 240 1000 l 0 1000 l 0 993 b 211 851 67 993 129 942 l 211 500 b 199 79 211 321 206 182 l 28 7 l 28 0 l 440 0 l 440 7 l 267 81 b 253 500 258 183 253 322 l 253 806 z m 528 -74 l 528 -306 l 540 -307 l 629 -92 b 528 -74 599 -64 571 -58 z "},"Ŋ":{"ha":1253,"x_min":0,"x_max":0,"o":"m 1007 83 l 1007 500 b 1019 921 1007 679 1013 818 l 1190 993 l 1190 1000 l 778 1000 l 778 993 l 951 919 b 965 500 960 817 965 678 l 965 178 l 240 1000 l 0 1000 l 0 993 b 211 851 67 993 129 942 l 211 500 b 199 79 211 321 206 182 l 28 7 l 28 0 l 440 0 l 440 7 l 267 81 b 253 500 258 183 253 322 l 253 806 l 960 11 b 774 -229 942 -186 874 -229 b 650 -187 722 -229 686 -212 l 608 -26 l 599 -26 l 568 -274 b 728 -319 601 -294 663 -319 b 1007 83 885 -319 1007 -131 z "},"Ó":{"ha":1072,"x_min":0,"x_max":0,"o":"m 710 1208 l 367 1079 l 369 1069 l 739 1114 b 710 1208 749 1156 743 1178 z m 536 -14 b 1003 500 807 -14 1003 190 b 536 1014 1003 813 807 1014 b 69 500 265 1014 69 813 b 536 -14 69 190 265 -14 z m 536 111 b 125 500 297 111 125 263 b 536 889 125 740 297 889 b 947 500 775 889 947 740 b 536 111 947 263 775 111 z "},"Ò":{"ha":1072,"x_min":0,"x_max":0,"o":"m 363 1208 b 333 1114 329 1178 324 1156 l 703 1069 l 706 1079 z m 536 -14 b 1003 500 807 -14 1003 190 b 536 1014 1003 813 807 1014 b 69 500 265 1014 69 813 b 536 -14 69 190 265 -14 z m 536 111 b 125 500 297 111 125 263 b 536 889 125 740 297 889 b 947 500 775 889 947 740 b 536 111 947 263 775 111 z "},"Ô":{"ha":1072,"x_min":0,"x_max":0,"o":"m 747 1056 l 751 1064 l 536 1213 l 321 1064 l 325 1056 l 536 1114 z m 536 -14 b 1003 500 807 -14 1003 190 b 536 1014 1003 813 807 1014 b 69 500 265 1014 69 813 b 536 -14 69 190 265 -14 z m 536 111 b 125 500 297 111 125 263 b 536 889 125 740 297 889 b 947 500 775 889 947 740 b 536 111 947 263 775 111 z "},"Ö":{"ha":1072,"x_min":0,"x_max":0,"o":"m 328 1128 b 400 1056 328 1088 363 1056 b 475 1128 443 1056 475 1088 b 400 1201 475 1168 443 1201 b 328 1128 363 1201 328 1168 z m 597 1128 b 669 1056 597 1088 632 1056 b 744 1128 713 1056 744 1088 b 669 1201 744 1168 713 1201 b 597 1128 632 1201 597 1168 z m 536 -14 b 1003 500 807 -14 1003 190 b 536 1014 1003 813 807 1014 b 69 500 265 1014 69 813 b 536 -14 69 190 265 -14 z m 536 111 b 125 500 297 111 125 263 b 536 889 125 740 297 889 b 947 500 775 889 947 740 b 536 111 947 263 775 111 z "},"Õ":{"ha":1072,"x_min":0,"x_max":0,"o":"m 417 1142 b 633 1063 485 1142 554 1063 b 724 1183 685 1063 724 1094 l 724 1204 l 710 1204 l 710 1186 b 654 1136 710 1154 693 1136 b 438 1215 585 1136 517 1215 b 349 1094 386 1215 349 1185 l 349 1074 l 363 1074 l 363 1092 b 417 1142 363 1124 379 1142 z m 536 -14 b 1003 500 807 -14 1003 190 b 536 1014 1003 813 807 1014 b 69 500 265 1014 69 813 b 536 -14 69 190 265 -14 z m 536 111 b 125 500 297 111 125 263 b 536 889 125 740 297 889 b 947 500 775 889 947 740 b 536 111 947 263 775 111 z "},"Ō":{"ha":1072,"x_min":0,"x_max":0,"o":"m 731 1083 l 731 1165 l 342 1165 l 342 1083 z m 536 -14 b 1003 500 807 -14 1003 190 b 536 1014 1003 813 807 1014 b 69 500 265 1014 69 813 b 536 -14 69 190 265 -14 z m 536 111 b 125 500 297 111 125 263 b 536 889 125 740 297 889 b 947 500 775 889 947 740 b 536 111 947 263 775 111 z "},"Ŏ":{"ha":1072,"x_min":0,"x_max":0,"o":"m 350 1213 b 536 1054 365 1128 417 1054 b 722 1213 667 1054 707 1128 l 708 1213 b 536 1131 693 1169 639 1131 b 364 1213 447 1131 379 1169 z m 536 -14 b 1003 500 807 -14 1003 190 b 536 1014 1003 813 807 1014 b 69 500 265 1014 69 813 b 536 -14 69 190 265 -14 z m 536 111 b 125 500 297 111 125 263 b 536 889 125 740 297 889 b 947 500 775 889 947 740 b 536 111 947 263 775 111 z "},"Ő":{"ha":1072,"x_min":0,"x_max":0,"o":"m 779 1221 l 618 1064 l 625 1056 l 831 1146 b 779 1221 829 1183 815 1204 z m 563 1221 l 401 1064 l 408 1056 l 614 1146 b 563 1221 613 1183 599 1204 z m 536 -14 b 1003 500 807 -14 1003 190 b 536 1014 1003 813 807 1014 b 69 500 265 1014 69 813 b 536 -14 69 190 265 -14 z m 536 111 b 125 500 297 111 125 263 b 536 889 125 740 297 889 b 947 500 775 889 947 740 b 536 111 947 263 775 111 z "},"Ø":{"ha":1072,"x_min":0,"x_max":0,"o":"m 69 0 l 132 0 b 224 104 163 35 193 69 b 536 -14 304 29 413 -14 b 1003 500 807 -14 1003 190 b 882 863 1003 649 958 774 b 1003 1000 922 908 963 954 l 938 1000 b 850 896 908 965 879 931 b 536 1014 768 972 660 1014 b 69 500 265 1014 69 813 b 192 138 69 351 115 226 b 69 0 151 92 110 46 z m 125 500 b 536 896 125 744 297 896 b 789 824 633 896 721 871 b 250 204 614 618 433 411 b 125 500 171 272 125 375 z m 536 104 b 285 176 439 104 353 129 b 825 796 458 375 639 583 b 947 500 901 728 947 626 b 536 104 947 258 775 104 z "},"Ǿ":{"ha":1072,"x_min":0,"x_max":0,"o":"m 710 1208 l 367 1079 l 369 1069 l 739 1114 b 710 1208 749 1156 743 1178 z m 69 0 l 132 0 b 224 104 163 35 193 69 b 536 -14 304 29 413 -14 b 1003 500 807 -14 1003 190 b 882 863 1003 649 958 774 b 1003 1000 922 908 963 954 l 938 1000 b 850 896 908 965 879 931 b 536 1014 768 972 660 1014 b 69 500 265 1014 69 813 b 192 138 69 351 115 226 b 69 0 151 92 110 46 z m 125 500 b 536 896 125 744 297 896 b 789 824 633 896 721 871 b 250 204 614 618 433 411 b 125 500 171 272 125 375 z m 536 104 b 285 176 439 104 353 129 b 825 796 458 375 639 583 b 947 500 901 728 947 626 b 536 104 947 258 775 104 z "},"Œ":{"ha":1524,"x_min":0,"x_max":0,"o":"m 69 500 b 578 0 69 190 282 0 l 1438 0 l 1469 325 l 1457 325 b 1158 42 1415 118 1318 42 l 911 42 b 896 481 901 143 899 289 l 1106 481 l 1200 254 l 1211 254 l 1211 749 l 1200 749 l 1106 522 l 896 522 b 911 958 899 713 903 857 l 1132 958 b 1392 713 1311 958 1375 869 l 1404 713 l 1404 1000 l 578 1000 b 69 500 282 1000 69 813 z m 614 42 b 199 500 340 42 199 239 b 614 958 199 761 340 958 l 758 958 b 775 500 768 853 772 701 b 758 42 772 299 768 146 z "},"Þ":{"ha":922,"x_min":0,"x_max":0,"o":"m 617 1000 l 28 1000 l 28 993 l 201 919 b 215 500 210 817 215 678 b 201 81 215 322 210 182 l 28 7 l 28 0 l 617 0 l 617 7 l 349 79 b 340 244 346 126 343 182 l 551 244 b 908 526 764 244 908 340 b 551 792 908 700 764 792 l 342 792 b 350 919 344 839 347 882 l 617 993 z m 551 286 l 339 286 b 336 500 338 350 336 421 b 340 750 336 594 338 678 l 551 750 b 778 526 692 750 778 654 b 551 286 778 388 692 286 z "},"Ŕ":{"ha":1076,"x_min":0,"x_max":0,"o":"m 656 1208 l 313 1079 l 315 1069 l 685 1114 b 656 1208 694 1156 689 1178 z m 617 0 l 617 7 l 349 79 b 336 513 342 185 336 326 l 811 0 l 1076 0 l 1076 7 b 892 104 1036 7 967 31 l 499 494 l 551 494 b 908 756 764 494 908 585 b 551 1000 908 917 764 1000 l 28 1000 l 28 993 l 201 919 b 215 500 210 817 215 678 b 201 81 215 322 210 182 l 28 7 l 28 0 z m 551 536 l 336 536 l 336 958 l 551 958 b 778 756 692 958 778 872 b 551 536 778 629 692 536 z "},"Ř":{"ha":1076,"x_min":0,"x_max":0,"o":"m 271 1213 l 267 1204 l 482 1056 l 697 1204 l 693 1213 l 482 1154 z m 617 0 l 617 7 l 349 79 b 336 513 342 185 336 326 l 811 0 l 1076 0 l 1076 7 b 892 104 1036 7 967 31 l 499 494 l 551 494 b 908 756 764 494 908 585 b 551 1000 908 917 764 1000 l 28 1000 l 28 993 l 201 919 b 215 500 210 817 215 678 b 201 81 215 322 210 182 l 28 7 l 28 0 z m 551 536 l 336 536 l 336 958 l 551 958 b 778 756 692 958 778 872 b 551 536 778 629 692 536 z "},"Ŗ":{"ha":1076,"x_min":0,"x_max":0,"o":"m 617 0 l 617 7 l 349 79 b 336 513 342 185 336 326 l 811 0 l 1076 0 l 1076 7 b 892 104 1036 7 967 31 l 499 494 l 551 494 b 908 756 764 494 908 585 b 551 1000 908 917 764 1000 l 28 1000 l 28 993 l 201 919 b 215 500 210 817 215 678 b 201 81 215 322 210 182 l 28 7 l 28 0 z m 551 536 l 336 536 l 336 958 l 551 958 b 778 756 692 958 778 872 b 551 536 778 629 692 536 z m 471 -74 l 471 -306 l 483 -307 l 572 -92 b 471 -74 542 -64 514 -58 z "},"Ś":{"ha":913,"x_min":0,"x_max":0,"o":"m 625 1208 l 282 1079 l 285 1069 l 654 1114 b 625 1208 664 1156 658 1178 z m 450 -14 b 822 294 668 -14 822 92 b 168 735 822 733 168 435 b 431 904 168 839 292 904 b 740 626 574 904 740 842 l 751 626 l 751 910 b 444 1014 697 964 588 1014 b 119 725 274 1014 119 901 b 771 272 119 257 771 579 b 458 96 771 156 644 96 b 122 389 272 96 122 189 l 111 389 l 111 106 b 450 -14 172 44 292 -14 z "},"Ŝ":{"ha":913,"x_min":0,"x_max":0,"o":"m 663 1056 l 667 1064 l 451 1213 l 236 1064 l 240 1056 l 451 1114 z m 450 -14 b 822 294 668 -14 822 92 b 168 735 822 733 168 435 b 431 904 168 839 292 904 b 740 626 574 904 740 842 l 751 626 l 751 910 b 444 1014 697 964 588 1014 b 119 725 274 1014 119 901 b 771 272 119 257 771 579 b 458 96 771 156 644 96 b 122 389 272 96 122 189 l 111 389 l 111 106 b 450 -14 172 44 292 -14 z "},"Š":{"ha":913,"x_min":0,"x_max":0,"o":"m 240 1213 l 236 1204 l 451 1056 l 667 1204 l 663 1213 l 451 1154 z m 450 -14 b 822 294 668 -14 822 92 b 168 735 822 733 168 435 b 431 904 168 839 292 904 b 740 626 574 904 740 842 l 751 626 l 751 910 b 444 1014 697 964 588 1014 b 119 725 274 1014 119 901 b 771 272 119 257 771 579 b 458 96 771 156 644 96 b 122 389 272 96 122 189 l 111 389 l 111 106 b 450 -14 172 44 292 -14 z "},"Ș":{"ha":913,"x_min":0,"x_max":0,"o":"m 450 -14 b 822 294 668 -14 822 92 b 168 735 822 733 168 435 b 431 904 168 839 292 904 b 740 626 574 904 740 842 l 751 626 l 751 910 b 444 1014 697 964 588 1014 b 119 725 274 1014 119 901 b 771 272 119 257 771 579 b 458 96 771 156 644 96 b 122 389 272 96 122 189 l 111 389 l 111 106 b 450 -14 172 44 292 -14 z m 428 -61 l 428 -293 l 440 -294 l 529 -79 b 428 -61 499 -51 471 -46 z "},"Ş":{"ha":913,"x_min":0,"x_max":0,"o":"m 608 -164 b 503 -75 608 -94 561 -75 l 485 -75 l 485 -12 b 822 294 685 -3 822 103 b 168 735 822 733 168 435 b 431 904 168 839 292 904 b 740 626 574 904 740 842 l 751 626 l 751 910 b 444 1014 697 964 588 1014 b 119 725 274 1014 119 901 b 771 272 119 257 771 579 b 458 96 771 156 644 96 b 122 389 272 96 122 189 l 111 389 l 111 106 b 449 -14 172 44 290 -14 l 396 -111 l 403 -117 b 454 -112 421 -115 433 -112 b 511 -157 486 -112 511 -131 b 443 -206 511 -199 474 -206 b 361 -186 418 -206 388 -197 l 356 -196 b 485 -256 390 -225 436 -256 b 608 -164 549 -256 608 -228 z "},"Ť":{"ha":953,"x_min":0,"x_max":0,"o":"m 265 1213 l 261 1204 l 476 1056 l 692 1204 l 688 1213 l 476 1154 z m 189 0 l 764 0 l 764 7 l 551 79 b 539 500 544 181 539 321 l 539 958 l 639 958 b 899 685 818 958 881 860 l 911 685 l 911 1000 l 42 1000 l 42 685 l 54 685 b 314 958 72 860 135 958 l 418 958 l 418 500 b 404 81 418 322 413 182 l 189 7 z "},"Ţ":{"ha":953,"x_min":0,"x_max":0,"o":"m 189 0 l 764 0 l 764 7 l 551 79 b 539 500 544 181 539 321 l 539 958 l 639 958 b 899 685 818 958 881 860 l 911 685 l 911 1000 l 42 1000 l 42 685 l 54 685 b 314 958 72 860 135 958 l 418 958 l 418 500 b 404 81 418 322 413 182 l 189 7 z m 446 -74 l 446 -306 l 458 -307 l 547 -92 b 446 -74 517 -64 489 -58 z "},"Ț":{"ha":953,"x_min":0,"x_max":0,"o":"m 189 0 l 764 0 l 764 7 l 551 79 b 539 500 544 181 539 321 l 539 958 l 639 958 b 899 685 818 958 881 860 l 911 685 l 911 1000 l 42 1000 l 42 685 l 54 685 b 314 958 72 860 135 958 l 418 958 l 418 500 b 404 81 418 322 413 182 l 189 7 z m 446 -74 l 446 -306 l 458 -307 l 547 -92 b 446 -74 517 -64 489 -58 z "},"Ŧ":{"ha":953,"x_min":0,"x_max":0,"o":"m 189 0 l 764 0 l 764 7 l 551 79 b 539 500 544 181 539 321 l 539 508 b 756 507 642 508 735 507 l 756 549 b 539 547 735 549 642 547 l 539 958 l 639 958 b 899 685 818 958 881 860 l 911 685 l 911 1000 l 42 1000 l 42 685 l 54 685 b 314 958 72 860 135 958 l 418 958 l 418 547 b 200 549 314 547 221 549 l 200 507 b 418 508 221 507 314 508 l 418 500 b 404 81 418 322 413 182 l 189 7 z "},"Ú":{"ha":1206,"x_min":0,"x_max":0,"o":"m 829 1208 l 486 1079 l 489 1069 l 858 1114 b 829 1208 868 1156 863 1178 z m 994 424 l 994 500 b 1007 921 994 679 1000 818 l 1178 993 l 1178 1000 l 765 1000 l 765 993 l 939 919 b 953 500 947 817 953 678 l 953 424 b 663 57 953 199 853 57 b 336 435 440 57 336 204 l 336 500 b 349 921 336 679 342 818 l 519 993 l 519 1000 l 28 1000 l 28 993 l 201 919 b 215 500 210 817 215 678 l 215 426 b 619 -14 215 150 365 -14 b 994 424 885 -14 994 143 z "},"Ù":{"ha":1206,"x_min":0,"x_max":0,"o":"m 482 1208 b 453 1114 449 1178 443 1156 l 822 1069 l 825 1079 z m 994 424 l 994 500 b 1007 921 994 679 1000 818 l 1178 993 l 1178 1000 l 765 1000 l 765 993 l 939 919 b 953 500 947 817 953 678 l 953 424 b 663 57 953 199 853 57 b 336 435 440 57 336 204 l 336 500 b 349 921 336 679 342 818 l 519 993 l 519 1000 l 28 1000 l 28 993 l 201 919 b 215 500 210 817 215 678 l 215 426 b 619 -14 215 150 365 -14 b 994 424 885 -14 994 143 z "},"Û":{"ha":1206,"x_min":0,"x_max":0,"o":"m 867 1056 l 871 1064 l 656 1213 l 440 1064 l 444 1056 l 656 1114 z m 994 424 l 994 500 b 1007 921 994 679 1000 818 l 1178 993 l 1178 1000 l 765 1000 l 765 993 l 939 919 b 953 500 947 817 953 678 l 953 424 b 663 57 953 199 853 57 b 336 435 440 57 336 204 l 336 500 b 349 921 336 679 342 818 l 519 993 l 519 1000 l 28 1000 l 28 993 l 201 919 b 215 500 210 817 215 678 l 215 426 b 619 -14 215 150 365 -14 b 994 424 885 -14 994 143 z "},"Ü":{"ha":1206,"x_min":0,"x_max":0,"o":"m 447 1128 b 519 1056 447 1088 482 1056 b 594 1128 563 1056 594 1088 b 519 1201 594 1168 563 1201 b 447 1128 482 1201 447 1168 z m 717 1128 b 789 1056 717 1088 751 1056 b 864 1128 832 1056 864 1088 b 789 1201 864 1168 832 1201 b 717 1128 751 1201 717 1168 z m 994 424 l 994 500 b 1007 921 994 679 1000 818 l 1178 993 l 1178 1000 l 765 1000 l 765 993 l 939 919 b 953 500 947 817 953 678 l 953 424 b 663 57 953 199 853 57 b 336 435 440 57 336 204 l 336 500 b 349 921 336 679 342 818 l 519 993 l 519 1000 l 28 1000 l 28 993 l 201 919 b 215 500 210 817 215 678 l 215 426 b 619 -14 215 150 365 -14 b 994 424 885 -14 994 143 z "},"Ũ":{"ha":1206,"x_min":0,"x_max":0,"o":"m 536 1142 b 753 1063 604 1142 674 1063 b 843 1183 804 1063 843 1094 l 843 1204 l 829 1204 l 829 1186 b 774 1136 829 1154 813 1136 b 557 1215 704 1136 636 1215 b 468 1094 506 1215 468 1185 l 468 1074 l 482 1074 l 482 1092 b 536 1142 482 1124 499 1142 z m 994 424 l 994 500 b 1007 921 994 679 1000 818 l 1178 993 l 1178 1000 l 765 1000 l 765 993 l 939 919 b 953 500 947 817 953 678 l 953 424 b 663 57 953 199 853 57 b 336 435 440 57 336 204 l 336 500 b 349 921 336 679 342 818 l 519 993 l 519 1000 l 28 1000 l 28 993 l 201 919 b 215 500 210 817 215 678 l 215 426 b 619 -14 215 150 365 -14 b 994 424 885 -14 994 143 z "},"Ū":{"ha":1206,"x_min":0,"x_max":0,"o":"m 850 1083 l 850 1165 l 461 1165 l 461 1083 z m 994 424 l 994 500 b 1007 921 994 679 1000 818 l 1178 993 l 1178 1000 l 765 1000 l 765 993 l 939 919 b 953 500 947 817 953 678 l 953 424 b 663 57 953 199 853 57 b 336 435 440 57 336 204 l 336 500 b 349 921 336 679 342 818 l 519 993 l 519 1000 l 28 1000 l 28 993 l 201 919 b 215 500 210 817 215 678 l 215 426 b 619 -14 215 150 365 -14 b 994 424 885 -14 994 143 z "},"Ŭ":{"ha":1206,"x_min":0,"x_max":0,"o":"m 469 1213 b 656 1054 485 1128 536 1054 b 842 1213 786 1054 826 1128 l 828 1213 b 656 1131 813 1169 758 1131 b 483 1213 567 1131 499 1169 z m 994 424 l 994 500 b 1007 921 994 679 1000 818 l 1178 993 l 1178 1000 l 765 1000 l 765 993 l 939 919 b 953 500 947 817 953 678 l 953 424 b 663 57 953 199 853 57 b 336 435 440 57 336 204 l 336 500 b 349 921 336 679 342 818 l 519 993 l 519 1000 l 28 1000 l 28 993 l 201 919 b 215 500 210 817 215 678 l 215 426 b 619 -14 215 150 365 -14 b 994 424 885 -14 994 143 z "},"Ů":{"ha":1206,"x_min":0,"x_max":0,"o":"m 514 1142 b 656 1056 514 1093 565 1056 b 800 1142 757 1056 800 1093 b 656 1229 800 1189 756 1229 b 514 1142 564 1229 514 1189 z m 597 1142 b 656 1201 597 1174 619 1201 b 717 1142 697 1201 717 1174 b 656 1083 717 1108 697 1083 b 597 1142 619 1083 597 1108 z m 994 424 l 994 500 b 1007 921 994 679 1000 818 l 1178 993 l 1178 1000 l 765 1000 l 765 993 l 939 919 b 953 500 947 817 953 678 l 953 424 b 663 57 953 199 853 57 b 336 435 440 57 336 204 l 336 500 b 349 921 336 679 342 818 l 519 993 l 519 1000 l 28 1000 l 28 993 l 201 919 b 215 500 210 817 215 678 l 215 426 b 619 -14 215 150 365 -14 b 994 424 885 -14 994 143 z "},"Ű":{"ha":1206,"x_min":0,"x_max":0,"o":"m 899 1221 l 738 1064 l 744 1056 l 950 1146 b 899 1221 949 1183 935 1204 z m 682 1221 l 521 1064 l 528 1056 l 733 1146 b 682 1221 732 1183 718 1204 z m 994 424 l 994 500 b 1007 921 994 679 1000 818 l 1178 993 l 1178 1000 l 765 1000 l 765 993 l 939 919 b 953 500 947 817 953 678 l 953 424 b 663 57 953 199 853 57 b 336 435 440 57 336 204 l 336 500 b 349 921 336 679 342 818 l 519 993 l 519 1000 l 28 1000 l 28 993 l 201 919 b 215 500 210 817 215 678 l 215 426 b 619 -14 215 150 365 -14 b 994 424 885 -14 994 143 z "},"Ų":{"ha":1206,"x_min":0,"x_max":0,"o":"m 994 424 l 994 500 b 1007 921 994 679 1000 818 l 1178 993 l 1178 1000 l 765 1000 l 765 993 l 939 919 b 953 500 947 817 953 678 l 953 424 b 663 57 953 199 853 57 b 336 435 440 57 336 204 l 336 500 b 349 921 336 679 342 818 l 519 993 l 519 1000 l 28 1000 l 28 993 l 201 919 b 215 500 210 817 215 678 l 215 426 b 622 -14 215 153 363 -11 b 529 -183 569 -71 529 -125 b 633 -268 529 -235 574 -268 b 778 -186 678 -268 726 -243 l 769 -176 b 676 -211 738 -201 713 -211 b 599 -143 632 -211 599 -186 b 663 -12 599 -99 624 -58 b 994 424 894 0 994 156 z "},"Ẃ":{"ha":1667,"x_min":0,"x_max":0,"o":"m 1007 1208 l 664 1079 l 667 1069 l 1036 1114 b 1007 1208 1046 1156 1040 1178 z m 1238 1000 l 1238 994 l 1454 917 l 1171 136 l 1042 511 b 903 933 988 668 938 811 l 1122 994 l 1122 1000 l 625 1000 l 625 994 l 751 929 b 768 893 757 918 763 906 l 568 147 l 429 511 b 276 929 371 665 318 813 l 497 994 l 497 1000 l 0 1000 l 0 994 l 125 926 b 321 478 188 804 258 631 l 528 -28 l 535 -28 l 825 757 b 933 478 861 667 899 568 l 1125 -28 l 1132 -28 l 1536 914 l 1667 994 l 1667 1000 z "},"Ẁ":{"ha":1667,"x_min":0,"x_max":0,"o":"m 660 1208 b 631 1114 626 1178 621 1156 l 1000 1069 l 1003 1079 z m 1238 1000 l 1238 994 l 1454 917 l 1171 136 l 1042 511 b 903 933 988 668 938 811 l 1122 994 l 1122 1000 l 625 1000 l 625 994 l 751 929 b 768 893 757 918 763 906 l 568 147 l 429 511 b 276 929 371 665 318 813 l 497 994 l 497 1000 l 0 1000 l 0 994 l 125 926 b 321 478 188 804 258 631 l 528 -28 l 535 -28 l 825 757 b 933 478 861 667 899 568 l 1125 -28 l 1132 -28 l 1536 914 l 1667 994 l 1667 1000 z "},"Ŵ":{"ha":1667,"x_min":0,"x_max":0,"o":"m 1044 1056 l 1049 1064 l 833 1213 l 618 1064 l 622 1056 l 833 1114 z m 1238 1000 l 1238 994 l 1454 917 l 1171 136 l 1042 511 b 903 933 988 668 938 811 l 1122 994 l 1122 1000 l 625 1000 l 625 994 l 751 929 b 768 893 757 918 763 906 l 568 147 l 429 511 b 276 929 371 665 318 813 l 497 994 l 497 1000 l 0 1000 l 0 994 l 125 926 b 321 478 188 804 258 631 l 528 -28 l 535 -28 l 825 757 b 933 478 861 667 899 568 l 1125 -28 l 1132 -28 l 1536 914 l 1667 994 l 1667 1000 z "},"Ẅ":{"ha":1667,"x_min":0,"x_max":0,"o":"m 625 1128 b 697 1056 625 1088 660 1056 b 772 1128 740 1056 772 1088 b 697 1201 772 1168 740 1201 b 625 1128 660 1201 625 1168 z m 894 1128 b 967 1056 894 1088 929 1056 b 1042 1128 1010 1056 1042 1088 b 967 1201 1042 1168 1010 1201 b 894 1128 929 1201 894 1168 z m 1238 1000 l 1238 994 l 1454 917 l 1171 136 l 1042 511 b 903 933 988 668 938 811 l 1122 994 l 1122 1000 l 625 1000 l 625 994 l 751 929 b 768 893 757 918 763 906 l 568 147 l 429 511 b 276 929 371 665 318 813 l 497 994 l 497 1000 l 0 1000 l 0 994 l 125 926 b 321 478 188 804 258 631 l 528 -28 l 535 -28 l 825 757 b 933 478 861 667 899 568 l 1125 -28 l 1132 -28 l 1536 914 l 1667 994 l 1667 1000 z "},"Ý":{"ha":1126,"x_min":0,"x_max":0,"o":"m 776 1208 l 433 1079 l 436 1069 l 806 1114 b 776 1208 815 1156 810 1178 z m 286 0 l 861 0 l 861 7 l 649 79 b 636 444 643 167 636 289 l 636 479 l 990 911 l 1126 994 l 1126 1000 l 722 1000 l 722 994 l 903 904 l 611 501 l 458 713 b 313 925 407 783 357 853 l 478 994 l 478 1000 l 0 1000 l 0 994 l 140 935 b 356 676 210 857 283 771 l 515 460 l 515 444 b 501 81 515 290 508 168 l 286 7 z "},"Ỳ":{"ha":1126,"x_min":0,"x_max":0,"o":"m 429 1208 b 400 1114 396 1178 390 1156 l 769 1069 l 772 1079 z m 286 0 l 861 0 l 861 7 l 649 79 b 636 444 643 167 636 289 l 636 479 l 990 911 l 1126 994 l 1126 1000 l 722 1000 l 722 994 l 903 904 l 611 501 l 458 713 b 313 925 407 783 357 853 l 478 994 l 478 1000 l 0 1000 l 0 994 l 140 935 b 356 676 210 857 283 771 l 515 460 l 515 444 b 501 81 515 290 508 168 l 286 7 z "},"Ŷ":{"ha":1126,"x_min":0,"x_max":0,"o":"m 814 1056 l 818 1064 l 603 1213 l 388 1064 l 392 1056 l 603 1114 z m 286 0 l 861 0 l 861 7 l 649 79 b 636 444 643 167 636 289 l 636 479 l 990 911 l 1126 994 l 1126 1000 l 722 1000 l 722 994 l 903 904 l 611 501 l 458 713 b 313 925 407 783 357 853 l 478 994 l 478 1000 l 0 1000 l 0 994 l 140 935 b 356 676 210 857 283 771 l 515 460 l 515 444 b 501 81 515 290 508 168 l 286 7 z "},"Ÿ":{"ha":1126,"x_min":0,"x_max":0,"o":"m 394 1128 b 467 1056 394 1088 429 1056 b 542 1128 510 1056 542 1088 b 467 1201 542 1168 510 1201 b 394 1128 429 1201 394 1168 z m 664 1128 b 736 1056 664 1088 699 1056 b 811 1128 779 1056 811 1088 b 736 1201 811 1168 779 1201 b 664 1128 699 1201 664 1168 z m 286 0 l 861 0 l 861 7 l 649 79 b 636 444 643 167 636 289 l 636 479 l 990 911 l 1126 994 l 1126 1000 l 722 1000 l 722 994 l 903 904 l 611 501 l 458 713 b 313 925 407 783 357 853 l 478 994 l 478 1000 l 0 1000 l 0 994 l 140 935 b 356 676 210 857 283 771 l 515 460 l 515 444 b 501 81 515 290 508 168 l 286 7 z "},"Ź":{"ha":918,"x_min":0,"x_max":0,"o":"m 651 1208 l 308 1079 l 311 1069 l 681 1114 b 651 1208 690 1156 685 1178 z m 851 358 l 840 358 b 607 97 829 167 768 97 l 228 97 l 847 994 l 847 1000 l 111 1000 l 111 643 l 122 643 b 356 893 133 826 194 893 l 742 893 l 49 6 l 49 0 l 851 0 z "},"Ž":{"ha":918,"x_min":0,"x_max":0,"o":"m 267 1213 l 263 1204 l 478 1056 l 693 1204 l 689 1213 l 478 1154 z m 851 358 l 840 358 b 607 97 829 167 768 97 l 228 97 l 847 994 l 847 1000 l 111 1000 l 111 643 l 122 643 b 356 893 133 826 194 893 l 742 893 l 49 6 l 49 0 l 851 0 z "},"Ż":{"ha":918,"x_min":0,"x_max":0,"o":"m 406 1128 b 478 1056 406 1088 440 1056 b 553 1128 521 1056 553 1088 b 478 1201 553 1168 521 1201 b 406 1128 440 1201 406 1168 z m 851 358 l 840 358 b 607 97 829 167 768 97 l 228 97 l 847 994 l 847 1000 l 111 1000 l 111 643 l 122 643 b 356 893 133 826 194 893 l 742 893 l 49 6 l 49 0 l 851 0 z "},"á":{"ha":810,"x_min":0,"x_max":0,"o":"m 576 1000 l 278 790 l 283 781 l 629 917 b 576 1000 628 958 617 979 z m 781 57 l 781 65 b 660 225 713 81 660 117 l 660 432 b 406 722 660 621 576 722 b 138 442 243 722 138 593 l 147 442 b 372 626 167 551 244 626 b 553 400 496 626 553 572 l 428 400 b 97 190 201 400 97 324 b 310 -14 97 57 192 -14 b 557 151 424 -14 511 74 l 567 149 l 553 -14 l 558 -17 z m 553 178 b 347 81 486 113 426 81 b 211 211 267 81 211 131 b 417 360 211 301 282 344 l 553 376 z "},"à":{"ha":810,"x_min":0,"x_max":0,"o":"m 340 1033 b 260 978 296 1031 276 1015 l 475 779 l 483 786 z m 781 57 l 781 65 b 660 225 713 81 660 117 l 660 432 b 406 722 660 621 576 722 b 138 442 243 722 138 593 l 147 442 b 372 626 167 551 244 626 b 553 400 496 626 553 572 l 428 400 b 97 190 201 400 97 324 b 310 -14 97 57 192 -14 b 557 151 424 -14 511 74 l 567 149 l 553 -14 l 558 -17 z m 553 178 b 347 81 486 113 426 81 b 211 211 267 81 211 131 b 417 360 211 301 282 344 l 553 376 z "},"â":{"ha":810,"x_min":0,"x_max":0,"o":"m 610 778 l 617 786 l 413 1000 l 208 786 l 215 778 l 413 894 z m 781 57 l 781 65 b 660 225 713 81 660 117 l 660 432 b 406 722 660 621 576 722 b 138 442 243 722 138 593 l 147 442 b 372 626 167 551 244 626 b 553 400 496 626 553 572 l 428 400 b 97 190 201 400 97 324 b 310 -14 97 57 192 -14 b 557 151 424 -14 511 74 l 567 149 l 553 -14 l 558 -17 z m 553 178 b 347 81 486 113 426 81 b 211 211 267 81 211 131 b 417 360 211 301 282 344 l 553 376 z "},"ä":{"ha":810,"x_min":0,"x_max":0,"o":"m 474 922 b 546 850 474 882 508 850 b 621 922 589 850 621 882 b 546 996 621 963 589 996 b 474 922 508 996 474 963 z m 204 922 b 276 850 204 882 239 850 b 351 922 319 850 351 882 b 276 996 351 963 319 996 b 204 922 239 996 204 963 z m 781 57 l 781 65 b 660 225 713 81 660 117 l 660 432 b 406 722 660 621 576 722 b 138 442 243 722 138 593 l 147 442 b 372 626 167 551 244 626 b 553 400 496 626 553 572 l 428 400 b 97 190 201 400 97 324 b 310 -14 97 57 192 -14 b 557 151 424 -14 511 74 l 567 149 l 553 -14 l 558 -17 z m 553 178 b 347 81 486 113 426 81 b 211 211 267 81 211 131 b 417 360 211 301 282 344 l 553 376 z "},"ã":{"ha":810,"x_min":0,"x_max":0,"o":"m 301 910 b 517 821 368 910 438 821 b 614 965 572 821 614 858 l 614 986 l 600 986 l 600 968 b 524 904 600 928 575 904 b 308 993 456 904 388 993 b 211 849 253 993 211 956 l 211 828 l 225 828 l 225 846 b 301 910 225 886 249 910 z m 781 57 l 781 65 b 660 225 713 81 660 117 l 660 432 b 406 722 660 621 576 722 b 138 442 243 722 138 593 l 147 442 b 372 626 167 551 244 626 b 553 400 496 626 553 572 l 428 400 b 97 190 201 400 97 324 b 310 -14 97 57 192 -14 b 557 151 424 -14 511 74 l 567 149 l 553 -14 l 558 -17 z m 553 178 b 347 81 486 113 426 81 b 211 211 267 81 211 131 b 417 360 211 301 282 344 l 553 376 z "},"ā":{"ha":810,"x_min":0,"x_max":0,"o":"m 579 878 l 579 960 l 246 960 l 246 878 z m 781 57 l 781 65 b 660 225 713 81 660 117 l 660 432 b 406 722 660 621 576 722 b 138 442 243 722 138 593 l 147 442 b 372 626 167 551 244 626 b 553 400 496 626 553 572 l 428 400 b 97 190 201 400 97 324 b 310 -14 97 57 192 -14 b 557 151 424 -14 511 74 l 567 149 l 553 -14 l 558 -17 z m 553 178 b 347 81 486 113 426 81 b 211 211 267 81 211 131 b 417 360 211 301 282 344 l 553 376 z "},"ă":{"ha":810,"x_min":0,"x_max":0,"o":"m 226 1000 b 413 842 242 915 293 842 b 599 1000 543 842 583 915 l 585 1000 b 413 918 569 957 515 918 b 240 1000 324 918 256 957 z m 781 57 l 781 65 b 660 225 713 81 660 117 l 660 432 b 406 722 660 621 576 722 b 138 442 243 722 138 593 l 147 442 b 372 626 167 551 244 626 b 553 400 496 626 553 572 l 428 400 b 97 190 201 400 97 324 b 310 -14 97 57 192 -14 b 557 151 424 -14 511 74 l 567 149 l 553 -14 l 558 -17 z m 553 178 b 347 81 486 113 426 81 b 211 211 267 81 211 131 b 417 360 211 301 282 344 l 553 376 z "},"å":{"ha":810,"x_min":0,"x_max":0,"o":"m 271 922 b 413 836 271 874 322 836 b 557 922 514 836 557 874 b 413 1010 557 969 513 1010 b 271 922 321 1010 271 969 z m 354 922 b 413 982 354 954 376 982 b 474 922 454 982 474 954 b 413 864 474 889 454 864 b 354 922 376 864 354 889 z m 781 57 l 781 65 b 660 225 713 81 660 117 l 660 432 b 406 722 660 621 576 722 b 138 442 243 722 138 593 l 147 442 b 372 626 167 551 244 626 b 553 400 496 626 553 572 l 428 400 b 97 190 201 400 97 324 b 310 -14 97 57 192 -14 b 557 151 424 -14 511 74 l 567 149 l 553 -14 l 558 -17 z m 553 178 b 347 81 486 113 426 81 b 211 211 267 81 211 131 b 417 360 211 301 282 344 l 553 376 z "},"ǻ":{"ha":810,"x_min":0,"x_max":0,"o":"m 549 1208 l 206 1079 l 208 1069 l 578 1114 b 549 1208 588 1156 582 1178 z m 254 922 b 396 836 254 874 306 836 b 540 922 497 836 540 874 b 396 1010 540 969 496 1010 b 254 922 304 1010 254 969 z m 338 922 b 396 982 338 954 360 982 b 457 922 438 982 457 954 b 396 864 457 889 438 864 b 338 922 360 864 338 889 z m 781 57 l 781 65 b 660 225 713 81 660 117 l 660 432 b 406 722 660 621 576 722 b 138 442 243 722 138 593 l 147 442 b 372 626 167 551 244 626 b 553 400 496 626 553 572 l 428 400 b 97 190 201 400 97 324 b 310 -14 97 57 192 -14 b 557 151 424 -14 511 74 l 567 149 l 553 -14 l 558 -17 z m 553 178 b 347 81 486 113 426 81 b 211 211 267 81 211 131 b 417 360 211 301 282 344 l 553 376 z "},"ą":{"ha":810,"x_min":0,"x_max":0,"o":"m 781 57 l 781 65 b 660 225 713 81 660 117 l 660 432 b 406 722 660 621 576 722 b 138 442 243 722 138 593 l 147 442 b 372 626 167 551 244 626 b 553 400 496 626 553 572 l 428 400 b 97 190 201 400 97 324 b 310 -14 97 57 192 -14 b 557 151 424 -14 511 74 l 567 149 l 554 -6 b 451 -183 499 -61 451 -121 b 556 -268 451 -235 496 -268 b 700 -186 600 -268 649 -243 l 692 -176 b 599 -211 660 -201 635 -211 b 521 -143 554 -211 521 -186 b 590 -6 521 -96 549 -54 z m 553 178 b 347 81 486 113 426 81 b 211 211 267 81 211 131 b 417 360 211 301 282 344 l 553 376 z "},"æ":{"ha":1264,"x_min":0,"x_max":0,"o":"m 1215 236 l 1207 240 b 932 104 1150 157 1063 104 b 663 347 788 104 681 204 l 1131 332 l 1160 365 l 1160 428 b 893 722 1160 564 1118 722 b 654 508 767 722 686 631 b 406 722 633 649 551 722 b 138 442 243 722 138 593 l 147 442 b 372 626 167 551 244 626 b 553 400 496 626 553 572 l 428 400 b 97 190 201 400 97 324 b 310 -14 97 57 192 -14 b 607 211 431 -14 519 76 b 908 -14 644 75 749 -14 b 1215 236 1093 -14 1183 126 z m 892 607 b 1117 428 1044 607 1117 504 l 663 428 b 892 607 679 539 774 607 z m 553 178 b 347 81 486 113 426 81 b 211 211 267 81 211 131 b 417 360 211 301 282 344 l 553 376 z "},"ǽ":{"ha":1264,"x_min":0,"x_max":0,"o":"m 822 1000 l 524 790 l 529 781 l 875 917 b 822 1000 874 958 863 979 z m 1215 236 l 1207 240 b 932 104 1150 157 1063 104 b 663 347 788 104 681 204 l 1131 332 l 1160 365 l 1160 428 b 893 722 1160 564 1118 722 b 654 508 767 722 686 631 b 406 722 633 649 551 722 b 138 442 243 722 138 593 l 147 442 b 372 626 167 551 244 626 b 553 400 496 626 553 572 l 428 400 b 97 190 201 400 97 324 b 310 -14 97 57 192 -14 b 607 211 431 -14 519 76 b 908 -14 644 75 749 -14 b 1215 236 1093 -14 1183 126 z m 892 607 b 1117 428 1044 607 1117 504 l 663 428 b 892 607 679 539 774 607 z m 553 178 b 347 81 486 113 426 81 b 211 211 267 81 211 131 b 417 360 211 301 282 344 l 553 376 z "},"ć":{"ha":736,"x_min":0,"x_max":0,"o":"m 558 1000 l 260 790 l 265 781 l 611 917 b 558 1000 610 958 599 979 z m 388 -14 b 694 236 572 -14 663 126 l 686 240 b 411 104 629 157 542 104 b 136 363 250 104 136 213 b 354 606 136 511 226 606 b 528 549 439 606 488 582 l 571 351 l 581 351 l 617 653 b 410 722 582 685 501 722 b 69 336 186 722 69 558 b 388 -14 69 133 182 -14 z "},"ĉ":{"ha":736,"x_min":0,"x_max":0,"o":"m 592 778 l 599 786 l 394 1000 l 190 786 l 197 778 l 394 894 z m 388 -14 b 694 236 572 -14 663 126 l 686 240 b 411 104 629 157 542 104 b 136 363 250 104 136 213 b 354 606 136 511 226 606 b 528 549 439 606 488 582 l 571 351 l 581 351 l 617 653 b 410 722 582 685 501 722 b 69 336 186 722 69 558 b 388 -14 69 133 182 -14 z "},"č":{"ha":736,"x_min":0,"x_max":0,"o":"m 197 1000 l 190 992 l 394 778 l 599 992 l 592 1000 l 394 883 z m 388 -14 b 694 236 572 -14 663 126 l 686 240 b 411 104 629 157 542 104 b 136 363 250 104 136 213 b 354 606 136 511 226 606 b 528 549 439 606 488 582 l 571 351 l 581 351 l 617 653 b 410 722 582 685 501 722 b 69 336 186 722 69 558 b 388 -14 69 133 182 -14 z "},"ċ":{"ha":736,"x_min":0,"x_max":0,"o":"m 322 922 b 394 850 322 882 357 850 b 469 922 438 850 469 882 b 394 996 469 963 438 996 b 322 922 357 996 322 963 z m 388 -14 b 694 236 572 -14 663 126 l 686 240 b 411 104 629 157 542 104 b 136 363 250 104 136 213 b 354 606 136 511 226 606 b 528 549 439 606 488 582 l 571 351 l 581 351 l 617 653 b 410 722 582 685 501 722 b 69 336 186 722 69 558 b 388 -14 69 133 182 -14 z "},"ç":{"ha":736,"x_min":0,"x_max":0,"o":"m 522 -176 b 417 -87 522 -107 475 -87 l 399 -87 l 399 -14 b 694 236 576 -8 663 129 l 686 240 b 411 104 629 157 542 104 b 136 363 250 104 136 213 b 354 606 136 511 226 606 b 528 549 439 606 488 582 l 571 351 l 581 351 l 617 653 b 410 722 582 685 501 722 b 69 336 186 722 69 558 b 369 -14 69 139 175 -6 l 310 -124 l 317 -129 b 368 -125 335 -128 347 -125 b 425 -169 400 -125 425 -143 b 357 -218 425 -211 388 -218 b 275 -199 332 -218 301 -210 l 269 -208 b 399 -268 304 -237 350 -268 b 522 -176 463 -268 522 -240 z "},"ď":{"ha":899,"x_min":0,"x_max":0,"o":"m 869 1056 l 869 799 l 881 799 l 975 1047 b 869 1056 942 1069 908 1074 z m 653 -18 l 878 72 l 878 82 b 758 221 815 97 758 128 l 758 1056 l 753 1060 l 531 969 l 531 960 b 650 800 597 944 650 908 l 650 588 b 397 722 600 675 500 722 b 69 343 215 722 69 567 b 383 -14 69 131 192 -14 b 658 188 510 -14 608 65 l 668 183 l 647 -14 z m 429 644 b 650 533 522 644 608 603 l 650 222 b 425 101 590 150 522 101 b 181 363 283 101 181 208 b 429 644 181 529 282 644 z "},"đ":{"ha":899,"x_min":0,"x_max":0,"o":"m 653 -18 l 878 72 l 878 82 b 758 221 815 97 758 128 l 758 814 b 878 813 818 813 864 813 l 878 854 b 758 853 864 854 818 854 l 758 1056 l 753 1060 l 531 969 l 531 960 b 646 853 588 947 633 919 b 408 854 539 853 429 854 l 408 813 b 650 814 431 813 540 814 l 650 588 b 397 722 600 675 500 722 b 69 343 215 722 69 567 b 383 -14 69 131 192 -14 b 658 188 510 -14 608 65 l 668 183 l 647 -14 z m 429 644 b 650 533 522 644 608 603 l 650 222 b 425 101 590 150 522 101 b 181 363 283 101 181 208 b 429 644 181 529 282 644 z "},"ð":{"ha":828,"x_min":0,"x_max":0,"o":"m 374 704 b 585 839 400 724 496 783 b 703 500 660 774 703 656 b 690 372 703 454 699 411 b 389 639 658 540 522 639 b 69 313 189 639 69 493 b 403 -14 69 139 194 -14 b 758 500 624 -14 758 190 b 667 892 758 667 726 801 b 758 949 710 918 743 939 l 758 1000 b 642 925 740 988 696 958 b 456 1014 593 982 531 1014 b 181 794 344 1014 254 947 l 192 794 b 425 897 261 861 331 897 b 549 865 471 897 513 886 b 374 756 471 817 397 771 z m 122 313 b 389 521 122 443 222 521 b 676 322 543 521 660 446 b 389 104 632 185 532 104 b 122 313 238 104 122 185 z "},"é":{"ha":757,"x_min":0,"x_max":0,"o":"m 557 1000 l 258 790 l 264 781 l 610 917 b 557 1000 608 958 597 979 z m 708 236 l 700 240 b 425 104 643 157 556 104 b 156 347 281 104 174 204 l 624 332 l 653 365 l 653 428 b 388 722 653 564 610 722 b 83 336 182 722 83 558 b 401 -14 83 133 196 -14 b 708 236 586 -14 676 126 z m 385 607 b 610 428 538 607 610 504 l 156 428 b 385 607 172 539 267 607 z "},"è":{"ha":757,"x_min":0,"x_max":0,"o":"m 321 1033 b 240 978 276 1031 257 1015 l 456 779 l 464 786 z m 708 236 l 700 240 b 425 104 643 157 556 104 b 156 347 281 104 174 204 l 624 332 l 653 365 l 653 428 b 388 722 653 564 610 722 b 83 336 182 722 83 558 b 401 -14 83 133 196 -14 b 708 236 586 -14 676 126 z m 385 607 b 610 428 538 607 610 504 l 156 428 b 385 607 172 539 267 607 z "},"ê":{"ha":757,"x_min":0,"x_max":0,"o":"m 590 778 l 597 786 l 393 1000 l 189 786 l 196 778 l 393 894 z m 708 236 l 700 240 b 425 104 643 157 556 104 b 156 347 281 104 174 204 l 624 332 l 653 365 l 653 428 b 388 722 653 564 610 722 b 83 336 182 722 83 558 b 401 -14 83 133 196 -14 b 708 236 586 -14 676 126 z m 385 607 b 610 428 538 607 610 504 l 156 428 b 385 607 172 539 267 607 z "},"ě":{"ha":757,"x_min":0,"x_max":0,"o":"m 196 1000 l 189 992 l 393 778 l 597 992 l 590 1000 l 393 883 z m 708 236 l 700 240 b 425 104 643 157 556 104 b 156 347 281 104 174 204 l 624 332 l 653 365 l 653 428 b 388 722 653 564 610 722 b 83 336 182 722 83 558 b 401 -14 83 133 196 -14 b 708 236 586 -14 676 126 z m 385 607 b 610 428 538 607 610 504 l 156 428 b 385 607 172 539 267 607 z "},"ë":{"ha":757,"x_min":0,"x_max":0,"o":"m 454 922 b 526 850 454 882 489 850 b 601 922 569 850 601 882 b 526 996 601 963 569 996 b 454 922 489 996 454 963 z m 185 922 b 257 850 185 882 219 850 b 332 922 300 850 332 882 b 257 996 332 963 300 996 b 185 922 219 996 185 963 z m 708 236 l 700 240 b 425 104 643 157 556 104 b 156 347 281 104 174 204 l 624 332 l 653 365 l 653 428 b 388 722 653 564 610 722 b 83 336 182 722 83 558 b 401 -14 83 133 196 -14 b 708 236 586 -14 676 126 z m 385 607 b 610 428 538 607 610 504 l 156 428 b 385 607 172 539 267 607 z "},"ė":{"ha":757,"x_min":0,"x_max":0,"o":"m 321 922 b 393 850 321 882 356 850 b 468 922 436 850 468 882 b 393 996 468 963 436 996 b 321 922 356 996 321 963 z m 708 236 l 700 240 b 425 104 643 157 556 104 b 156 347 281 104 174 204 l 624 332 l 653 365 l 653 428 b 388 722 653 564 610 722 b 83 336 182 722 83 558 b 401 -14 83 133 196 -14 b 708 236 586 -14 676 126 z m 385 607 b 610 428 538 607 610 504 l 156 428 b 385 607 172 539 267 607 z "},"ē":{"ha":757,"x_min":0,"x_max":0,"o":"m 560 878 l 560 960 l 226 960 l 226 878 z m 708 236 l 700 240 b 425 104 643 157 556 104 b 156 347 281 104 174 204 l 624 332 l 653 365 l 653 428 b 388 722 653 564 610 722 b 83 336 182 722 83 558 b 401 -14 83 133 196 -14 b 708 236 586 -14 676 126 z m 385 607 b 610 428 538 607 610 504 l 156 428 b 385 607 172 539 267 607 z "},"ĕ":{"ha":757,"x_min":0,"x_max":0,"o":"m 207 1000 b 393 842 222 915 274 842 b 579 1000 524 842 564 915 l 565 1000 b 393 918 550 957 496 918 b 221 1000 304 918 236 957 z m 708 236 l 700 240 b 425 104 643 157 556 104 b 156 347 281 104 174 204 l 624 332 l 653 365 l 653 428 b 388 722 653 564 610 722 b 83 336 182 722 83 558 b 401 -14 83 133 196 -14 b 708 236 586 -14 676 126 z m 385 607 b 610 428 538 607 610 504 l 156 428 b 385 607 172 539 267 607 z "},"ę":{"ha":757,"x_min":0,"x_max":0,"o":"m 626 -186 l 618 -176 b 525 -211 586 -201 561 -211 b 447 -143 481 -211 447 -186 b 708 236 447 -14 660 85 l 700 240 b 425 104 643 157 556 104 b 156 347 281 104 174 204 l 624 332 l 653 365 l 653 428 b 388 722 653 564 610 722 b 83 336 182 722 83 558 b 401 -14 83 133 196 -14 b 481 -4 431 -14 456 -11 b 378 -183 425 -61 378 -121 b 482 -268 378 -235 422 -268 b 626 -186 526 -268 575 -243 z m 385 607 b 610 428 538 607 610 504 l 156 428 b 385 607 172 539 267 607 z "},"ĝ":{"ha":764,"x_min":0,"x_max":0,"o":"m 565 778 l 572 786 l 368 1000 l 164 786 l 171 778 l 368 894 z m 115 451 b 235 239 115 357 160 282 b 104 94 169 206 104 174 b 185 -12 104 44 138 6 b 50 -149 115 -32 50 -83 b 368 -319 50 -239 133 -319 b 713 -110 604 -319 713 -236 b 482 89 713 1 663 89 l 332 89 b 193 156 229 89 193 110 b 258 226 193 192 224 213 b 368 207 289 214 326 207 b 619 478 518 207 619 335 b 544 654 619 543 592 606 l 722 606 l 722 739 l 519 675 b 368 722 479 703 429 722 b 115 451 217 722 115 606 z m 393 311 b 168 478 263 311 168 365 b 340 611 168 564 240 611 b 568 447 460 611 568 553 b 393 311 568 351 485 311 z m 497 -26 b 665 -110 615 -26 665 -53 b 369 -212 665 -179 582 -212 b 129 -112 192 -212 129 -169 b 219 -21 129 -72 158 -40 b 328 -26 249 -25 288 -26 z "},"ğ":{"ha":764,"x_min":0,"x_max":0,"o":"m 182 1000 b 368 842 197 915 249 842 b 554 1000 499 842 539 915 l 540 1000 b 368 918 525 957 471 918 b 196 1000 279 918 211 957 z m 115 451 b 235 239 115 357 160 282 b 104 94 169 206 104 174 b 185 -12 104 44 138 6 b 50 -149 115 -32 50 -83 b 368 -319 50 -239 133 -319 b 713 -110 604 -319 713 -236 b 482 89 713 1 663 89 l 332 89 b 193 156 229 89 193 110 b 258 226 193 192 224 213 b 368 207 289 214 326 207 b 619 478 518 207 619 335 b 544 654 619 543 592 606 l 722 606 l 722 739 l 519 675 b 368 722 479 703 429 722 b 115 451 217 722 115 606 z m 393 311 b 168 478 263 311 168 365 b 340 611 168 564 240 611 b 568 447 460 611 568 553 b 393 311 568 351 485 311 z m 497 -26 b 665 -110 615 -26 665 -53 b 369 -212 665 -179 582 -212 b 129 -112 192 -212 129 -169 b 219 -21 129 -72 158 -40 b 328 -26 249 -25 288 -26 z "},"ġ":{"ha":764,"x_min":0,"x_max":0,"o":"m 296 922 b 368 850 296 882 331 850 b 443 922 411 850 443 882 b 368 996 443 963 411 996 b 296 922 331 996 296 963 z m 115 451 b 235 239 115 357 160 282 b 104 94 169 206 104 174 b 185 -12 104 44 138 6 b 50 -149 115 -32 50 -83 b 368 -319 50 -239 133 -319 b 713 -110 604 -319 713 -236 b 482 89 713 1 663 89 l 332 89 b 193 156 229 89 193 110 b 258 226 193 192 224 213 b 368 207 289 214 326 207 b 619 478 518 207 619 335 b 544 654 619 543 592 606 l 722 606 l 722 739 l 519 675 b 368 722 479 703 429 722 b 115 451 217 722 115 606 z m 393 311 b 168 478 263 311 168 365 b 340 611 168 564 240 611 b 568 447 460 611 568 553 b 393 311 568 351 485 311 z m 497 -26 b 665 -110 615 -26 665 -53 b 369 -212 665 -179 582 -212 b 129 -112 192 -212 129 -169 b 219 -21 129 -72 158 -40 b 328 -26 249 -25 288 -26 z "},"ģ":{"ha":764,"x_min":0,"x_max":0,"o":"m 424 782 l 424 1014 l 411 1015 l 322 800 b 424 782 353 772 381 767 z m 115 451 b 235 239 115 357 160 282 b 104 94 169 206 104 174 b 185 -12 104 44 138 6 b 50 -149 115 -32 50 -83 b 368 -319 50 -239 133 -319 b 713 -110 604 -319 713 -236 b 482 89 713 1 663 89 l 332 89 b 193 156 229 89 193 110 b 258 226 193 192 224 213 b 368 207 289 214 326 207 b 619 478 518 207 619 335 b 544 654 619 543 592 606 l 722 606 l 722 739 l 519 675 b 368 722 479 703 429 722 b 115 451 217 722 115 606 z m 393 311 b 168 478 263 311 168 365 b 340 611 168 564 240 611 b 568 447 460 611 568 553 b 393 311 568 351 485 311 z m 497 -26 b 665 -110 615 -26 665 -53 b 369 -212 665 -179 582 -212 b 129 -112 192 -212 129 -169 b 219 -21 129 -72 158 -40 b 328 -26 249 -25 288 -26 z "},"ĥ":{"ha":997,"x_min":0,"x_max":0,"o":"m 471 1111 l 475 1119 l 260 1268 l 44 1119 l 49 1111 l 260 1169 z m 313 1056 l 307 1060 l 85 969 l 85 960 b 206 800 153 944 206 908 l 206 488 b 178 54 206 335 194 214 l 69 7 l 69 0 l 453 0 l 453 7 l 314 67 l 314 493 b 528 610 383 564 442 610 b 711 393 628 610 711 556 b 688 56 711 311 704 186 l 572 7 l 572 0 l 956 0 l 956 7 l 817 67 l 817 432 b 586 722 817 639 719 722 b 310 518 456 722 379 628 l 300 522 b 313 776 306 588 313 689 z "},"ħ":{"ha":997,"x_min":0,"x_max":0,"o":"m 69 813 b 206 814 83 813 139 814 l 206 488 b 178 54 206 335 194 214 l 69 7 l 69 0 l 453 0 l 453 7 l 314 67 l 314 493 b 528 610 383 564 442 610 b 711 393 628 610 711 556 b 688 56 711 311 704 186 l 572 7 l 572 0 l 956 0 l 956 7 l 817 67 l 817 432 b 586 722 817 639 719 722 b 310 518 456 722 379 628 l 300 522 b 313 776 306 588 313 689 l 313 814 b 539 813 417 814 518 813 l 539 854 b 313 853 518 854 417 853 l 313 1056 l 307 1060 l 85 969 l 85 960 b 203 853 143 947 189 918 b 69 854 136 853 83 854 z "},"ı":{"ha":508,"x_min":0,"x_max":0,"o":"m 453 0 l 453 7 l 314 67 l 314 722 l 308 726 l 86 636 l 86 626 b 206 488 149 611 206 581 b 178 54 206 335 194 214 l 69 7 l 69 0 z "},"í":{"ha":508,"x_min":0,"x_max":0,"o":"m 426 1000 l 128 790 l 133 781 l 479 917 b 426 1000 478 958 467 979 z m 453 0 l 453 7 l 314 67 l 314 722 l 308 726 l 86 636 l 86 626 b 206 488 149 611 206 581 b 178 54 206 335 194 214 l 69 7 l 69 0 z "},"ì":{"ha":508,"x_min":0,"x_max":0,"o":"m 190 1033 b 110 978 146 1031 126 1015 l 325 779 l 333 786 z m 453 0 l 453 7 l 314 67 l 314 722 l 308 726 l 86 636 l 86 626 b 206 488 149 611 206 581 b 178 54 206 335 194 214 l 69 7 l 69 0 z "},"î":{"ha":508,"x_min":0,"x_max":0,"o":"m 460 778 l 467 786 l 263 1000 l 58 786 l 65 778 l 263 894 z m 453 0 l 453 7 l 314 67 l 314 722 l 308 726 l 86 636 l 86 626 b 206 488 149 611 206 581 b 178 54 206 335 194 214 l 69 7 l 69 0 z "},"ï":{"ha":508,"x_min":0,"x_max":0,"o":"m 324 922 b 396 850 324 882 358 850 b 471 922 439 850 471 882 b 396 996 471 963 439 996 b 324 922 358 996 324 963 z m 54 922 b 126 850 54 882 89 850 b 201 922 169 850 201 882 b 126 996 201 963 169 996 b 54 922 89 996 54 963 z m 453 0 l 453 7 l 314 67 l 314 722 l 308 726 l 86 636 l 86 626 b 206 488 149 611 206 581 b 178 54 206 335 194 214 l 69 7 l 69 0 z "},"":{"ha":508,"x_min":0,"x_max":0,"o":"m 190 922 b 263 850 190 882 225 850 b 338 922 306 850 338 882 b 263 996 338 963 306 996 b 190 922 225 996 190 963 z m 453 0 l 453 7 l 314 67 l 314 722 l 308 726 l 86 636 l 86 626 b 206 488 149 611 206 581 b 178 54 206 335 194 214 l 69 7 l 69 0 z "},"ĩ":{"ha":508,"x_min":0,"x_max":0,"o":"m 151 910 b 367 821 218 910 288 821 b 464 965 422 821 464 858 l 464 986 l 450 986 l 450 968 b 374 904 450 928 425 904 b 158 993 306 904 238 993 b 61 849 103 993 61 956 l 61 828 l 75 828 l 75 846 b 151 910 75 886 99 910 z m 453 0 l 453 7 l 314 67 l 314 722 l 308 726 l 86 636 l 86 626 b 206 488 149 611 206 581 b 178 54 206 335 194 214 l 69 7 l 69 0 z "},"ī":{"ha":508,"x_min":0,"x_max":0,"o":"m 429 878 l 429 960 l 96 960 l 96 878 z m 453 0 l 453 7 l 314 67 l 314 722 l 308 726 l 86 636 l 86 626 b 206 488 149 611 206 581 b 178 54 206 335 194 214 l 69 7 l 69 0 z "},"ĭ":{"ha":508,"x_min":0,"x_max":0,"o":"m 76 1000 b 263 842 92 915 143 842 b 449 1000 393 842 433 915 l 435 1000 b 263 918 419 957 365 918 b 90 1000 174 918 106 957 z m 453 0 l 453 7 l 314 67 l 314 722 l 308 726 l 86 636 l 86 626 b 206 488 149 611 206 581 b 178 54 206 335 194 214 l 69 7 l 69 0 z "},"į":{"ha":508,"x_min":0,"x_max":0,"o":"m 179 986 b 263 904 179 940 218 904 b 346 986 308 904 346 940 b 263 1069 346 1031 308 1069 b 179 986 218 1069 179 1031 z m 242 0 b 135 -183 182 -61 135 -121 b 239 -268 135 -235 179 -268 b 383 -186 283 -268 332 -243 l 375 -176 b 282 -211 343 -201 318 -211 b 204 -143 238 -211 204 -186 b 279 0 204 -94 235 -51 l 453 0 l 453 7 l 314 67 l 314 722 l 308 726 l 86 636 l 86 626 b 206 488 149 611 206 581 b 178 54 206 335 194 214 l 69 7 l 69 0 z "},"ĳ":{"ha":961,"x_min":0,"x_max":0,"o":"m 179 986 b 263 904 179 940 218 904 b 346 986 308 904 346 940 b 263 1069 346 1031 308 1069 b 179 986 218 1069 179 1031 z m 681 986 b 764 904 681 940 719 904 b 847 986 810 904 847 940 b 764 1069 847 1031 810 1069 b 681 986 719 1069 681 1031 z m 453 0 l 453 7 l 314 67 l 314 722 l 308 726 l 86 636 l 86 626 b 206 488 149 611 206 581 b 178 54 206 335 194 214 l 69 7 l 69 0 z m 578 -306 b 822 -61 751 -306 822 -221 l 822 722 l 817 726 l 588 636 l 588 626 b 710 482 653 611 710 578 l 710 -19 b 582 -296 710 -200 689 -278 z "},"ȷ":{"ha":453,"x_min":0,"x_max":0,"o":"m 69 -306 b 314 -61 243 -306 314 -221 l 314 722 l 308 726 l 79 636 l 79 626 b 201 482 144 611 201 578 l 201 -19 b 74 -296 201 -200 181 -278 z "},"ĵ":{"ha":453,"x_min":0,"x_max":0,"o":"m 453 778 l 460 786 l 256 1000 l 51 786 l 58 778 l 256 894 z m 69 -306 b 314 -61 243 -306 314 -221 l 314 722 l 308 726 l 79 636 l 79 626 b 201 482 144 611 201 578 l 201 -19 b 74 -296 201 -200 181 -278 z "},"ķ":{"ha":875,"x_min":0,"x_max":0,"o":"m 454 7 l 315 67 l 315 399 l 657 0 l 903 0 l 903 7 b 667 165 851 7 768 57 l 406 442 l 681 626 l 850 701 l 850 708 l 508 708 l 508 701 l 611 640 l 315 406 l 315 1056 l 310 1060 l 88 969 l 88 960 b 208 800 156 944 208 908 l 208 515 b 179 54 208 311 190 157 l 69 7 l 69 0 l 454 0 z m 422 -74 l 422 -306 l 435 -307 l 524 -92 b 422 -74 493 -64 465 -58 z "},"ĸ":{"ha":875,"x_min":0,"x_max":0,"o":"m 453 0 l 453 7 l 314 67 l 314 722 l 308 726 l 86 636 l 86 626 b 206 488 149 611 206 581 b 178 54 206 335 194 214 l 69 7 l 69 0 z m 315 399 l 657 0 l 903 0 l 903 7 b 667 165 851 7 768 57 l 406 442 l 681 626 l 850 701 l 850 708 l 508 708 l 508 701 l 611 640 l 315 406 z "},"ĺ":{"ha":482,"x_min":0,"x_max":0,"o":"m 438 1264 l 94 1135 l 97 1125 l 467 1169 b 438 1264 476 1211 471 1233 z m 454 7 l 315 67 l 315 1056 l 310 1060 l 88 969 l 88 960 b 208 800 156 944 208 908 l 208 515 b 179 54 208 311 190 157 l 69 7 l 69 0 l 454 0 z "},"ľ":{"ha":482,"x_min":0,"x_max":0,"o":"m 426 1056 l 426 799 l 438 799 l 532 1047 b 426 1056 499 1069 465 1074 z m 454 7 l 315 67 l 315 1056 l 310 1060 l 88 969 l 88 960 b 208 800 156 944 208 908 l 208 515 b 179 54 208 311 190 157 l 69 7 l 69 0 l 454 0 z "},"ŀ":{"ha":482,"x_min":0,"x_max":0,"o":"m 454 7 l 315 67 l 315 1056 l 310 1060 l 88 969 l 88 960 b 208 800 156 944 208 908 l 208 515 b 179 54 208 311 190 157 l 69 7 l 69 0 l 454 0 z m 421 535 b 493 463 421 494 456 463 b 568 535 536 463 568 494 b 493 608 568 575 536 608 b 421 535 456 608 421 575 z "},"ļ":{"ha":482,"x_min":0,"x_max":0,"o":"m 454 7 l 315 67 l 315 1056 l 310 1060 l 88 969 l 88 960 b 208 800 156 944 208 908 l 208 515 b 179 54 208 311 190 157 l 69 7 l 69 0 l 454 0 z m 204 -74 l 204 -306 l 217 -307 l 306 -92 b 204 -74 275 -64 247 -58 z "},"ł":{"ha":482,"x_min":0,"x_max":0,"o":"m 69 426 b 208 517 89 440 144 476 l 208 515 b 179 54 208 311 190 157 l 69 7 l 69 0 l 454 0 l 454 7 l 315 67 l 315 583 b 454 671 379 624 435 658 l 454 722 b 315 633 435 708 379 672 l 315 1056 l 310 1060 l 88 969 l 88 960 b 208 800 156 944 208 908 l 208 565 b 69 478 144 526 89 490 z "},"ń":{"ha":997,"x_min":0,"x_max":0,"o":"m 676 1000 l 378 790 l 383 781 l 729 917 b 676 1000 728 958 717 979 z m 453 0 l 453 7 l 314 67 l 314 493 b 528 610 383 564 442 610 b 711 393 628 610 711 556 b 688 56 711 311 704 186 l 572 7 l 572 0 l 956 0 l 956 7 l 817 67 l 817 432 b 586 722 817 639 719 722 b 310 518 456 722 379 628 l 300 522 l 314 722 l 308 726 l 86 636 l 86 626 b 206 488 149 611 206 581 b 178 54 206 335 194 214 l 69 7 l 69 0 z "},"ň":{"ha":997,"x_min":0,"x_max":0,"o":"m 315 1000 l 308 992 l 513 778 l 717 992 l 710 1000 l 513 883 z m 453 0 l 453 7 l 314 67 l 314 493 b 528 610 383 564 442 610 b 711 393 628 610 711 556 b 688 56 711 311 704 186 l 572 7 l 572 0 l 956 0 l 956 7 l 817 67 l 817 432 b 586 722 817 639 719 722 b 310 518 456 722 379 628 l 300 522 l 314 722 l 308 726 l 86 636 l 86 626 b 206 488 149 611 206 581 b 178 54 206 335 194 214 l 69 7 l 69 0 z "},"ñ":{"ha":997,"x_min":0,"x_max":0,"o":"m 401 910 b 617 821 468 910 538 821 b 714 965 672 821 714 858 l 714 986 l 700 986 l 700 968 b 624 904 700 928 675 904 b 408 993 556 904 488 993 b 311 849 353 993 311 956 l 311 828 l 325 828 l 325 846 b 401 910 325 886 349 910 z m 453 0 l 453 7 l 314 67 l 314 493 b 528 610 383 564 442 610 b 711 393 628 610 711 556 b 688 56 711 311 704 186 l 572 7 l 572 0 l 956 0 l 956 7 l 817 67 l 817 432 b 586 722 817 639 719 722 b 310 518 456 722 379 628 l 300 522 l 314 722 l 308 726 l 86 636 l 86 626 b 206 488 149 611 206 581 b 178 54 206 335 194 214 l 69 7 l 69 0 z "},"ņ":{"ha":997,"x_min":0,"x_max":0,"o":"m 453 0 l 453 7 l 314 67 l 314 493 b 528 610 383 564 442 610 b 711 393 628 610 711 556 b 688 56 711 311 704 186 l 572 7 l 572 0 l 956 0 l 956 7 l 817 67 l 817 432 b 586 722 817 639 719 722 b 310 518 456 722 379 628 l 300 522 l 314 722 l 308 726 l 86 636 l 86 626 b 206 488 149 611 206 581 b 178 54 206 335 194 214 l 69 7 l 69 0 z m 467 -74 l 467 -306 l 479 -307 l 568 -92 b 467 -74 538 -64 510 -58 z "},"ŋ":{"ha":963,"x_min":0,"x_max":0,"o":"m 711 8 b 528 -296 711 -190 681 -269 l 524 -306 b 817 -33 738 -306 817 -211 l 817 432 b 586 722 817 639 719 722 b 310 518 456 722 379 628 l 300 522 l 314 722 l 308 726 l 86 636 l 86 626 b 206 488 149 611 206 581 b 178 54 206 335 194 214 l 69 7 l 69 0 l 453 0 l 453 7 l 314 67 l 314 493 b 528 610 383 564 442 610 b 711 393 628 610 711 556 z "},"ó":{"ha":814,"x_min":0,"x_max":0,"o":"m 581 1000 l 282 790 l 288 781 l 633 917 b 581 1000 632 958 621 979 z m 69 336 b 392 -14 69 133 192 -14 b 744 371 614 -14 744 168 b 417 722 744 553 632 722 b 69 336 197 722 69 558 z m 424 108 b 135 374 264 108 135 214 b 389 596 135 504 231 596 b 675 333 529 596 675 500 b 424 108 675 192 564 108 z "},"ò":{"ha":814,"x_min":0,"x_max":0,"o":"m 344 1033 b 264 978 300 1031 281 1015 l 479 779 l 488 786 z m 69 336 b 392 -14 69 133 192 -14 b 744 371 614 -14 744 168 b 417 722 744 553 632 722 b 69 336 197 722 69 558 z m 424 108 b 135 374 264 108 135 214 b 389 596 135 504 231 596 b 675 333 529 596 675 500 b 424 108 675 192 564 108 z "},"ô":{"ha":814,"x_min":0,"x_max":0,"o":"m 614 778 l 621 786 l 417 1000 l 213 786 l 219 778 l 417 894 z m 69 336 b 392 -14 69 133 192 -14 b 744 371 614 -14 744 168 b 417 722 744 553 632 722 b 69 336 197 722 69 558 z m 424 108 b 135 374 264 108 135 214 b 389 596 135 504 231 596 b 675 333 529 596 675 500 b 424 108 675 192 564 108 z "},"ö":{"ha":814,"x_min":0,"x_max":0,"o":"m 478 922 b 550 850 478 882 513 850 b 625 922 593 850 625 882 b 550 996 625 963 593 996 b 478 922 513 996 478 963 z m 208 922 b 281 850 208 882 243 850 b 356 922 324 850 356 882 b 281 996 356 963 324 996 b 208 922 243 996 208 963 z m 69 336 b 392 -14 69 133 192 -14 b 744 371 614 -14 744 168 b 417 722 744 553 632 722 b 69 336 197 722 69 558 z m 424 108 b 135 374 264 108 135 214 b 389 596 135 504 231 596 b 675 333 529 596 675 500 b 424 108 675 192 564 108 z "},"õ":{"ha":814,"x_min":0,"x_max":0,"o":"m 306 910 b 521 821 372 910 442 821 b 618 965 576 821 618 858 l 618 986 l 604 986 l 604 968 b 528 904 604 928 579 904 b 313 993 460 904 392 993 b 215 849 257 993 215 956 l 215 828 l 229 828 l 229 846 b 306 910 229 886 253 910 z m 69 336 b 392 -14 69 133 192 -14 b 744 371 614 -14 744 168 b 417 722 744 553 632 722 b 69 336 197 722 69 558 z m 424 108 b 135 374 264 108 135 214 b 389 596 135 504 231 596 b 675 333 529 596 675 500 b 424 108 675 192 564 108 z "},"ō":{"ha":814,"x_min":0,"x_max":0,"o":"m 583 878 l 583 960 l 250 960 l 250 878 z m 69 336 b 392 -14 69 133 192 -14 b 744 371 614 -14 744 168 b 417 722 744 553 632 722 b 69 336 197 722 69 558 z m 424 108 b 135 374 264 108 135 214 b 389 596 135 504 231 596 b 675 333 529 596 675 500 b 424 108 675 192 564 108 z "},"ŏ":{"ha":814,"x_min":0,"x_max":0,"o":"m 231 1000 b 417 842 246 915 297 842 b 603 1000 547 842 588 915 l 589 1000 b 417 918 574 957 519 918 b 244 1000 328 918 260 957 z m 69 336 b 392 -14 69 133 192 -14 b 744 371 614 -14 744 168 b 417 722 744 553 632 722 b 69 336 197 722 69 558 z m 424 108 b 135 374 264 108 135 214 b 389 596 135 504 231 596 b 675 333 529 596 675 500 b 424 108 675 192 564 108 z "},"ő":{"ha":814,"x_min":0,"x_max":0,"o":"m 646 1033 l 506 785 l 514 778 l 726 978 b 646 1033 710 1015 690 1031 z m 451 1033 l 311 785 l 319 778 l 532 978 b 451 1033 515 1015 496 1031 z m 69 336 b 392 -14 69 133 192 -14 b 744 371 614 -14 744 168 b 417 722 744 553 632 722 b 69 336 197 722 69 558 z m 424 108 b 135 374 264 108 135 214 b 389 596 135 504 231 596 b 675 333 529 596 675 500 b 424 108 675 192 564 108 z "},"ø":{"ha":814,"x_min":0,"x_max":0,"o":"m 69 0 l 125 0 b 176 64 142 21 160 43 b 392 -14 231 14 304 -14 b 744 371 614 -14 744 168 b 654 622 744 465 714 557 b 731 708 679 651 706 679 l 675 708 b 626 650 658 689 643 669 b 417 722 574 694 504 722 b 69 336 197 722 69 558 b 150 92 69 239 97 153 b 69 0 124 61 96 31 z m 135 374 b 389 596 135 504 231 596 b 546 554 443 596 499 582 b 224 176 440 426 332 301 b 135 374 169 224 135 292 z m 424 108 b 253 156 360 108 301 125 b 576 533 360 283 467 408 b 675 333 635 489 675 421 b 424 108 675 192 564 108 z "},"ǿ":{"ha":814,"x_min":0,"x_max":0,"o":"m 581 1000 l 282 790 l 288 781 l 633 917 b 581 1000 632 958 621 979 z m 69 0 l 125 0 b 176 64 142 21 160 43 b 392 -14 231 14 304 -14 b 744 371 614 -14 744 168 b 654 622 744 465 714 557 b 731 708 679 651 706 679 l 675 708 b 626 650 658 689 643 669 b 417 722 574 694 504 722 b 69 336 197 722 69 558 b 150 92 69 239 97 153 b 69 0 124 61 96 31 z m 135 374 b 389 596 135 504 231 596 b 546 554 443 596 499 582 b 224 176 440 426 332 301 b 135 374 169 224 135 292 z m 424 108 b 253 156 360 108 301 125 b 576 533 360 283 467 408 b 675 333 635 489 675 421 b 424 108 675 192 564 108 z "},"œ":{"ha":1349,"x_min":0,"x_max":0,"o":"m 69 336 b 392 -14 69 133 192 -14 b 710 197 546 -14 657 75 b 1007 -14 750 69 853 -14 b 1314 236 1192 -14 1282 126 l 1306 240 b 1031 104 1249 157 1161 104 b 761 347 886 104 779 204 l 1229 332 l 1258 365 l 1258 428 b 993 722 1258 564 1215 722 b 717 521 850 722 760 643 b 417 722 671 636 569 722 b 69 336 197 722 69 558 z m 990 607 b 1215 428 1143 607 1215 504 l 761 428 b 990 607 778 539 872 607 z m 424 108 b 135 374 264 108 135 214 b 389 596 135 504 231 596 b 675 333 529 596 675 500 b 424 108 675 192 564 108 z "},"þ":{"ha":878,"x_min":0,"x_max":0,"o":"m 119 269 b 103 -249 119 17 113 -119 l -17 -299 l -17 -306 l 401 -306 l 401 -299 l 228 -240 l 228 121 b 481 -14 278 33 378 -14 b 808 365 663 -14 808 142 b 494 722 808 578 686 722 b 219 521 368 722 269 643 l 210 525 b 228 776 215 590 228 690 l 228 1056 l 222 1060 l 0 969 l 0 960 b 119 800 67 944 119 908 z m 449 64 b 228 175 356 64 269 106 l 228 486 b 453 607 288 558 356 607 b 697 346 594 607 697 500 b 449 64 697 179 596 64 z "},"ŕ":{"ha":717,"x_min":0,"x_max":0,"o":"m 575 1000 l 276 790 l 282 781 l 628 917 b 575 1000 626 958 615 979 z m 647 693 b 525 722 621 710 571 722 b 306 521 411 722 342 611 l 296 525 l 314 722 l 308 726 l 86 636 l 86 626 b 206 488 149 611 206 581 b 178 54 206 335 194 214 l 69 7 l 69 0 l 522 0 l 522 7 l 314 67 l 314 492 b 483 608 349 554 406 608 b 585 575 531 608 563 592 l 640 403 l 647 403 z "},"ř":{"ha":717,"x_min":0,"x_max":0,"o":"m 214 1000 l 207 992 l 411 778 l 615 992 l 608 1000 l 411 883 z m 647 693 b 525 722 621 710 571 722 b 306 521 411 722 342 611 l 296 525 l 314 722 l 308 726 l 86 636 l 86 626 b 206 488 149 611 206 581 b 178 54 206 335 194 214 l 69 7 l 69 0 l 522 0 l 522 7 l 314 67 l 314 492 b 483 608 349 554 406 608 b 585 575 531 608 563 592 l 640 403 l 647 403 z "},"ŗ":{"ha":717,"x_min":0,"x_max":0,"o":"m 647 693 b 525 722 621 710 571 722 b 306 521 411 722 342 611 l 296 525 l 314 722 l 308 726 l 86 636 l 86 626 b 206 488 149 611 206 581 b 178 54 206 335 194 214 l 69 7 l 69 0 l 522 0 l 522 7 l 314 67 l 314 492 b 483 608 349 554 406 608 b 585 575 531 608 563 592 l 640 403 l 647 403 z m 214 -74 l 214 -306 l 226 -307 l 315 -92 b 214 -74 285 -64 257 -58 z "},"ś":{"ha":732,"x_min":0,"x_max":0,"o":"m 536 1000 l 238 790 l 243 781 l 589 917 b 536 1000 588 958 576 979 z m 344 613 b 524 560 431 613 494 582 l 578 436 l 585 436 l 585 671 b 383 722 539 694 475 722 b 126 507 226 722 126 636 b 583 192 126 158 583 389 b 385 92 583 121 485 92 b 182 154 286 92 222 126 l 132 272 l 125 272 l 125 54 b 374 -14 151 33 246 -14 b 635 211 535 -14 635 60 b 174 517 635 546 174 315 b 344 613 174 576 236 613 z "},"ŝ":{"ha":732,"x_min":0,"x_max":0,"o":"m 569 778 l 576 786 l 372 1000 l 168 786 l 175 778 l 372 894 z m 344 613 b 524 560 431 613 494 582 l 578 436 l 585 436 l 585 671 b 383 722 539 694 475 722 b 126 507 226 722 126 636 b 583 192 126 158 583 389 b 385 92 583 121 485 92 b 182 154 286 92 222 126 l 132 272 l 125 272 l 125 54 b 374 -14 151 33 246 -14 b 635 211 535 -14 635 60 b 174 517 635 546 174 315 b 344 613 174 576 236 613 z "},"š":{"ha":732,"x_min":0,"x_max":0,"o":"m 175 1000 l 168 992 l 372 778 l 576 992 l 569 1000 l 372 883 z m 344 613 b 524 560 431 613 494 582 l 578 436 l 585 436 l 585 671 b 383 722 539 694 475 722 b 126 507 226 722 126 636 b 583 192 126 158 583 389 b 385 92 583 121 485 92 b 182 154 286 92 222 126 l 132 272 l 125 272 l 125 54 b 374 -14 151 33 246 -14 b 635 211 535 -14 635 60 b 174 517 635 546 174 315 b 344 613 174 576 236 613 z "},"ș":{"ha":732,"x_min":0,"x_max":0,"o":"m 344 613 b 524 560 431 613 494 582 l 578 436 l 585 436 l 585 671 b 383 722 539 694 475 722 b 126 507 226 722 126 636 b 583 192 126 158 583 389 b 385 92 583 121 485 92 b 182 154 286 92 222 126 l 132 272 l 125 272 l 125 54 b 374 -14 151 33 246 -14 b 635 211 535 -14 635 60 b 174 517 635 546 174 315 b 344 613 174 576 236 613 z m 339 -74 l 339 -306 l 351 -307 l 440 -92 b 339 -74 410 -64 382 -58 z "},"ş":{"ha":732,"x_min":0,"x_max":0,"o":"m 519 -176 b 414 -87 519 -107 472 -87 l 396 -87 l 396 -14 b 635 211 544 -7 635 67 b 174 517 635 546 174 315 b 344 613 174 576 236 613 b 524 560 431 613 494 582 l 578 436 l 585 436 l 585 671 b 383 722 539 694 475 722 b 126 507 226 722 126 636 b 583 192 126 158 583 389 b 385 92 583 121 485 92 b 182 154 286 92 222 126 l 132 272 l 125 272 l 125 54 b 367 -14 151 33 242 -12 l 307 -124 l 314 -129 b 365 -125 332 -128 344 -125 b 422 -169 397 -125 422 -143 b 354 -218 422 -211 385 -218 b 272 -199 329 -218 299 -210 l 267 -208 b 396 -268 301 -237 347 -268 b 519 -176 460 -268 519 -240 z "},"ß":{"ha":975,"x_min":0,"x_max":0,"o":"m 665 818 b 488 494 665 672 488 669 b 885 172 488 211 885 318 b 707 92 885 114 796 92 b 532 139 622 92 567 115 l 479 272 l 472 272 l 472 42 b 683 -14 496 24 585 -14 b 940 190 842 -14 940 56 b 560 539 940 490 560 351 b 778 850 556 676 778 674 b 514 1069 778 978 669 1069 b 208 706 349 1069 208 843 l 208 682 l 85 631 l 85 624 l 208 624 b 178 54 206 374 192 182 l 69 7 l 69 0 l 314 0 l 314 807 b 475 969 314 921 374 969 b 665 818 583 969 665 911 z "},"ť":{"ha":656,"x_min":0,"x_max":0,"o":"m 376 1056 l 376 799 l 388 799 l 482 1047 b 376 1056 449 1069 415 1074 z m 14 625 l 153 625 l 153 283 b 396 -14 153 89 235 -14 b 642 196 547 -14 608 94 l 633 199 b 435 83 589 135 543 83 b 260 318 326 83 260 138 l 260 625 l 586 625 l 586 708 l 260 708 l 260 914 l 253 914 b 14 632 203 768 140 686 z "},"ţ":{"ha":656,"x_min":0,"x_max":0,"o":"m 14 625 l 153 625 l 153 283 b 396 -14 153 89 235 -14 b 642 196 547 -14 608 94 l 633 199 b 435 83 589 135 543 83 b 260 318 326 83 260 138 l 260 625 l 586 625 l 586 708 l 260 708 l 260 914 l 253 914 b 14 632 203 768 140 686 z m 282 -74 l 282 -306 l 294 -307 l 383 -92 b 282 -74 353 -64 325 -58 z "},"ț":{"ha":656,"x_min":0,"x_max":0,"o":"m 14 625 l 153 625 l 153 283 b 396 -14 153 89 235 -14 b 642 196 547 -14 608 94 l 633 199 b 435 83 589 135 543 83 b 260 318 326 83 260 138 l 260 625 l 586 625 l 586 708 l 260 708 l 260 914 l 253 914 b 14 632 203 768 140 686 z m 282 -74 l 282 -306 l 294 -307 l 383 -92 b 282 -74 353 -64 325 -58 z "},"ŧ":{"ha":656,"x_min":0,"x_max":0,"o":"m 56 382 b 153 383 67 382 104 382 l 153 283 b 396 -14 153 89 235 -14 b 642 196 547 -14 608 94 l 633 199 b 435 83 589 135 543 83 b 260 318 326 83 260 138 l 260 383 b 525 382 375 383 501 383 l 525 424 b 260 422 501 422 375 422 l 260 625 l 586 625 l 586 708 l 260 708 l 260 914 l 253 914 b 14 632 203 768 140 686 l 14 625 l 153 625 l 153 422 b 56 424 104 424 67 424 z "},"ú":{"ha":921,"x_min":0,"x_max":0,"o":"m 622 1000 l 324 790 l 329 781 l 675 917 b 622 1000 674 958 663 979 z m 569 660 l 569 650 b 639 564 618 639 639 615 l 639 217 b 433 100 569 144 518 100 b 250 317 333 100 250 154 b 265 722 250 404 256 550 l 260 725 l 56 661 l 56 653 b 143 515 118 636 143 606 l 143 276 b 375 -14 143 71 240 -14 b 642 190 504 -14 572 81 l 653 186 l 639 -14 l 643 -17 l 865 57 l 865 65 b 744 204 801 79 744 113 b 774 722 744 410 754 542 l 768 725 z "},"ù":{"ha":921,"x_min":0,"x_max":0,"o":"m 386 1033 b 306 978 342 1031 322 1015 l 521 779 l 529 786 z m 569 660 l 569 650 b 639 564 618 639 639 615 l 639 217 b 433 100 569 144 518 100 b 250 317 333 100 250 154 b 265 722 250 404 256 550 l 260 725 l 56 661 l 56 653 b 143 515 118 636 143 606 l 143 276 b 375 -14 143 71 240 -14 b 642 190 504 -14 572 81 l 653 186 l 639 -14 l 643 -17 l 865 57 l 865 65 b 744 204 801 79 744 113 b 774 722 744 410 754 542 l 768 725 z "},"û":{"ha":921,"x_min":0,"x_max":0,"o":"m 656 778 l 663 786 l 458 1000 l 254 786 l 261 778 l 458 894 z m 569 660 l 569 650 b 639 564 618 639 639 615 l 639 217 b 433 100 569 144 518 100 b 250 317 333 100 250 154 b 265 722 250 404 256 550 l 260 725 l 56 661 l 56 653 b 143 515 118 636 143 606 l 143 276 b 375 -14 143 71 240 -14 b 642 190 504 -14 572 81 l 653 186 l 639 -14 l 643 -17 l 865 57 l 865 65 b 744 204 801 79 744 113 b 774 722 744 410 754 542 l 768 725 z "},"ü":{"ha":921,"x_min":0,"x_max":0,"o":"m 519 922 b 592 850 519 882 554 850 b 667 922 635 850 667 882 b 592 996 667 963 635 996 b 519 922 554 996 519 963 z m 250 922 b 322 850 250 882 285 850 b 397 922 365 850 397 882 b 322 996 397 963 365 996 b 250 922 285 996 250 963 z m 569 660 l 569 650 b 639 564 618 639 639 615 l 639 217 b 433 100 569 144 518 100 b 250 317 333 100 250 154 b 265 722 250 404 256 550 l 260 725 l 56 661 l 56 653 b 143 515 118 636 143 606 l 143 276 b 375 -14 143 71 240 -14 b 642 190 504 -14 572 81 l 653 186 l 639 -14 l 643 -17 l 865 57 l 865 65 b 744 204 801 79 744 113 b 774 722 744 410 754 542 l 768 725 z "},"ũ":{"ha":921,"x_min":0,"x_max":0,"o":"m 347 910 b 563 821 414 910 483 821 b 660 965 618 821 660 858 l 660 986 l 646 986 l 646 968 b 569 904 646 928 621 904 b 354 993 501 904 433 993 b 257 849 299 993 257 956 l 257 828 l 271 828 l 271 846 b 347 910 271 886 294 910 z m 569 660 l 569 650 b 639 564 618 639 639 615 l 639 217 b 433 100 569 144 518 100 b 250 317 333 100 250 154 b 265 722 250 404 256 550 l 260 725 l 56 661 l 56 653 b 143 515 118 636 143 606 l 143 276 b 375 -14 143 71 240 -14 b 642 190 504 -14 572 81 l 653 186 l 639 -14 l 643 -17 l 865 57 l 865 65 b 744 204 801 79 744 113 b 774 722 744 410 754 542 l 768 725 z "},"ū":{"ha":921,"x_min":0,"x_max":0,"o":"m 625 878 l 625 960 l 292 960 l 292 878 z m 569 660 l 569 650 b 639 564 618 639 639 615 l 639 217 b 433 100 569 144 518 100 b 250 317 333 100 250 154 b 265 722 250 404 256 550 l 260 725 l 56 661 l 56 653 b 143 515 118 636 143 606 l 143 276 b 375 -14 143 71 240 -14 b 642 190 504 -14 572 81 l 653 186 l 639 -14 l 643 -17 l 865 57 l 865 65 b 744 204 801 79 744 113 b 774 722 744 410 754 542 l 768 725 z "},"ŭ":{"ha":921,"x_min":0,"x_max":0,"o":"m 272 1000 b 458 842 288 915 339 842 b 644 1000 589 842 629 915 l 631 1000 b 458 918 615 957 561 918 b 286 1000 369 918 301 957 z m 569 660 l 569 650 b 639 564 618 639 639 615 l 639 217 b 433 100 569 144 518 100 b 250 317 333 100 250 154 b 265 722 250 404 256 550 l 260 725 l 56 661 l 56 653 b 143 515 118 636 143 606 l 143 276 b 375 -14 143 71 240 -14 b 642 190 504 -14 572 81 l 653 186 l 639 -14 l 643 -17 l 865 57 l 865 65 b 744 204 801 79 744 113 b 774 722 744 410 754 542 l 768 725 z "},"ů":{"ha":921,"x_min":0,"x_max":0,"o":"m 317 922 b 458 836 317 874 368 836 b 603 922 560 836 603 874 b 458 1010 603 969 558 1010 b 317 922 367 1010 317 969 z m 400 922 b 458 982 400 954 422 982 b 519 922 500 982 519 954 b 458 864 519 889 500 864 b 400 922 422 864 400 889 z m 569 660 l 569 650 b 639 564 618 639 639 615 l 639 217 b 433 100 569 144 518 100 b 250 317 333 100 250 154 b 265 722 250 404 256 550 l 260 725 l 56 661 l 56 653 b 143 515 118 636 143 606 l 143 276 b 375 -14 143 71 240 -14 b 642 190 504 -14 572 81 l 653 186 l 639 -14 l 643 -17 l 865 57 l 865 65 b 744 204 801 79 744 113 b 774 722 744 410 754 542 l 768 725 z "},"ű":{"ha":921,"x_min":0,"x_max":0,"o":"m 688 1033 l 547 785 l 556 778 l 768 978 b 688 1033 751 1015 732 1031 z m 493 1033 l 353 785 l 361 778 l 574 978 b 493 1033 557 1015 538 1031 z m 569 660 l 569 650 b 639 564 618 639 639 615 l 639 217 b 433 100 569 144 518 100 b 250 317 333 100 250 154 b 265 722 250 404 256 550 l 260 725 l 56 661 l 56 653 b 143 515 118 636 143 606 l 143 276 b 375 -14 143 71 240 -14 b 642 190 504 -14 572 81 l 653 186 l 639 -14 l 643 -17 l 865 57 l 865 65 b 744 204 801 79 744 113 b 774 722 744 410 754 542 l 768 725 z "},"ų":{"ha":921,"x_min":0,"x_max":0,"o":"m 639 0 b 532 -183 579 -61 532 -121 b 636 -268 532 -235 576 -268 b 781 -186 681 -268 729 -243 l 772 -176 b 679 -211 740 -201 715 -211 b 601 -143 635 -211 601 -186 b 669 -8 601 -97 629 -56 l 865 57 l 865 65 b 744 204 801 79 744 113 b 774 722 744 410 754 542 l 768 725 l 569 660 l 569 650 b 639 564 618 639 639 615 l 639 217 b 433 100 569 144 518 100 b 250 317 333 100 250 154 b 265 722 250 404 256 550 l 260 725 l 56 661 l 56 653 b 143 515 118 636 143 606 l 143 276 b 375 -14 143 71 240 -14 b 642 190 504 -14 572 81 l 653 186 l 640 0 z "},"ẃ":{"ha":1221,"x_min":0,"x_max":0,"o":"m 796 1000 l 497 790 l 503 781 l 849 917 b 796 1000 847 958 836 979 z m 932 708 l 932 701 l 1039 639 l 875 154 l 693 632 l 803 701 l 803 708 l 443 708 l 443 701 l 553 638 l 569 594 l 421 154 l 231 643 l 340 701 l 340 708 l 0 708 l 0 701 l 92 650 l 371 -28 l 378 -28 l 608 504 l 825 -28 l 832 -28 l 1118 638 l 1221 701 l 1221 708 z "}}}
